<svg width="145" height="45" viewBox="0 0 145 45" fill="none" xmlns="http://www.w3.org/2000/svg">
<path d="M8.71256 26.1439C8.38586 26.1439 8.07006 26.0239 7.83048 25.773C4.49819 22.4457 2.6687 18.0058 2.6687 13.2931C2.6687 8.58043 4.49819 4.15139 7.83048 0.813246C8.32052 0.322342 9.11548 0.322342 9.60552 0.813246C10.0956 1.30415 10.0956 2.1005 9.60552 2.59141C6.75239 5.44956 5.17336 9.25679 5.17336 13.2931C5.17336 17.3294 6.7415 21.1367 9.60552 23.9948C10.0956 24.4857 10.0956 25.2821 9.60552 25.773C9.35506 26.0239 9.03925 26.1439 8.71256 26.1439Z" fill="white"/>
<path d="M31.8752 26.1439C31.5486 26.1439 31.2327 26.0239 30.9932 25.773C30.5031 25.2821 30.5031 24.4857 30.9932 23.9948C33.8463 21.1367 35.4253 17.3294 35.4253 13.2822C35.4253 9.23497 33.8354 5.44956 30.9823 2.59141C30.4922 2.1005 30.4922 1.30415 30.9823 0.813246C31.4723 0.322342 32.2673 0.322342 32.7573 0.813246C36.0896 4.15139 37.9191 8.58043 37.9191 13.2931C37.9191 18.0058 36.0896 22.4457 32.7573 25.773C32.5177 26.0239 32.1911 26.1439 31.8752 26.1439Z" fill="white"/>
<path d="M31.1891 14.3621H21.7803C21.9763 15.3112 22.4228 16.0639 23.0979 16.6094C23.784 17.1548 24.6116 17.4275 25.6026 17.4275C26.8549 17.4275 27.8786 17.0021 28.6844 16.1403C28.8369 15.9766 29.0874 15.9657 29.2507 16.1076L30.7753 17.4166C30.9495 17.5694 30.9713 17.8421 30.8079 18.0166C30.2417 18.6384 29.5556 19.1512 28.7389 19.5439C27.7806 20.0021 26.6807 20.2311 25.4284 20.2311C24.176 20.2311 22.9673 19.9475 21.9218 19.3802C20.8873 18.813 20.0597 18.0057 19.4607 16.9366C18.8618 15.8785 18.5569 14.6567 18.5569 13.2821C18.5569 12.2676 18.7202 11.3294 19.0578 10.4676C19.3845 9.60581 19.8419 8.87491 20.4299 8.27491C21.018 7.67492 21.7258 7.20584 22.5317 6.86766C23.3375 6.52948 24.1978 6.36584 25.1235 6.36584C26.8985 6.36584 28.3795 6.91129 29.5883 7.99128C29.9368 8.30764 30.2417 8.65673 30.4921 9.04945C31.2544 10.2058 31.6356 11.5694 31.6356 13.1294C31.6356 13.4458 31.6247 13.7294 31.6029 13.9803C31.5811 14.1985 31.396 14.3621 31.1891 14.3621ZM23.0762 9.86762C22.4554 10.3367 22.0416 11.0022 21.8238 11.9949H28.5429C28.4122 11.3185 28.2053 10.8494 27.9221 10.4458C27.639 10.0422 27.2688 9.73671 26.8223 9.50763C26.3758 9.27854 25.8531 9.15854 25.2868 9.15854C24.4265 9.16945 23.6969 9.39854 23.0762 9.86762Z" fill="white"/>
<path d="M12.5893 20.013H10.3569C10.1282 20.013 9.94312 19.8276 9.94312 19.5985V11.9731C9.94312 8.92954 12.4042 6.46411 15.4425 6.46411H17.1957C17.4244 6.46411 17.6096 6.64956 17.6096 6.87865V9.30044C17.6096 9.52953 17.4244 9.71498 17.1957 9.71498H15.2574C14.0159 9.71498 13.0032 10.7295 13.0032 11.9731V19.5985C13.0032 19.8276 12.818 20.013 12.5893 20.013Z" fill="white"/>
<path d="M110.979 3.96584C110.576 3.57312 110.38 3.08222 110.38 2.52586C110.38 1.9695 110.576 1.4786 110.979 1.07497C111.382 0.671337 111.872 0.474976 112.46 0.474976C113.048 0.474976 113.506 0.671337 113.919 1.08588C114.333 1.50042 114.529 1.9695 114.529 2.52586C114.529 2.89677 114.431 3.23494 114.246 3.5513C114.061 3.86766 113.81 4.11857 113.484 4.29311C113.168 4.47857 112.819 4.56584 112.46 4.56584C111.872 4.56584 111.382 4.36948 110.979 3.96584ZM111.328 6.57309H113.538C113.778 6.57309 113.974 6.76945 113.974 7.00945V19.5766C113.974 19.8166 113.778 20.0129 113.538 20.0129H111.328C111.088 20.0129 110.892 19.8166 110.892 19.5766V6.99854C110.903 6.75854 111.088 6.57309 111.328 6.57309Z" fill="white"/>
<path d="M116.326 17.9293L117.382 16.3585C117.524 16.1403 117.829 16.1076 118.025 16.2712C118.46 16.653 118.918 16.9366 119.408 17.1439C120.017 17.3948 120.736 17.5257 121.542 17.5257C122.119 17.5257 122.587 17.4057 122.914 17.1657C123.252 16.9257 123.415 16.6094 123.415 16.2057C123.415 15.8785 123.219 15.6166 122.849 15.4094C122.468 15.2021 121.771 14.9185 120.758 14.5694C120.355 14.4385 119.996 14.2967 119.68 14.1658C119.364 14.0348 119.048 13.8712 118.722 13.6858C118.395 13.5003 118.112 13.293 117.883 13.0749C117.654 12.8458 117.437 12.5949 117.241 12.3112C117.045 12.0276 116.903 11.7112 116.805 11.3512C116.707 10.9912 116.653 10.5985 116.653 10.1731C116.653 9.08218 117.099 8.17673 117.992 7.44583C118.885 6.71493 120.017 6.36584 121.379 6.36584C123.012 6.36584 124.482 6.84584 125.8 7.79492C125.985 7.92583 126.04 8.18764 125.92 8.384L124.853 10.0531C124.711 10.2713 124.417 10.3149 124.221 10.1513C123.981 9.9658 123.731 9.80217 123.47 9.64944C123.067 9.43126 122.685 9.26763 122.315 9.16945C121.945 9.07127 121.586 9.01672 121.215 9.01672C120.845 9.01672 120.529 9.1149 120.213 9.31127C119.909 9.50763 119.756 9.79126 119.756 10.1731C119.756 10.3913 119.854 10.5876 120.039 10.784C120.224 10.9803 120.464 11.144 120.747 11.3076C121.03 11.4603 121.411 11.6349 121.891 11.8203C123.317 12.3876 124.199 12.7585 124.548 12.933C125.43 13.413 126.018 13.9912 126.29 14.6676C126.453 15.093 126.53 15.573 126.53 16.1294C126.53 16.6857 126.432 17.2312 126.225 17.7221C126.018 18.213 125.713 18.6384 125.31 19.0093C124.907 19.3802 124.384 19.6748 123.742 19.8821C123.099 20.0893 122.359 20.1984 121.531 20.1984C119.549 20.1984 117.85 19.6311 116.424 18.4966C116.239 18.3766 116.195 18.1257 116.326 17.9293Z" fill="white"/>
<path d="M141.863 13.173C141.841 11.8749 141.547 10.7185 140.97 9.69308C140.371 8.63491 139.532 7.81674 138.476 7.23856C137.452 6.6822 136.287 6.39857 135.002 6.37675C134.871 6.36584 134.741 6.36584 134.599 6.36584C133.684 6.36584 132.835 6.54039 132.029 6.88947C131.234 7.23856 130.548 7.71856 129.971 8.32946C129.394 8.94036 128.947 9.68217 128.621 10.544C128.294 11.4167 128.12 12.344 128.12 13.3367C128.12 14.1548 128.229 14.9185 128.435 15.6385C128.642 16.3585 128.947 16.9912 129.339 17.5475C129.731 18.1039 130.189 18.573 130.722 18.9766C131.256 19.3802 131.855 19.6857 132.519 19.893C133.183 20.1002 133.891 20.1984 134.621 20.1984C136.45 20.1984 137.866 19.5221 138.89 18.1803H138.933V19.5548C138.933 19.7948 139.129 19.9911 139.369 19.9911H141.449C141.688 19.9911 141.884 19.7948 141.884 19.5548L141.863 13.173ZM137.801 16.293C137.06 17.0457 136.156 17.4275 135.1 17.4275C133.967 17.4275 133.042 17.0457 132.323 16.293C131.604 15.5403 131.245 14.5585 131.245 13.3694C131.245 12.7367 131.343 12.1585 131.55 11.624C131.746 11.0894 132.029 10.6422 132.378 10.2931C132.726 9.94399 133.14 9.66035 133.608 9.46399C134.076 9.26763 134.577 9.16945 135.122 9.16945C135.231 9.16945 135.34 9.18036 135.448 9.18036C136.341 9.27854 137.104 9.64944 137.724 10.304C138.236 10.8276 138.607 11.4603 138.792 12.1912C138.813 12.2894 138.835 12.3985 138.857 12.4967C138.901 12.7694 138.922 13.053 138.922 13.3585C138.911 14.5585 138.541 15.5294 137.801 16.293Z" fill="white"/>
<path d="M107.385 9.69308C106.797 8.63491 105.97 7.81674 104.924 7.23856C103.879 6.66039 102.681 6.36584 101.342 6.36584C100.002 6.36584 98.7606 6.6713 97.6934 7.27129C96.6262 7.87128 95.8204 8.70036 95.2432 9.75853C94.6769 10.8058 94.3938 11.9949 94.3938 13.3149C94.3938 14.2967 94.5572 15.2021 94.8947 16.053C95.2323 16.9039 95.6897 17.6348 96.2886 18.2566C96.8876 18.8675 97.6172 19.3584 98.4884 19.7075C99.3596 20.0566 100.307 20.2311 101.331 20.2311C102.659 20.2311 103.857 19.9475 104.902 19.3693C105.022 19.3039 105.131 19.2384 105.251 19.1621V19.5766C105.251 20.5257 104.902 21.3111 104.206 21.9438C103.509 22.5766 102.518 22.882 101.254 22.882C100.383 22.882 99.6209 22.7729 98.9675 22.5547C98.4339 22.3802 97.835 22.1293 97.1707 21.7911C96.9311 21.6711 96.6262 21.802 96.5609 22.0638L96.0599 23.9402C96.0055 24.1365 96.0926 24.3329 96.2669 24.4311C96.942 24.802 97.6934 25.0856 98.5102 25.3038C99.4467 25.5438 100.427 25.6638 101.44 25.6638C102.452 25.6638 103.291 25.5438 104.053 25.3256C104.826 25.0965 105.469 24.7802 105.991 24.3656C106.514 23.9511 106.95 23.4602 107.298 22.8602C107.647 22.2711 107.897 21.6275 108.039 20.9184C108.191 20.2202 108.267 19.4566 108.267 18.6166V13.3149C108.278 11.9512 107.984 10.7512 107.385 9.69308ZM104.086 16.2603C103.345 17.0348 102.43 17.4275 101.352 17.4275C100.274 17.4275 99.3051 17.0348 98.5864 16.2385C97.8568 15.453 97.4974 14.4712 97.4974 13.3039C97.4974 12.1367 97.8568 11.1331 98.5646 10.3476C99.2833 9.56217 100.209 9.16945 101.352 9.16945C102.496 9.16945 103.367 9.55126 104.097 10.3258C104.826 11.1003 105.197 12.0931 105.197 13.3149C105.197 14.5367 104.826 15.4857 104.086 16.2603Z" fill="white"/>
<path d="M67.9097 20.0239H65.6772C65.4377 20.0239 65.2416 19.8276 65.2416 19.5876V12.7586C65.2416 11.0131 63.9022 9.50768 62.1598 9.42041C60.2977 9.33314 58.7513 10.8168 58.7513 12.6604V19.5876C58.7513 19.8276 58.5553 20.0239 58.3157 20.0239H56.0833C55.8437 20.0239 55.6477 19.8276 55.6477 19.5876V12.8022C55.6477 9.24587 58.5553 6.2459 62.0945 6.31135C65.5575 6.3659 68.3344 9.19132 68.3344 12.6604V19.5876C68.3344 19.8276 68.1492 20.0239 67.9097 20.0239Z" fill="white"/>
<path d="M53.0668 14.3621H43.658C43.854 15.3112 44.3005 16.0639 44.9756 16.6094C45.6617 17.1548 46.5002 17.4275 47.4803 17.4275C48.7326 17.4275 49.7563 17.0021 50.5621 16.1403C50.7146 15.9766 50.965 15.9657 51.1284 16.1076L52.653 17.4166C52.8272 17.5694 52.849 17.8421 52.6856 18.0166C52.1194 18.6384 51.4333 19.1512 50.6166 19.5439C49.6583 20.0021 48.5584 20.2311 47.3061 20.2311C46.0537 20.2311 44.845 19.9475 43.7995 19.3802C42.765 18.813 41.9374 18.0057 41.3384 16.9366C40.7395 15.8676 40.4346 14.6567 40.4346 13.2821C40.4346 12.2676 40.5979 11.3294 40.9355 10.4676C41.2622 9.60581 41.7196 8.87491 42.3076 8.27491C42.8957 7.67492 43.5817 7.20584 44.3876 6.86766C45.1934 6.52948 46.0537 6.36584 46.9794 6.36584C48.7544 6.36584 50.2354 6.91129 51.4442 7.99128C51.7927 8.30764 52.0976 8.65673 52.348 9.04945C53.1103 10.2058 53.4915 11.5694 53.4915 13.1294C53.4915 13.4458 53.4806 13.7294 53.4588 13.9803C53.4588 14.1985 53.2846 14.3621 53.0668 14.3621ZM44.9647 9.86762C44.344 10.3367 43.9302 11.0022 43.7124 11.9949H50.4314C50.3008 11.3185 50.0939 10.8494 49.8107 10.4458C49.5276 10.0422 49.1573 9.73671 48.7108 9.50763C48.2644 9.27854 47.7417 9.15854 47.1754 9.15854C46.3151 9.16945 45.5855 9.39854 44.9647 9.86762Z" fill="white"/>
<path d="M83.1445 14.3621H73.7357C73.9317 15.3112 74.3782 16.0639 75.0643 16.6094C75.7503 17.1548 76.5888 17.4275 77.5689 17.4275C78.8212 17.4275 79.8449 17.0021 80.6507 16.1403C80.8032 15.9766 81.0537 15.9657 81.217 16.1076L82.7416 17.4166C82.9267 17.5694 82.9376 17.8421 82.7743 18.0166C82.208 18.6384 81.5219 19.1512 80.7052 19.5439C79.7469 20.0021 78.647 20.2311 77.3947 20.2311C76.1424 20.2311 74.9227 19.9475 73.8882 19.3802C72.8536 18.813 72.0369 18.0057 71.4271 16.9366C70.8172 15.8676 70.5232 14.6567 70.5232 13.2821C70.5232 12.2676 70.6865 11.3294 71.0241 10.4676C71.3508 9.60581 71.8082 8.87491 72.3962 8.27491C72.9843 7.67492 73.6704 7.20584 74.4762 6.86766C75.2821 6.52948 76.1424 6.36584 77.068 6.36584C78.843 6.36584 80.324 6.91129 81.5328 7.99128C81.8813 8.30764 82.1862 8.65673 82.4367 9.04945C83.199 10.2058 83.5801 11.5694 83.5801 13.1294C83.5801 13.4458 83.5692 13.7294 83.5474 13.9803C83.5366 14.1985 83.3623 14.3621 83.1445 14.3621ZM75.0425 9.86762C74.4218 10.3367 74.0079 11.0022 73.7901 11.9949H80.5092C80.3785 11.3185 80.1607 10.8494 79.8885 10.4458C79.6053 10.0422 79.2351 9.73671 78.7886 9.50763C78.3421 9.27854 77.8085 9.16945 77.2422 9.16945C76.3928 9.16945 75.6523 9.39854 75.0425 9.86762Z" fill="white"/>
<path d="M88.5676 20.0239H86.3352C86.1065 20.0239 85.9214 19.8385 85.9214 19.6094V11.984C85.9214 8.9404 88.3825 6.47498 91.4208 6.47498H93.174C93.4027 6.47498 93.5878 6.66043 93.5878 6.88952V9.31131C93.5878 9.5404 93.4027 9.72585 93.174 9.72585H91.2356C89.9833 9.72585 88.9814 10.7404 88.9814 11.984V19.6094C88.9814 19.8385 88.7963 20.0239 88.5676 20.0239Z" fill="white"/>
<path d="M120.094 29.1438C119.462 29.3401 119.114 29.711 118.863 30.4092C118.591 31.1619 118.7 31.9146 119.125 32.1874C119.277 32.2855 119.451 32.3074 119.822 32.2855C120.377 32.2528 120.388 32.2637 120.126 32.7764C119.93 33.1583 119.266 33.3437 118.765 33.1583C118.624 33.1037 118.569 33.1146 118.493 33.2455C118.384 33.4201 118.373 33.4092 118.711 33.5292C119.451 33.7801 120.301 33.4964 120.617 32.8855C120.758 32.6237 121.433 29.4601 121.379 29.3183C121.303 29.1219 120.519 29.0238 120.094 29.1438ZM120.78 29.4492C120.867 29.5038 120.845 29.711 120.638 30.6928C120.508 31.3365 120.355 31.9037 120.301 31.9365C120.257 31.9692 120.05 32.0019 119.854 32.0019C119.288 32.0019 119.114 31.6746 119.255 30.8783C119.353 30.3437 119.538 29.951 119.843 29.6783C120.159 29.3838 120.54 29.2965 120.78 29.4492Z" fill="white"/>
<path d="M122.566 29.1547C122.37 29.1984 122.185 29.2529 122.152 29.2966C122.108 29.3402 121.477 32.1111 121.477 32.2856C121.477 32.2965 121.597 32.3074 121.727 32.3074H121.989L122.239 31.0529C122.577 29.3838 122.544 29.4602 122.958 29.4602C123.23 29.4602 123.328 29.4166 123.393 29.3184C123.426 29.2311 123.47 29.1547 123.47 29.122C123.481 29.0566 122.969 29.0784 122.566 29.1547Z" fill="white"/>
<path d="M127.139 29.1547C126.965 29.1984 126.813 29.2529 126.78 29.2856C126.726 29.3402 125.876 33.2892 125.876 33.4747C125.876 33.5183 125.985 33.5401 126.127 33.5183C126.366 33.4965 126.377 33.4747 126.497 32.9183L126.617 32.3401L127.085 32.3292C127.335 32.3183 127.651 32.2638 127.782 32.1983C128.326 31.9147 128.762 31.2274 128.86 30.4638C128.98 29.4165 128.294 28.8929 127.139 29.1547ZM128.207 29.6238C128.326 29.7656 128.348 29.8965 128.316 30.3547C128.25 31.3583 127.749 31.9911 127.052 31.9911C126.802 31.9911 126.715 31.9583 126.715 31.8711C126.715 31.8056 126.824 31.2711 126.943 30.6711C127.074 30.082 127.172 29.5693 127.172 29.5475C127.172 29.5365 127.248 29.482 127.346 29.4384C127.608 29.3402 128.043 29.4275 128.207 29.6238Z" fill="white"/>
<path d="M130.352 29.1547C129.72 29.3511 129.241 30.2238 129.22 31.2056C129.209 31.8711 129.361 32.1329 129.84 32.2965C130.722 32.6129 131.583 31.762 131.746 30.442C131.844 29.6565 131.539 29.1547 130.918 29.1002C130.744 29.0893 130.483 29.1111 130.352 29.1547ZM130.984 29.4711C131.234 29.5802 131.289 29.7984 131.234 30.3984C131.158 31.3038 130.722 31.9911 130.2 31.9911C129.851 31.9911 129.71 31.7947 129.71 31.2929C129.71 30.4202 130.123 29.5365 130.592 29.4166C130.679 29.3947 130.755 29.3729 130.766 29.3729C130.777 29.3947 130.875 29.4166 130.984 29.4711Z" fill="white"/>
<path d="M123.84 29.2856C123.709 29.7329 123.404 31.3692 123.404 31.631C123.404 32.0347 123.655 32.2856 124.123 32.351C124.45 32.4056 125.19 32.2965 125.386 32.1765C125.43 32.1438 125.604 31.511 125.757 30.7692C125.909 30.0274 126.051 29.362 126.072 29.2856C126.105 29.1765 126.061 29.1547 125.844 29.1547C125.582 29.1547 125.571 29.1656 125.495 29.5147C124.983 31.9474 125.005 31.9147 124.831 31.9583C124.504 32.0565 124.167 32.0019 124.014 31.8492C123.927 31.7619 123.862 31.6638 123.862 31.631C123.862 31.5874 123.971 31.0638 124.09 30.4747C124.221 29.8747 124.319 29.3292 124.319 29.2638C124.33 29.1002 123.883 29.1111 123.84 29.2856Z" fill="white"/>
<path d="M135.089 31.642C134.468 31.8602 134.022 32.3947 134.022 32.9184C134.022 33.3765 134.544 33.8456 135.078 33.8456C135.644 33.8456 136.276 33.4747 136.526 32.9947C136.81 32.4384 136.537 31.7729 135.96 31.6202C135.601 31.522 135.427 31.522 135.089 31.642Z" fill="white"/>
<path d="M104.87 31.6966C104.565 31.8166 104.184 32.1438 104.064 32.3838C103.911 32.6784 103.922 33.2347 104.075 33.4529C104.489 34.0529 105.643 33.9656 106.231 33.2893C106.873 32.5475 106.438 31.6093 105.447 31.6202C105.24 31.6202 104.979 31.6638 104.87 31.6966Z" fill="white"/>
<path d="M109.149 35.1547C108.899 35.1983 108.496 35.2638 108.246 35.3183L107.788 35.4165L107.668 35.8201C107.603 36.0492 107.505 36.431 107.429 36.671C107.363 36.9001 107.32 37.1074 107.342 37.1292C107.363 37.151 107.657 37.0638 108.017 36.9656C108.55 36.8019 108.801 36.7692 109.422 36.8019C110.075 36.8238 110.195 36.8456 110.347 36.9983C110.522 37.1728 110.565 37.4892 110.467 37.8819C110.424 38.0565 110.369 38.1001 110.162 38.1001C109.857 38.1001 108.834 38.2747 108.18 38.4492C106.46 38.8965 105.414 39.9001 105.175 41.3183C105 42.3546 105.436 43.1073 106.46 43.5001C106.841 43.6528 107.091 43.6855 108.126 43.7182C109.454 43.7619 110.336 43.6419 111.218 43.3255L111.676 43.1619L112.242 40.6528C112.732 38.5256 112.808 38.0347 112.83 37.3801C112.841 36.7147 112.819 36.5619 112.667 36.2456C112.449 35.8092 111.992 35.4492 111.458 35.2856C110.979 35.1329 109.77 35.0674 109.149 35.1547ZM110.097 39.4092C110.097 39.4637 109.966 40.0965 109.814 40.8055C109.487 42.2892 109.52 42.2455 108.67 42.2455C108.137 42.2455 107.766 42.1146 107.636 41.8637C107.516 41.6128 107.549 40.991 107.723 40.6201C108.017 39.9655 108.496 39.6165 109.356 39.4201C109.966 39.311 110.097 39.3001 110.097 39.4092Z" fill="white"/>
<path d="M116.032 35.1657C115.357 35.2638 114.562 35.4384 114.126 35.6238L113.81 35.7657L112.983 39.5292C112.525 41.6019 112.133 43.3692 112.112 43.4783L112.079 43.6419H114.605L115.346 40.282C115.749 38.4274 116.108 36.9002 116.13 36.8675C116.163 36.8456 116.457 36.8129 116.805 36.802C117.524 36.7802 117.872 36.922 117.97 37.2929C118.003 37.4347 117.796 38.5147 117.36 40.4892C117.001 42.1256 116.707 43.5219 116.707 43.5656C116.707 43.631 117.066 43.6528 117.948 43.631L119.19 43.6092L119.832 40.762C120.181 39.1911 120.508 37.7293 120.551 37.5002C120.627 37.1511 120.671 37.0747 120.932 36.9438C121.117 36.8456 121.39 36.7911 121.629 36.7911C122.25 36.7911 122.544 37.0093 122.555 37.4675C122.555 37.6529 121.575 42.2783 121.27 43.4783L121.237 43.6419H123.775L123.894 43.1183C124.787 39.1474 125.114 37.5329 125.114 37.1293C125.103 36.5184 124.918 36.0711 124.493 35.7002C124.014 35.2638 123.491 35.122 122.479 35.1329C121.575 35.1438 120.921 35.2857 120.235 35.6347L119.789 35.8529L119.419 35.6238C119.223 35.4929 118.885 35.3293 118.667 35.2747C118.199 35.122 116.783 35.0675 116.032 35.1657Z" fill="white"/>
<path d="M128.838 35.1547C128.588 35.1983 128.196 35.2638 127.945 35.3183L127.488 35.4165L127.248 36.2674C127.107 36.7365 127.009 37.1292 127.02 37.1401C127.031 37.151 127.336 37.0856 127.695 36.9765C128.37 36.7801 129.437 36.7256 129.808 36.8674C130.134 36.9874 130.265 37.271 130.189 37.6965L130.123 38.0565L129.198 38.1874C126.595 38.5692 125.234 39.4965 124.885 41.1764C124.646 42.3001 125.07 43.0855 126.127 43.5001C126.508 43.6419 126.747 43.6746 127.847 43.7073C128.915 43.7291 129.241 43.7073 129.906 43.5764C130.624 43.4346 131.387 43.1728 131.387 43.0746C131.387 43.0528 131.648 41.8528 131.964 40.4237C132.628 37.4347 132.672 36.9438 132.356 36.2674C132.127 35.7983 131.702 35.4492 131.125 35.2856C130.668 35.1329 129.459 35.0674 128.838 35.1547ZM129.786 39.6055C129.753 39.7692 129.611 40.3801 129.481 40.9801C129.35 41.5801 129.209 42.0928 129.165 42.1364C129.132 42.1801 128.838 42.2237 128.523 42.2346C127.412 42.3001 127.009 41.7873 127.357 40.7728C127.608 40.0637 128.152 39.6274 129.023 39.431C129.829 39.2674 129.862 39.2783 129.786 39.6055Z" fill="white"/>
<path d="M138.639 35.1983C137.528 35.4492 136.712 36.0274 136.341 36.8347C136.069 37.4238 136.047 38.3401 136.309 38.8201C136.548 39.2565 137.114 39.7474 137.866 40.1619C138.563 40.5328 138.868 40.8601 138.868 41.2201C138.868 41.4928 138.563 41.831 138.28 41.9073C137.801 42.0273 136.603 41.8092 135.786 41.4492C135.688 41.4055 135.612 41.5474 135.383 42.2237C135.22 42.6819 135.1 43.0746 135.1 43.0964C135.1 43.1837 135.829 43.4673 136.341 43.5873C136.984 43.7401 138.389 43.7291 138.977 43.5873C140.479 43.1946 141.274 42.3437 141.372 41.0564C141.405 40.5983 141.383 40.4455 141.242 40.1074C141.013 39.5946 140.447 39.0383 139.663 38.6128C138.846 38.1656 138.552 37.8928 138.552 37.6092C138.552 37.2819 138.89 36.9656 139.325 36.9001C139.728 36.8347 140.588 36.9547 140.991 37.1183C141.242 37.2274 141.253 37.2274 141.329 37.0201C141.416 36.791 141.862 35.5256 141.862 35.4929C141.862 35.482 141.634 35.3947 141.351 35.2965C140.665 35.1002 139.336 35.0347 138.639 35.1983Z" fill="white"/>
<path d="M95.3303 35.351C95.3303 35.5474 96.1471 42.7691 96.2233 43.2709L96.2668 43.5655H98.619L100.677 39.6164C101.81 37.4455 102.812 35.5474 102.888 35.4056L103.04 35.1547H100.743L99.5338 37.7619C98.8695 39.191 98.2597 40.5546 98.1835 40.7946L98.031 41.2091L98.0637 40.7837C98.0746 40.5546 98.0528 39.2892 97.9874 37.9692C97.933 36.6492 97.8785 35.4928 97.8785 35.3619V35.1547H95.3412L95.3303 35.351Z" fill="white"/>
<path d="M103.487 35.2201C103.487 35.2637 102.332 40.9036 101.821 43.3473L101.777 43.5654H104.216L105.055 39.4637C105.512 37.2164 105.904 35.3183 105.926 35.2637C105.948 35.1983 105.676 35.1655 104.717 35.1655C104.031 35.1655 103.487 35.1873 103.487 35.2201Z" fill="white"/>
<path d="M133.63 35.1764C133.63 35.1874 133.238 37.0746 132.759 39.3655L131.898 43.5218L133.085 43.5436C133.739 43.5545 134.283 43.5545 134.305 43.5327C134.338 43.5 136.026 35.351 136.026 35.231C136.015 35.1764 133.652 35.111 133.63 35.1764Z" fill="white"/>
<path d="M90.8764 30.6603H88.3173L88.8183 28.1621H86.4878L85.9869 30.6603H83.4387L82.9922 32.8639H85.5513L85.0504 35.362H87.3808L87.8817 32.8639H90.43L90.8764 30.6603Z" fill="white"/>
</svg>
