<svg width="334" height="58" viewBox="0 0 334 58" fill="none" xmlns="http://www.w3.org/2000/svg">
<path d="M12.8792 49.8632C12.3992 49.8632 11.9353 49.6911 11.5833 49.3312C6.68776 44.5585 4 38.1897 4 31.4296C4 24.6696 6.68776 18.3165 11.5833 13.5281C12.3033 12.824 13.4711 12.824 14.1911 13.5281C14.911 14.2323 14.911 15.3746 14.1911 16.0788C9.99946 20.1786 7.67967 25.6398 7.67967 31.4296C7.67967 37.2195 9.98346 42.6807 14.1911 46.7805C14.911 47.4847 14.911 48.627 14.1911 49.3312C13.8231 49.6911 13.3592 49.8632 12.8792 49.8632Z" fill="#00A0C5"/>
<path d="M46.9082 49.8631C46.4282 49.8631 45.9643 49.6909 45.6123 49.331C44.8924 48.6269 44.8924 47.4846 45.6123 46.7804C49.8039 42.6806 52.1237 37.2193 52.1237 31.4139C52.1237 25.6084 49.7879 20.1785 45.5963 16.0787C44.8764 15.3745 44.8764 14.2322 45.5963 13.528C46.3162 12.8238 47.4841 12.8238 48.2041 13.528C53.0996 18.3163 55.7874 24.6695 55.7874 31.4295C55.7874 38.1895 53.0996 44.5583 48.2041 49.331C47.8521 49.6909 47.3721 49.8631 46.9082 49.8631Z" fill="#00A0C5"/>
<path d="M45.9002 32.963H32.0774C32.3654 34.3244 33.0213 35.4041 34.0132 36.1866C35.0211 36.969 36.237 37.3602 37.6929 37.3602C39.5327 37.3602 41.0366 36.7499 42.2205 35.5137C42.4445 35.279 42.8124 35.2633 43.0524 35.4667L45.2922 37.3445C45.5482 37.5636 45.5802 37.9548 45.3402 38.2052C44.5083 39.0971 43.5004 39.8326 42.3005 40.3959C40.8926 41.0531 39.2768 41.3817 37.4369 41.3817C35.5971 41.3817 33.8212 40.9749 32.2854 40.1612C30.7655 39.3475 29.5496 38.1895 28.6697 36.656C27.7898 35.1381 27.3418 33.3855 27.3418 31.4139C27.3418 29.9586 27.5818 28.6128 28.0778 27.3766C28.5577 26.1404 29.2297 25.092 30.0936 24.2314C30.9575 23.3707 31.9974 22.6978 33.1813 22.2127C34.3652 21.7276 35.6291 21.4929 36.989 21.4929C39.5967 21.4929 41.7725 22.2753 43.5484 23.8245C44.0603 24.2783 44.5083 24.779 44.8763 25.3424C45.9962 27.0011 46.5561 28.9571 46.5561 31.1948C46.5561 31.6486 46.5401 32.0554 46.5081 32.4153C46.4761 32.7283 46.2041 32.963 45.9002 32.963ZM33.9812 26.516C33.0693 27.1889 32.4614 28.1434 32.1414 29.5674H42.0125C41.8205 28.5972 41.5166 27.9243 41.1006 27.3453C40.6846 26.7664 40.1407 26.3282 39.4847 25.9996C38.8288 25.671 38.0609 25.4989 37.2289 25.4989C35.9651 25.5145 34.8931 25.8431 33.9812 26.516Z" fill="#00A0C5"/>
<path d="M18.5747 41.0687H15.295C14.959 41.0687 14.687 40.8027 14.687 40.4741V29.536C14.687 25.1702 18.3027 21.6337 22.7663 21.6337H25.3421C25.6781 21.6337 25.95 21.8997 25.95 22.2283V25.7022C25.95 26.0308 25.6781 26.2968 25.3421 26.2968H22.4943C20.6705 26.2968 19.1826 27.7521 19.1826 29.536V40.4741C19.1826 40.8027 18.9107 41.0687 18.5747 41.0687Z" fill="#00A0C5"/>
<path d="M163.122 18.0503C162.53 17.4869 162.242 16.7828 162.242 15.9847C162.242 15.1866 162.53 14.4825 163.122 13.9035C163.714 13.3245 164.434 13.0428 165.298 13.0428C166.161 13.0428 166.833 13.3245 167.441 13.9191C168.049 14.5138 168.337 15.1866 168.337 15.9847C168.337 16.5167 168.193 17.0018 167.921 17.4556C167.649 17.9094 167.281 18.2693 166.801 18.5197C166.337 18.7857 165.826 18.9109 165.298 18.9109C164.434 18.9109 163.714 18.6292 163.122 18.0503ZM163.634 21.7902H166.881C167.233 21.7902 167.521 22.0718 167.521 22.4161V40.4428C167.521 40.7871 167.233 41.0687 166.881 41.0687H163.634C163.282 41.0687 162.994 40.7871 162.994 40.4428V22.4005C163.01 22.0562 163.282 21.7902 163.634 21.7902Z" fill="#00A0C5"/>
<path d="M170.977 38.08L172.529 35.8266C172.737 35.5137 173.185 35.4667 173.473 35.7015C174.113 36.2492 174.785 36.656 175.505 36.9533C176.401 37.3132 177.456 37.501 178.64 37.501C179.488 37.501 180.176 37.3289 180.656 36.9846C181.152 36.6404 181.392 36.1866 181.392 35.6076C181.392 35.1381 181.104 34.7626 180.56 34.4653C180 34.1679 178.976 33.7611 177.488 33.2603C176.896 33.0726 176.369 32.8691 175.905 32.6814C175.441 32.4936 174.977 32.2589 174.497 31.9928C174.017 31.7268 173.601 31.4295 173.265 31.1165C172.929 30.7879 172.609 30.428 172.321 30.0212C172.033 29.6143 171.825 29.1605 171.681 28.6441C171.537 28.1277 171.457 27.5644 171.457 26.9541C171.457 25.3893 172.113 24.0905 173.425 23.0421C174.737 21.9937 176.401 21.4929 178.4 21.4929C180.8 21.4929 182.96 22.1814 184.896 23.5428C185.168 23.7306 185.248 24.1062 185.072 24.3878L183.504 26.782C183.296 27.095 182.864 27.1576 182.576 26.9228C182.224 26.6568 181.856 26.4221 181.472 26.203C180.88 25.8901 180.32 25.6553 179.776 25.5145C179.232 25.3737 178.704 25.2954 178.16 25.2954C177.616 25.2954 177.152 25.4363 176.688 25.7179C176.241 25.9996 176.017 26.4064 176.017 26.9541C176.017 27.2671 176.161 27.5488 176.433 27.8304C176.704 28.1121 177.056 28.3468 177.472 28.5815C177.888 28.8006 178.448 29.051 179.152 29.317C181.248 30.1307 182.544 30.6628 183.056 30.9131C184.352 31.6016 185.216 32.431 185.616 33.4012C185.856 34.0115 185.968 34.7 185.968 35.498C185.968 36.2961 185.824 37.0785 185.52 37.7827C185.216 38.4868 184.768 39.0971 184.176 39.6292C183.584 40.1612 182.816 40.5837 181.872 40.881C180.928 41.1783 179.84 41.3348 178.624 41.3348C175.713 41.3348 173.217 40.5211 171.121 38.8937C170.849 38.7216 170.785 38.3617 170.977 38.08Z" fill="#00A0C5"/>
<path d="M208.494 31.2574C208.462 29.3952 208.03 27.7365 207.182 26.2656C206.302 24.7477 205.07 23.5741 203.518 22.7448C202.014 21.9467 200.302 21.5399 198.414 21.5086C198.222 21.4929 198.03 21.4929 197.822 21.4929C196.479 21.4929 195.231 21.7433 194.047 22.244C192.879 22.7448 191.871 23.4333 191.023 24.3096C190.175 25.1859 189.519 26.25 189.039 27.4862C188.559 28.738 188.303 30.0681 188.303 31.4921C188.303 32.6657 188.463 33.7611 188.767 34.7939C189.071 35.8267 189.519 36.7342 190.095 37.5323C190.671 38.3304 191.343 39.0032 192.127 39.5822C192.911 40.1612 193.791 40.5993 194.767 40.8967C195.743 41.194 196.783 41.3348 197.854 41.3348C200.542 41.3348 202.622 40.3646 204.126 38.4399H204.19V40.4116C204.19 40.7558 204.478 41.0375 204.83 41.0375H207.886C208.238 41.0375 208.526 40.7558 208.526 40.4116L208.494 31.2574ZM202.526 35.7328C201.438 36.8125 200.11 37.3602 198.558 37.3602C196.895 37.3602 195.535 36.8125 194.479 35.7328C193.423 34.653 192.895 33.2447 192.895 31.539C192.895 30.6315 193.039 29.8021 193.343 29.0353C193.631 28.2686 194.047 27.627 194.559 27.1263C195.071 26.6255 195.679 26.2187 196.367 25.937C197.055 25.6553 197.791 25.5145 198.59 25.5145C198.75 25.5145 198.91 25.5301 199.07 25.5301C200.382 25.671 201.502 26.203 202.414 27.1419C203.166 27.893 203.71 28.8006 203.982 29.849C204.014 29.9899 204.046 30.1464 204.078 30.2872C204.142 30.6784 204.174 31.0853 204.174 31.5234C204.158 33.2447 203.614 34.6374 202.526 35.7328Z" fill="#00A0C5"/>
<path d="M157.842 26.2656C156.978 24.7477 155.762 23.5741 154.226 22.7448C152.691 21.9154 150.931 21.4929 148.963 21.4929C146.995 21.4929 145.171 21.9311 143.603 22.7917C142.036 23.6524 140.852 24.8416 140.004 26.3595C139.172 27.8617 138.756 29.5674 138.756 31.4608C138.756 32.8691 138.996 34.1679 139.492 35.3885C139.988 36.6091 140.66 37.6575 141.54 38.5494C142.42 39.4257 143.491 40.1299 144.771 40.6306C146.051 41.1314 147.443 41.3818 148.947 41.3818C150.899 41.3818 152.659 40.9749 154.194 40.1455C154.37 40.0517 154.53 39.9578 154.706 39.8482V40.4429C154.706 41.8043 154.194 42.9309 153.171 43.8385C152.147 44.7461 150.691 45.1843 148.835 45.1843C147.555 45.1843 146.435 45.0278 145.475 44.7148C144.691 44.4644 143.811 44.1045 142.835 43.6194C142.484 43.4473 142.036 43.6351 141.94 44.0106L141.204 46.7021C141.124 46.9838 141.252 47.2655 141.508 47.4063C142.5 47.9383 143.603 48.3452 144.803 48.6582C146.179 49.0024 147.619 49.1745 149.107 49.1745C150.595 49.1745 151.827 49.0024 152.947 48.6894C154.082 48.3608 155.026 47.907 155.794 47.3124C156.562 46.7178 157.202 46.0136 157.714 45.153C158.226 44.308 158.594 43.3847 158.802 42.3676C159.026 41.3661 159.138 40.2707 159.138 39.0658V31.4608C159.154 29.5048 158.722 27.7835 157.842 26.2656ZM152.995 35.6858C151.907 36.7968 150.563 37.3602 148.979 37.3602C147.395 37.3602 145.971 36.7968 144.915 35.6545C143.843 34.5279 143.315 33.1195 143.315 31.4452C143.315 29.7708 143.843 28.3312 144.883 27.2045C145.939 26.0778 147.299 25.5145 148.979 25.5145C150.659 25.5145 151.939 26.0622 153.011 27.1732C154.082 28.2842 154.626 29.7082 154.626 31.4608C154.626 33.2134 154.082 34.5748 152.995 35.6858Z" fill="#00A0C5"/>
<path d="M99.8473 41.0845H96.5676C96.2156 41.0845 95.9276 40.8028 95.9276 40.4585V30.6628C95.9276 28.1591 93.9598 25.9996 91.4 25.8744C88.6643 25.7493 86.3925 27.8774 86.3925 30.522V40.4585C86.3925 40.8028 86.1045 41.0845 85.7525 41.0845H82.4728C82.1209 41.0845 81.8329 40.8028 81.8329 40.4585V30.7254C81.8329 25.6241 86.1045 21.3208 91.304 21.4147C96.3916 21.493 100.471 25.5458 100.471 30.522V40.4585C100.471 40.8028 100.199 41.0845 99.8473 41.0845Z" fill="#00A0C5"/>
<path d="M78.0412 32.963H64.2185C64.5064 34.3244 65.1624 35.4041 66.1543 36.1866C67.1622 36.969 68.3941 37.3602 69.834 37.3602C71.6738 37.3602 73.1776 36.7499 74.3615 35.5137C74.5855 35.279 74.9535 35.2633 75.1935 35.4667L77.4333 37.3445C77.6892 37.5636 77.7212 37.9548 77.4813 38.2052C76.6493 39.0971 75.6414 39.8326 74.4415 40.3959C73.0337 41.0531 71.4178 41.3817 69.578 41.3817C67.7381 41.3817 65.9623 40.9749 64.4264 40.1612C62.9066 39.3475 61.6907 38.1895 60.8108 36.656C59.9308 35.1225 59.4829 33.3855 59.4829 31.4139C59.4829 29.9586 59.7229 28.6128 60.2188 27.3766C60.6988 26.1404 61.3707 25.092 62.2346 24.2314C63.0986 23.3707 64.1065 22.6978 65.2904 22.2127C66.4743 21.7276 67.7381 21.4929 69.098 21.4929C71.7058 21.4929 73.8816 22.2753 75.6574 23.8245C76.1694 24.2783 76.6173 24.779 76.9853 25.3424C78.1052 27.0011 78.6652 28.9571 78.6652 31.1948C78.6652 31.6486 78.6492 32.0554 78.6172 32.4153C78.6172 32.7283 78.3612 32.963 78.0412 32.963ZM66.1383 26.516C65.2264 27.1889 64.6184 28.1434 64.2984 29.5674H74.1696C73.9776 28.5972 73.6736 27.9243 73.2576 27.3453C72.8417 26.7664 72.2977 26.3282 71.6418 25.9996C70.9858 25.671 70.2179 25.4989 69.386 25.4989C68.1221 25.5145 67.0502 25.8431 66.1383 26.516Z" fill="#00A0C5"/>
<path d="M122.229 32.963H108.407C108.695 34.3244 109.351 35.4041 110.358 36.1866C111.366 36.969 112.598 37.3602 114.038 37.3602C115.878 37.3602 117.382 36.7499 118.566 35.5137C118.79 35.279 119.158 35.2633 119.398 35.4667L121.637 37.3445C121.909 37.5636 121.925 37.9548 121.685 38.2052C120.853 39.0971 119.846 39.8326 118.646 40.3959C117.238 41.0531 115.622 41.3817 113.782 41.3817C111.942 41.3817 110.15 40.9749 108.631 40.1612C107.111 39.3475 105.911 38.1895 105.015 36.656C104.119 35.1225 103.687 33.3855 103.687 31.4139C103.687 29.9586 103.927 28.6128 104.423 27.3766C104.903 26.1404 105.575 25.092 106.439 24.2314C107.303 23.3707 108.311 22.6978 109.494 22.2127C110.678 21.7276 111.942 21.4929 113.302 21.4929C115.91 21.4929 118.086 22.2753 119.862 23.8245C120.374 24.2783 120.821 24.779 121.189 25.3424C122.309 27.0011 122.869 28.9571 122.869 31.1948C122.869 31.6486 122.853 32.0554 122.821 32.4153C122.805 32.7283 122.549 32.963 122.229 32.963ZM110.326 26.516C109.414 27.1889 108.807 28.1434 108.487 29.5674H118.358C118.166 28.5972 117.846 27.9243 117.446 27.3453C117.03 26.7664 116.486 26.3282 115.83 25.9996C115.174 25.671 114.39 25.5145 113.558 25.5145C112.31 25.5145 111.222 25.8431 110.326 26.516Z" fill="#00A0C5"/>
<path d="M130.197 41.0846H126.917C126.581 41.0846 126.309 40.8186 126.309 40.4899V29.5519C126.309 25.186 129.925 21.6495 134.388 21.6495H136.964C137.3 21.6495 137.572 21.9156 137.572 22.2442V25.7181C137.572 26.0467 137.3 26.3127 136.964 26.3127H134.116C132.276 26.3127 130.805 27.768 130.805 29.5519V40.4899C130.805 40.8186 130.533 41.0846 130.197 41.0846Z" fill="#00A0C5"/>
<rect x="217" y="13" width="2" height="34" fill="#00A0C5"/>
<path d="M281.746 9.13066C280.35 9.55451 279.579 10.3551 279.025 11.8622C278.424 13.4869 278.664 15.1117 279.603 15.7004C279.94 15.9123 280.326 15.9594 281.144 15.9123C282.372 15.8417 282.396 15.8652 281.818 16.972C281.385 17.7961 279.916 18.1964 278.809 17.7961C278.496 17.6784 278.375 17.7019 278.207 17.9845C277.966 18.3613 277.942 18.3377 278.688 18.5967C280.326 19.1383 282.203 18.5261 282.902 17.2074C283.214 16.6423 284.707 9.81354 284.587 9.50742C284.418 9.08356 282.685 8.87163 281.746 9.13066ZM283.263 9.78998C283.455 9.90772 283.407 10.3551 282.95 12.4744C282.661 13.8637 282.324 15.0882 282.203 15.1588C282.107 15.2295 281.65 15.3001 281.216 15.3001C279.964 15.3001 279.579 14.5937 279.892 12.8747C280.109 11.7209 280.518 10.8732 281.192 10.2845C281.89 9.6487 282.733 9.46032 283.263 9.78998Z" fill="#00A0C5"/>
<path d="M287.211 9.1543C286.777 9.24849 286.368 9.36623 286.296 9.46042C286.2 9.55461 284.803 15.5357 284.803 15.9124C284.803 15.936 285.068 15.9595 285.357 15.9595H285.935L286.489 13.2516C287.235 9.6488 287.163 9.81363 288.078 9.81363C288.679 9.81363 288.896 9.71944 289.04 9.50752C289.113 9.31914 289.209 9.1543 289.209 9.08366C289.233 8.94237 288.102 8.98947 287.211 9.1543Z" fill="#00A0C5"/>
<path d="M297.322 9.15451C296.937 9.2487 296.6 9.36644 296.528 9.43708C296.407 9.55482 294.53 18.079 294.53 18.4793C294.53 18.5735 294.77 18.6206 295.083 18.5735C295.613 18.5264 295.637 18.4793 295.902 17.2784L296.167 16.0304L297.202 16.0068C297.756 15.9833 298.454 15.8656 298.743 15.7243C299.946 15.112 300.909 13.6285 301.126 11.9802C301.391 9.71965 299.874 8.58937 297.322 9.15451ZM299.682 10.1671C299.946 10.4732 299.995 10.7557 299.922 11.7447C299.778 13.9111 298.671 15.2769 297.13 15.2769C296.576 15.2769 296.383 15.2062 296.383 15.0178C296.383 14.8766 296.624 13.7227 296.889 12.4276C297.178 11.1561 297.395 10.0493 297.395 10.0022C297.395 9.97867 297.563 9.86093 297.78 9.76674C298.358 9.55482 299.321 9.7432 299.682 10.1671Z" fill="#00A0C5"/>
<path d="M304.424 9.15426C303.028 9.57811 301.969 11.4619 301.921 13.5812C301.897 15.0176 302.234 15.5827 303.293 15.9359C305.243 16.6188 307.145 14.7821 307.506 11.9329C307.723 10.2374 307.049 9.15426 305.676 9.03652C305.291 9.01297 304.713 9.06007 304.424 9.15426ZM305.821 9.83713C306.374 10.0726 306.495 10.5436 306.374 11.8387C306.206 13.7931 305.243 15.2766 304.087 15.2766C303.317 15.2766 303.004 14.8527 303.004 13.7696C303.004 11.8858 303.919 9.97842 304.954 9.71939C305.147 9.6723 305.315 9.62521 305.339 9.62521C305.363 9.6723 305.58 9.71939 305.821 9.83713Z" fill="#00A0C5"/>
<path d="M290.028 9.43696C289.739 10.4024 289.065 13.9345 289.065 14.4997C289.065 15.3709 289.618 15.9125 290.654 16.0538C291.376 16.1715 293.013 15.9361 293.446 15.6771C293.542 15.6064 293.928 14.2407 294.265 12.6394C294.602 11.0382 294.915 9.6018 294.963 9.43696C295.035 9.20149 294.939 9.1544 294.457 9.1544C293.88 9.1544 293.855 9.17794 293.687 9.93146C292.555 15.1826 292.604 15.1119 292.218 15.2061C291.496 15.418 290.75 15.3003 290.413 14.9706C290.22 14.7822 290.076 14.5703 290.076 14.4997C290.076 14.4055 290.316 13.2752 290.581 12.0036C290.87 10.7085 291.087 9.53116 291.087 9.38987C291.111 9.03666 290.124 9.0602 290.028 9.43696Z" fill="#00A0C5"/>
<path d="M314.897 14.5231C313.524 14.9941 312.537 16.1479 312.537 17.2782C312.537 18.2672 313.693 19.2797 314.873 19.2797C316.125 19.2797 317.521 18.4791 318.075 17.443C318.7 16.2421 318.099 14.8057 316.823 14.476C316.028 14.2641 315.643 14.2641 314.897 14.5231Z" fill="#00A0C5"/>
<path d="M248.089 14.6409C247.415 14.8999 246.573 15.6063 246.308 16.1244C245.971 16.7601 245.995 17.9611 246.332 18.432C247.247 19.7271 249.799 19.5388 251.099 18.0788C252.519 16.4776 251.556 14.4525 249.365 14.476C248.908 14.476 248.33 14.5702 248.089 14.6409Z" fill="#00A0C5"/>
<path d="M257.551 22.1055C256.997 22.1997 256.106 22.341 255.553 22.4587L254.541 22.6706L254.277 23.5419C254.132 24.0364 253.916 24.8606 253.747 25.3786C253.603 25.8731 253.506 26.3205 253.554 26.3676C253.603 26.4147 254.253 26.2263 255.047 26.0144C256.227 25.6612 256.78 25.5905 258.153 25.6612C259.597 25.7083 259.862 25.7554 260.199 26.085C260.584 26.4618 260.681 27.1447 260.464 27.9924C260.368 28.3691 260.247 28.4633 259.79 28.4633C259.116 28.4633 256.853 28.8401 255.408 29.2168C251.604 30.1823 249.293 32.3487 248.764 35.4098C248.378 37.6468 249.341 39.2716 251.604 40.1193C252.447 40.449 253.001 40.5196 255.288 40.5903C258.225 40.6845 260.175 40.4254 262.125 39.7426L263.136 39.3894L264.388 33.9734C265.471 29.3817 265.64 28.322 265.688 26.9092C265.712 25.4728 265.664 25.1431 265.327 24.4602C264.845 23.5183 263.834 22.7413 262.655 22.3881C261.595 22.0584 258.923 21.9171 257.551 22.1055ZM259.645 31.289C259.645 31.4068 259.356 32.7725 259.019 34.3031C258.297 37.5056 258.369 37.4114 256.492 37.4114C255.312 37.4114 254.493 37.1288 254.204 36.5872C253.94 36.0456 254.012 34.7034 254.397 33.9028C255.047 32.4899 256.106 31.7364 258.008 31.3126C259.356 31.0771 259.645 31.0535 259.645 31.289Z" fill="#00A0C5"/>
<path d="M272.766 22.1291C271.273 22.341 269.516 22.7177 268.553 23.1181L267.855 23.4242L266.025 31.5481C265.014 36.0221 264.147 39.8368 264.099 40.0723L264.027 40.4255H269.612L271.249 33.1728C272.14 29.1698 272.935 25.8731 272.983 25.8025C273.055 25.7554 273.705 25.6847 274.475 25.6612C276.064 25.6141 276.835 25.9202 277.051 26.7208C277.124 27.0269 276.666 29.3581 275.703 33.6202C274.909 37.1524 274.259 40.1664 274.259 40.2606C274.259 40.4019 275.053 40.449 277.003 40.4019L279.748 40.3548L281.168 34.2089C281.939 30.8181 282.661 27.6627 282.757 27.1682C282.926 26.4147 283.022 26.2499 283.6 25.9673C284.009 25.7554 284.611 25.6376 285.141 25.6376C286.513 25.6376 287.163 26.1086 287.187 27.0976C287.187 27.4979 285.02 37.482 284.346 40.0723L284.274 40.4255H289.883L290.148 39.2952C292.122 30.7239 292.844 27.2389 292.844 26.3676C292.82 25.0489 292.411 24.0835 291.472 23.2829C290.413 22.341 289.257 22.0349 287.018 22.0584C285.02 22.082 283.576 22.3881 282.059 23.1416L281.072 23.6126L280.253 23.1181C279.82 22.8355 279.074 22.4823 278.592 22.3645C277.557 22.0349 274.427 21.9171 272.766 22.1291Z" fill="#00A0C5"/>
<path d="M301.078 22.1055C300.524 22.1997 299.657 22.341 299.104 22.4587L298.093 22.6706L297.563 24.5073C297.25 25.5199 297.033 26.3676 297.057 26.3911C297.081 26.4147 297.756 26.2734 298.55 26.0379C300.043 25.6141 302.402 25.4963 303.22 25.8024C303.943 26.0615 304.232 26.6737 304.063 27.5921L303.919 28.3691L301.872 28.6517C296.118 29.4759 293.109 31.4774 292.339 35.1037C291.809 37.5291 292.748 39.2245 295.083 40.1193C295.926 40.4254 296.455 40.4961 298.887 40.5667C301.246 40.6138 301.969 40.5667 303.437 40.2842C305.026 39.978 306.711 39.4129 306.711 39.201C306.711 39.1539 307.289 36.5637 307.987 33.4789C309.456 27.0269 309.552 25.9673 308.854 24.5073C308.348 23.4948 307.409 22.7413 306.134 22.3881C305.122 22.0584 302.45 21.9171 301.078 22.1055ZM303.172 31.7129C303.1 32.0661 302.787 33.3847 302.498 34.6799C302.209 35.975 301.896 37.0817 301.8 37.1759C301.728 37.2701 301.078 37.3643 300.38 37.3878C297.924 37.5291 297.033 36.4224 297.804 34.2325C298.357 32.7019 299.561 31.76 301.487 31.3361C303.269 30.9829 303.341 31.0064 303.172 31.7129Z" fill="#00A0C5"/>
<path d="M322.745 22.1997C320.29 22.7413 318.484 23.9893 317.666 25.7318C317.064 27.0034 317.016 28.9814 317.593 30.0175C318.123 30.9594 319.375 32.019 321.036 32.9138C322.577 33.7144 323.251 34.4208 323.251 35.1979C323.251 35.7866 322.577 36.5166 321.951 36.6814C320.892 36.9404 318.243 36.4695 316.438 35.6924C316.221 35.5982 316.053 35.9043 315.547 37.3643C315.186 38.3533 314.921 39.201 314.921 39.2481C314.921 39.4365 316.534 40.0487 317.666 40.3077C319.086 40.6374 322.192 40.6138 323.492 40.3077C326.814 39.46 328.571 37.6233 328.788 34.8447C328.86 33.8557 328.812 33.526 328.499 32.7961C327.994 31.6893 326.742 30.4884 325.008 29.5701C323.203 28.6046 322.553 28.0159 322.553 27.4037C322.553 26.6973 323.299 26.0144 324.262 25.8731C325.153 25.7318 327.055 25.9909 327.946 26.3441C328.499 26.5795 328.523 26.5795 328.692 26.1321C328.884 25.6376 329.872 22.9061 329.872 22.8355C329.872 22.8119 329.366 22.6236 328.74 22.4116C327.223 21.9878 324.286 21.8465 322.745 22.1997Z" fill="#00A0C5"/>
<path d="M227 22.5293C227 22.9532 228.806 38.5416 228.974 39.6248L229.07 40.2606H234.271L238.821 31.7364C241.324 27.0504 243.539 22.9532 243.708 22.6471L244.045 22.1055H238.965L236.293 27.7333C234.824 30.818 233.476 33.7615 233.308 34.2795L232.971 35.1743L233.043 34.256C233.067 33.7615 233.019 31.03 232.874 28.1807C232.754 25.3315 232.633 22.8354 232.633 22.5529V22.1055H227.024L227 22.5293Z" fill="#00A0C5"/>
<path d="M245.032 22.2468C245.032 22.341 242.48 34.515 241.348 39.7897L241.252 40.2606H246.645L248.499 31.4067C249.51 26.556 250.376 22.4587 250.425 22.341C250.473 22.1997 249.871 22.129 247.752 22.129C246.236 22.129 245.032 22.1761 245.032 22.2468Z" fill="#00A0C5"/>
<path d="M311.671 22.1525C311.671 22.1761 310.804 26.2498 309.745 31.1948L307.843 40.1663L310.467 40.2134C311.912 40.237 313.115 40.237 313.163 40.1899C313.236 40.1193 316.967 22.5293 316.967 22.2703C316.943 22.1525 311.719 22.0112 311.671 22.1525Z" fill="#00A0C5"/>
</svg>
