<svg width="339" height="87" viewBox="0 0 339 87" fill="none" xmlns="http://www.w3.org/2000/svg">
<g clip-path="url(#clip0_470_1415)">
<path d="M14.7089 60.9392C14.3079 60.9397 13.9108 60.8624 13.5406 60.712C13.1704 60.5616 12.8345 60.3411 12.5523 60.063C8.57282 56.1799 5.41605 51.5694 3.2623 46.4952C1.10854 41.4208 0 35.9819 0 30.4893C0 24.9967 1.10854 19.5579 3.2623 14.4835C5.41605 9.40918 8.57282 4.79877 12.5523 0.915669C12.8333 0.629837 13.1699 0.401631 13.5424 0.244425C13.9149 0.0872173 14.3158 0.00417237 14.7217 0.00015322C15.1275 -0.00386593 15.5301 0.0712224 15.9058 0.221019C16.2815 0.370815 16.6228 0.592309 16.9097 0.872515C17.1965 1.15272 17.4233 1.48601 17.5765 1.85285C17.7298 2.21967 17.8065 2.61269 17.8021 3.00884C17.7979 3.40498 17.7125 3.7963 17.5513 4.15986C17.3901 4.52342 17.1561 4.85191 16.8632 5.12608C9.97464 11.8523 6.10484 20.9739 6.10484 30.4849C6.10484 39.996 9.97464 49.1177 16.8632 55.8438C17.2899 56.2597 17.5806 56.7899 17.6986 57.3672C17.8165 57.9445 17.7564 58.5429 17.5257 59.0869C17.295 59.6308 16.9043 60.0957 16.4028 60.4226C15.9014 60.7497 15.3119 60.9241 14.7089 60.924V60.9392Z" fill="white"/>
<path d="M70.973 60.9397C70.3698 60.9399 69.7803 60.7654 69.2788 60.4385C68.7774 60.1114 68.3867 59.6465 68.156 59.1027C67.9254 58.5588 67.8652 57.9602 67.9832 57.383C68.1011 56.8057 68.3918 56.2755 68.8185 55.8596C75.7071 49.1334 79.5769 40.0118 79.5769 30.5008C79.5769 20.9897 75.7071 11.8681 68.8185 5.14189C68.2661 4.57996 67.9612 3.82907 67.9693 3.05027C67.9774 2.27147 68.2978 1.52678 68.8619 0.975909C69.4259 0.425041 70.1886 0.11187 70.9864 0.103563C71.7842 0.0952565 72.5535 0.392475 73.1295 0.931474C77.109 4.81458 80.2657 9.42498 82.4195 14.4993C84.5733 19.5736 85.6817 25.0125 85.6817 30.5052C85.6817 35.9978 84.5733 41.4367 82.4195 46.5109C80.2657 51.5853 77.109 56.1957 73.1295 60.0788C72.8459 60.354 72.5094 60.5718 72.1393 60.7195C71.7692 60.8673 71.3728 60.9421 70.973 60.9397Z" fill="white"/>
<path d="M69.3084 33.0178H46.4412C46.9184 35.2668 47.9896 37.0399 49.6547 38.3367C51.3198 39.6336 53.3485 40.2819 55.7407 40.2819C58.7806 40.2819 61.2814 39.2598 63.2427 37.2151C63.4198 37.0324 63.6618 36.9231 63.919 36.9097C64.1762 36.8963 64.429 36.9797 64.625 37.1428L68.33 40.2403C68.4326 40.3275 68.5162 40.4338 68.5761 40.5529C68.636 40.6721 68.6708 40.8017 68.6785 40.9342C68.6862 41.0667 68.6667 41.1993 68.6211 41.3243C68.5755 41.4494 68.5048 41.5642 68.413 41.6621C67.001 43.177 65.2956 44.4041 63.3953 45.2723C61.0779 46.3544 58.3962 46.8962 55.3502 46.8977C52.195 46.8977 49.3526 46.2281 46.8227 44.8889C44.3084 43.5626 42.2367 41.56 40.8534 39.1188C39.3947 36.601 38.6655 33.7173 38.6655 30.468C38.6425 28.1949 39.0526 25.9374 39.875 23.8106C40.6114 21.8765 41.7438 20.1093 43.2029 18.6165C44.6365 17.1799 46.3574 16.0464 48.2589 15.2868C50.2564 14.4839 52.3979 14.078 54.558 14.0929C58.8637 14.0929 62.4805 15.378 65.4082 17.9484C66.2534 18.6902 66.9978 19.5346 67.6231 20.4611C69.4722 23.2081 70.3968 26.4299 70.3968 30.1261C70.3968 30.8842 70.3676 31.5567 70.3138 32.1459C70.2866 32.387 70.1687 32.6097 69.9829 32.7707C69.7972 32.9318 69.5568 33.0198 69.3084 33.0178ZM49.6053 22.3911C48.104 23.5082 47.0919 25.0833 46.569 27.4295H62.8904C62.5627 25.8325 62.0578 24.711 61.3711 23.7668C60.6834 22.8178 59.764 22.0512 58.6961 21.5367C57.534 20.9813 56.2535 20.7028 54.9597 20.724C52.8861 20.7211 51.1014 21.2767 49.6053 22.3911Z" fill="white"/>
<path d="M24.1049 46.4193H18.6764C18.5442 46.4193 18.4132 46.3939 18.291 46.3444C18.1687 46.295 18.0576 46.2225 17.964 46.1312C17.8704 46.0399 17.7962 45.9315 17.7456 45.8121C17.695 45.6928 17.6689 45.5648 17.6689 45.4357V27.3739C17.6707 23.9133 19.08 20.595 21.5872 18.1484C24.0944 15.7016 27.4942 14.327 31.0392 14.3264H35.303C35.5702 14.3264 35.8265 14.4301 36.0154 14.6145C36.2044 14.799 36.3106 15.0491 36.3106 15.31V21.0385C36.3106 21.2994 36.2044 21.5496 36.0154 21.734C35.8265 21.9185 35.5702 22.0221 35.303 22.0221H30.5994C29.8786 22.0221 29.1649 22.1607 28.4991 22.43C27.8333 22.6993 27.2284 23.0941 26.7188 23.5917C26.2093 24.0893 25.8052 24.68 25.5295 25.33C25.2539 25.9801 25.1123 26.6769 25.1126 27.3805V45.4335C25.1128 45.5628 25.087 45.691 25.0365 45.8106C24.986 45.9302 24.9119 46.0389 24.8183 46.1305C24.7246 46.222 24.6134 46.2946 24.4911 46.3442C24.3687 46.3937 24.2375 46.4193 24.1049 46.4193Z" fill="white"/>
<path d="M263.246 8.41258C262.78 7.96533 262.41 7.43219 262.159 6.84417C261.907 6.25615 261.776 5.62501 261.776 4.98751C261.776 4.35 261.907 3.71886 262.159 3.13084C262.41 2.54282 262.78 2.00968 263.246 1.56244C263.715 1.10099 264.275 0.737408 264.893 0.493759C265.509 0.250111 266.17 0.131486 266.837 0.145094C267.495 0.137403 268.148 0.260432 268.756 0.506712C269.365 0.752992 269.916 1.11739 270.376 1.57778C271.164 2.31841 271.673 3.29824 271.818 4.35733C271.963 5.41642 271.736 6.49226 271.174 7.40926C270.726 8.14385 270.092 8.75287 269.332 9.1771C268.37 9.71227 267.255 9.92712 266.157 9.78918C265.06 9.65124 264.037 9.16801 263.246 8.41258ZM264.102 14.577H269.47C269.75 14.577 270.017 14.6849 270.214 14.8772C270.412 15.0694 270.523 15.3301 270.523 15.6022V45.3709C270.523 45.6433 270.413 45.9047 270.215 46.0974C270.017 46.29 269.75 46.3983 269.47 46.3983H264.102C263.822 46.3983 263.555 46.29 263.357 46.0974C263.159 45.9047 263.049 45.6433 263.049 45.3709V15.5978C263.049 15.3265 263.159 15.0664 263.356 14.8743C263.552 14.6823 263.819 14.5739 264.096 14.5726L264.102 14.577Z" fill="white"/>
<path d="M276.239 41.4905L278.811 37.7664C278.894 37.6464 279.002 37.545 279.128 37.4689C279.255 37.3928 279.396 37.3439 279.544 37.3253C279.69 37.3066 279.841 37.3187 279.983 37.3608C280.124 37.4029 280.257 37.4739 280.368 37.5694C281.366 38.4257 282.497 39.1202 283.721 39.6263C285.362 40.2595 287.116 40.5686 288.882 40.5354C290.296 40.5354 291.41 40.2484 292.226 39.6745C292.608 39.4283 292.92 39.0921 293.134 38.697C293.348 38.3019 293.456 37.8605 293.448 37.4138C293.448 36.6492 292.988 36.0161 292.061 35.5167C291.135 35.0172 289.448 34.3556 286.988 33.5254C286.009 33.2085 285.14 32.8901 284.379 32.5703C283.58 32.2346 282.8 31.8574 282.044 31.4399C281.305 31.0432 280.619 30.5559 280.005 29.9896C279.426 29.4436 278.906 28.8409 278.454 28.1911C277.975 27.4939 277.617 26.7241 277.394 25.9129C277.147 24.9982 277.026 24.0551 277.035 23.1088C277.035 20.5166 278.117 18.3662 280.282 16.6575C282.447 14.9487 285.194 14.0944 288.522 14.0944C292.385 14.0598 296.154 15.2457 299.268 17.4745C299.49 17.6277 299.643 17.8579 299.695 18.1179C299.748 18.3779 299.698 18.6479 299.553 18.8722L296.97 22.8153C296.889 22.9361 296.786 23.0391 296.662 23.1179C296.539 23.1966 296.4 23.2492 296.255 23.2724C296.11 23.2954 295.961 23.2885 295.819 23.2521C295.676 23.2156 295.542 23.1504 295.428 23.0607C294.85 22.6194 294.239 22.2238 293.597 21.8777C292.716 21.3934 291.779 21.0139 290.805 20.7473C289.934 20.5157 289.033 20.398 288.131 20.3968C287.268 20.3953 286.423 20.6389 285.7 21.0979C285.343 21.308 285.05 21.6084 284.852 21.9672C284.655 22.3262 284.56 22.7303 284.578 23.1373C284.588 23.4112 284.653 23.6804 284.772 23.929C284.89 24.1777 285.057 24.4008 285.265 24.5853C285.772 25.0793 286.355 25.4931 286.993 25.8121C287.894 26.2639 288.822 26.6683 289.768 27.0236C293.227 28.3598 295.381 29.2412 296.229 29.6676C298.384 30.7937 299.798 32.1635 300.471 33.7773C301.308 36.1339 301.249 38.7057 300.306 41.0239C299.803 42.1906 299.047 43.2368 298.09 44.0908C296.986 45.0416 295.685 45.748 294.275 46.161C292.531 46.6859 290.713 46.9389 288.888 46.9101C284.068 46.9101 279.928 45.5673 276.466 42.8817C276.254 42.7206 276.114 42.4876 276.072 42.2295C276.029 41.9716 276.09 41.7074 276.239 41.4905Z" fill="white"/>
<path d="M338.3 30.2054C338.251 27.1384 337.532 24.3827 336.126 21.9619C334.714 19.5006 332.612 17.4836 330.067 16.1481C327.583 14.8336 324.757 14.1765 321.614 14.1152C321.292 14.0977 320.968 14.0867 320.632 14.0867C318.489 14.0718 316.367 14.495 314.401 15.3288C312.516 16.1213 310.817 17.2812 309.408 18.7374C307.965 20.2608 306.845 22.0476 306.111 23.995C305.295 26.1127 304.886 28.3591 304.904 30.6216C304.892 32.4692 305.15 34.3089 305.672 36.0851C306.136 37.7014 306.875 39.2303 307.857 40.6087C308.793 41.903 309.928 43.0476 311.223 44.0021C312.54 44.9683 314.021 45.7016 315.598 46.1686C317.253 46.6618 318.973 46.9084 320.704 46.9003C325.141 46.9003 328.599 45.3077 331.081 42.1225H331.18V45.3646C331.18 45.4994 331.207 45.6328 331.26 45.7573C331.312 45.8818 331.389 45.995 331.487 46.0902C331.584 46.1855 331.7 46.2609 331.828 46.3124C331.956 46.3638 332.092 46.3902 332.23 46.3898H337.274C337.413 46.3902 337.55 46.3638 337.677 46.3125C337.805 46.261 337.921 46.1855 338.019 46.0903C338.117 45.9951 338.194 45.882 338.248 45.7575C338.3 45.6329 338.327 45.4995 338.327 45.3646V30.2164L338.3 30.2054ZM328.44 37.59C327.595 38.4594 326.574 39.1476 325.441 39.6107C324.309 40.074 323.09 40.3019 321.863 40.2801C319.101 40.2801 316.85 39.3834 315.108 37.59C313.366 35.7966 312.495 33.4869 312.495 30.6611C312.481 29.2531 312.73 27.8542 313.232 26.5339C313.646 25.3852 314.306 24.3355 315.166 23.4542C316.026 22.5727 317.069 21.8797 318.225 21.4209C319.387 20.9498 320.635 20.7114 321.893 20.7199C322.163 20.7199 322.424 20.7331 322.682 20.7528C324.794 20.9635 326.76 21.9081 328.22 23.4143C329.472 24.6571 330.365 26.2012 330.808 27.8899C330.865 28.133 330.924 28.374 330.967 28.6259C331.079 29.2973 331.132 29.9765 331.13 30.6567C331.13 33.484 330.234 35.7952 328.44 37.59Z" fill="white"/>
<path d="M254.52 21.9614C253.137 19.5069 251.062 17.4902 248.542 16.1497C245.998 14.7784 243.096 14.0935 239.837 14.0949C236.519 14.0949 233.568 14.8111 230.986 16.2439C228.473 17.6119 226.412 19.6507 225.045 22.1214C223.662 24.6041 222.971 27.4074 222.973 30.5313C222.955 32.7537 223.369 34.9592 224.193 37.0308C224.956 38.9707 226.108 40.7419 227.582 42.2402C229.096 43.7387 230.919 44.9057 232.93 45.6641C235.13 46.5066 237.475 46.9284 239.837 46.9063C243.069 46.9063 245.966 46.2213 248.527 44.8515C248.813 44.6982 249.089 44.536 249.362 44.3695V45.3465C249.383 46.406 249.166 47.4575 248.727 48.4262C248.287 49.3949 247.633 50.2573 246.814 50.9523C245.118 52.4405 242.724 53.1839 239.633 53.1824C237.748 53.2148 235.87 52.9569 234.068 52.418C232.564 51.9202 231.1 51.3155 229.687 50.6085C229.547 50.5403 229.394 50.5033 229.237 50.5004C229.081 50.4975 228.925 50.5287 228.783 50.5916C228.64 50.6545 228.514 50.7477 228.413 50.8643C228.313 50.981 228.24 51.118 228.2 51.2657L226.985 55.7039C226.923 55.9234 226.939 56.1567 227.029 56.3668C227.118 56.5768 227.278 56.7515 227.481 56.8628C229.208 57.7665 231.043 58.4588 232.943 58.9242C235.269 59.5012 237.658 59.7896 240.057 59.7828C242.208 59.8126 244.351 59.5389 246.421 58.9701C248.122 58.5101 249.721 57.7434 251.134 56.7093C252.414 55.7352 253.489 54.5287 254.3 53.1562C255.148 51.7298 255.759 50.1817 256.111 48.5689C256.495 46.7782 256.681 44.9525 256.665 43.1231V30.5379C256.668 27.3249 255.954 24.4661 254.52 21.9614ZM246.486 37.515C245.64 38.4061 244.609 39.1123 243.464 39.5872C242.318 40.0622 241.082 40.2951 239.837 40.2709C237.118 40.2709 234.873 39.3368 233.105 37.469C231.337 35.6011 230.453 33.2907 230.457 30.5379C230.457 27.7353 231.325 25.3985 233.06 23.5278C234.795 21.6569 237.055 20.7222 239.837 20.7237C242.515 20.7237 244.741 21.6372 246.517 23.4642C248.293 25.2912 249.183 27.6491 249.186 30.5379C249.186 33.3593 248.287 35.688 246.486 37.5238V37.515Z" fill="white"/>
<path d="M158.564 46.4276H153.14C152.86 46.4276 152.592 46.3193 152.395 46.1266C152.197 45.9339 152.087 45.6726 152.087 45.4001V29.2223C152.087 25.0862 148.838 21.5221 144.607 21.3162C143.54 21.2643 142.473 21.4245 141.471 21.7874C140.469 22.1503 139.554 22.7081 138.78 23.4269C138.005 24.1459 137.389 25.0108 136.968 25.9693C136.546 26.928 136.329 27.9601 136.328 29.0031V45.4089C136.328 45.6814 136.218 45.9426 136.02 46.1353C135.824 46.3281 135.555 46.4363 135.277 46.4363H129.853C129.714 46.4363 129.578 46.4097 129.449 46.3581C129.322 46.3064 129.205 46.2308 129.108 46.1353C129.01 46.04 128.933 45.9266 128.88 45.8021C128.827 45.6774 128.8 45.5438 128.8 45.4089V29.3361C128.8 20.9218 135.853 13.8154 144.472 13.9578C148.512 14.0302 152.361 15.6467 155.193 18.4602C158.024 21.2736 159.611 25.0592 159.614 29.0031V45.4089C159.611 45.6795 159.5 45.9382 159.303 46.1289C159.107 46.3196 158.841 46.4269 158.564 46.4276Z" fill="white"/>
<path d="M122.493 33.0177H99.6232C100.103 35.2669 101.175 37.0398 102.839 38.3366C104.503 39.6335 106.531 40.282 108.925 40.282C111.965 40.282 114.466 39.2596 116.427 37.215C116.604 37.0323 116.846 36.923 117.103 36.9096C117.361 36.8961 117.613 36.9796 117.809 37.1428L121.514 40.2402C121.617 40.3274 121.701 40.4336 121.76 40.5528C121.82 40.6719 121.855 40.8016 121.863 40.9341C121.871 41.0666 121.851 41.1992 121.806 41.3242C121.76 41.4493 121.689 41.5641 121.597 41.662C120.185 43.1765 118.48 44.4035 116.58 45.2722C114.261 46.3543 111.579 46.8962 108.535 46.8976C105.379 46.8976 102.537 46.2281 100.007 44.8888C97.4933 43.5617 95.4218 41.5593 94.0378 39.1187C92.5806 36.6009 91.852 33.7172 91.852 30.4679C91.8284 28.1949 92.2378 25.9374 93.0593 23.8105C93.7976 21.8773 94.9296 20.1103 96.3873 18.6164C97.8214 17.1804 99.5422 16.0472 101.443 15.2867C103.441 14.4836 105.582 14.0777 107.742 14.0928C112.047 14.0928 115.663 15.378 118.593 17.9483C119.438 18.6896 120.181 19.5341 120.805 20.461C122.654 23.208 123.579 26.4298 123.579 30.126C123.579 30.8841 123.552 31.5574 123.498 32.1458C123.471 32.3869 123.353 32.6096 123.167 32.7706C122.982 32.9317 122.741 33.0197 122.493 33.0177ZM102.79 22.391C101.288 23.5081 100.276 25.0832 99.7534 27.4294H116.072C115.747 25.8324 115.242 24.7109 114.555 23.7667C113.867 22.8183 112.948 22.0519 111.881 21.5366C110.718 20.9809 109.436 20.7024 108.142 20.7239C106.07 20.721 104.286 21.2766 102.79 22.391Z" fill="white"/>
<path d="M195.595 33.0177H172.726C173.206 35.2669 174.277 37.0398 175.941 38.3366C177.605 39.6335 179.633 40.282 182.028 40.282C185.067 40.282 187.567 39.2596 189.529 37.215C189.707 37.0323 189.948 36.923 190.206 36.9096C190.463 36.8961 190.716 36.9796 190.911 37.1428L194.617 40.2402C194.72 40.3274 194.803 40.4336 194.862 40.5528C194.923 40.6719 194.957 40.8016 194.965 40.9341C194.973 41.0666 194.953 41.1992 194.907 41.3242C194.862 41.4493 194.792 41.5641 194.699 41.662C193.287 43.177 191.58 44.404 189.68 45.2722C187.363 46.3543 184.683 46.8962 181.636 46.8976C178.481 46.8976 175.639 46.2281 173.11 44.8888C170.593 43.5595 168.519 41.553 167.135 39.1077C165.681 36.5987 164.954 33.7188 164.954 30.4679C164.93 28.1949 165.34 25.9374 166.161 23.8105C166.9 21.8773 168.032 20.1103 169.49 18.6164C170.924 17.1799 172.647 16.0467 174.55 15.2867C176.547 14.4836 178.689 14.0777 180.849 14.0928C185.153 14.0928 188.769 15.378 191.697 17.9483C192.541 18.6894 193.281 19.534 193.903 20.461C195.752 23.208 196.677 26.4298 196.677 30.126C196.677 30.8841 196.65 31.5574 196.596 32.1458C196.569 32.3861 196.452 32.6082 196.267 32.7692C196.082 32.9301 195.842 33.0187 195.595 33.0177ZM175.892 22.391C174.39 23.5081 173.378 25.0832 172.855 27.4294H189.175C188.849 25.8324 188.342 24.7109 187.657 23.7667C186.969 22.8183 186.049 22.0519 184.982 21.5366C183.82 20.9809 182.539 20.7024 181.244 20.7239C179.178 20.721 177.393 21.2766 175.892 22.391Z" fill="white"/>
<path d="M208.767 46.428H203.34C203.072 46.428 202.816 46.3244 202.627 46.14C202.438 45.9556 202.332 45.7053 202.332 45.4444V27.3849C202.332 25.6703 202.677 23.9726 203.349 22.3884C204.02 20.8043 205.005 19.3649 206.245 18.1521C207.487 16.9396 208.961 15.9775 210.584 15.3211C212.206 14.6647 213.946 14.3267 215.701 14.3264H219.966C220.233 14.3264 220.49 14.4301 220.679 14.6145C220.867 14.799 220.974 15.0491 220.974 15.31V21.0407C220.974 21.3015 220.867 21.5518 220.679 21.7363C220.49 21.9208 220.233 22.0243 219.966 22.0243H215.266C214.546 22.0243 213.833 22.1628 213.167 22.432C212.502 22.7012 211.897 23.0958 211.387 23.5931C210.877 24.0905 210.473 24.6809 210.198 25.3308C209.922 25.9806 209.779 26.6771 209.779 27.3805V45.4401C209.781 45.57 209.755 45.6987 209.704 45.8189C209.653 45.9389 209.579 46.0481 209.485 46.14C209.39 46.2318 209.278 46.3046 209.155 46.354C209.033 46.4034 208.901 46.4287 208.767 46.428Z" fill="white"/>
<path d="M228.952 74.8706V76.0553H228.917C228.165 75.2139 227.071 74.7676 225.906 74.7676C223.533 74.7676 221.756 76.6047 221.756 79.0255C221.756 81.5751 223.657 83.2662 225.976 83.2662C227.237 83.2662 228.243 82.777 228.944 81.9615H228.988V83.1546C228.988 84.5368 228.016 85.6614 226.046 85.6614C224.803 85.6614 223.927 85.3266 222.912 84.76L222.563 86.0734C223.604 86.6915 224.812 87.0005 226.116 87.0005C229.154 87.0005 230.406 85.2407 230.406 82.777V74.862L228.952 74.8706ZM226.099 81.9271C224.531 81.9271 223.244 80.7939 223.244 78.974C223.244 77.3258 224.427 76.081 226.099 76.081C227.745 76.081 229.014 77.2313 229.014 78.9568C229.014 80.6652 227.858 81.9271 226.099 81.9271Z" fill="white"/>
<path d="M237.042 74.7676C235.86 74.7676 234.854 75.3514 234.205 76.3643H234.171V74.8706H232.717V83.4208H234.171V79.3002C234.171 77.5834 235.168 76.3299 236.824 76.3299C236.973 76.3299 237.191 76.3385 237.401 76.3558V74.7847C237.296 74.7676 237.173 74.7676 237.042 74.7676Z" fill="white"/>
<path d="M244.755 74.8706V79.017C244.755 81.0515 243.556 82.2275 242.172 82.2275C240.78 82.2275 240.036 81.5064 240.036 79.5578V74.8706H238.592V79.9698C238.592 82.4078 239.862 83.5324 241.866 83.5324C242.995 83.5324 244.038 83.0002 244.728 82.0129H244.755V83.4208H246.208V74.8706H244.755Z" fill="white"/>
<path d="M253.002 74.7676C251.821 74.7676 250.761 75.2398 250.034 76.1325H250V74.8706H248.546V86.8975H249.991V82.1589H250.025C250.727 83.0259 251.759 83.541 252.993 83.541C255.401 83.541 257.274 81.824 257.274 79.2058C257.274 76.6734 255.471 74.7676 253.002 74.7676ZM252.853 82.2361C251.312 82.2361 249.947 81.0257 249.947 79.2144C249.947 77.4545 251.19 76.0725 252.836 76.0725C254.49 76.0725 255.786 77.3086 255.786 79.2144C255.786 80.9399 254.621 82.2361 252.844 82.2361H252.853Z" fill="white"/>
<path d="M263.105 83.5324C265.678 83.5324 267.596 81.7554 267.596 79.1628C267.596 76.5532 265.678 74.7676 263.105 74.7676C260.4 74.7676 258.597 76.682 258.597 79.1628C258.597 81.618 260.4 83.5324 263.105 83.5324ZM263.105 82.2275C261.301 82.2275 260.058 80.854 260.058 79.1628C260.058 77.4545 261.284 76.081 263.105 76.081C264.795 76.081 266.125 77.3343 266.125 79.1628C266.125 80.9656 264.786 82.2275 263.105 82.2275Z" fill="white"/>
<path d="M281.744 79.017C281.744 76.5618 280.116 74.7676 277.682 74.7676C275.327 74.7676 273.506 76.5704 273.506 79.1543C273.506 81.764 275.371 83.5324 277.848 83.5324C279.441 83.5324 280.632 82.8714 281.377 81.927L280.361 81.0772C279.818 81.7382 278.987 82.2275 277.9 82.2275C276.334 82.2275 275.178 81.1888 274.995 79.6006H281.7C281.709 79.5492 281.744 79.2401 281.744 79.017ZM277.761 76.081C279.144 76.081 280.072 77.0167 280.299 78.416H275.029C275.3 76.9653 276.396 76.081 277.761 76.081Z" fill="white"/>
<path d="M288.231 74.7676C286.944 74.7676 285.798 75.3255 285.071 76.3385H285.045V74.8706H283.592V83.4208H285.045V79.1543C285.045 77.2313 286.139 76.0725 287.784 76.0725C289.063 76.0725 289.921 76.742 289.921 78.7508V83.4294H291.374V78.3559C291.374 75.9007 290.122 74.7676 288.24 74.7676H288.231Z" fill="white"/>
<path d="M301.32 79.017C301.32 76.5618 299.691 74.7676 297.257 74.7676C294.902 74.7676 293.081 76.5704 293.081 79.1543C293.081 81.764 294.947 83.5324 297.424 83.5324C299.017 83.5324 300.208 82.8714 300.951 81.927L299.937 81.0772C299.393 81.7382 298.561 82.2275 297.476 82.2275C295.908 82.2275 294.754 81.1888 294.569 79.6006H301.276C301.284 79.5492 301.32 79.2401 301.32 79.017ZM297.336 76.081C298.719 76.081 299.648 77.0167 299.875 78.416H294.605C294.876 76.9653 295.97 76.081 297.336 76.081Z" fill="white"/>
<path d="M307.483 74.7676C306.301 74.7676 305.294 75.3514 304.647 76.3643H304.611V74.8706H303.158V83.4208H304.611V79.3002C304.611 77.5834 305.61 76.3299 307.264 76.3299C307.413 76.3299 307.631 76.3385 307.842 76.3558V74.7847C307.736 74.7676 307.614 74.7676 307.483 74.7676Z" fill="white"/>
<path d="M315.555 74.8706V76.0553H315.519C314.767 75.2139 313.672 74.7676 312.508 74.7676C310.136 74.7676 308.359 76.6047 308.359 79.0255C308.359 81.5751 310.258 83.2662 312.578 83.2662C313.838 83.2662 314.845 82.777 315.546 81.9615H315.59V83.1546C315.59 84.5368 314.618 85.6614 312.648 85.6614C311.405 85.6614 310.529 85.3266 309.515 84.76L309.164 86.0734C310.205 86.6915 311.414 87.0005 312.718 87.0005C315.755 87.0005 317.007 85.2407 317.007 82.777V74.862L315.555 74.8706ZM312.7 81.9271C311.134 81.9271 309.847 80.7939 309.847 78.974C309.847 77.3258 311.029 76.081 312.7 76.081C314.347 76.081 315.615 77.2313 315.615 78.9568C315.615 80.6652 314.46 81.9271 312.7 81.9271Z" fill="white"/>
<path d="M320.185 73.2823C320.756 73.2823 321.219 72.836 321.219 72.2866C321.219 71.7286 320.756 71.2822 320.185 71.2822C319.6 71.2822 319.153 71.7286 319.153 72.2866C319.153 72.836 319.6 73.2823 320.185 73.2823ZM319.451 83.4207H320.896V74.8705H319.451V83.4207Z" fill="white"/>
<path d="M326.104 83.5324C328.206 83.5324 329.238 82.425 329.238 81.0772C329.247 79.4119 328.03 79.1028 326.193 78.4075C325.255 78.0554 324.537 77.7292 324.537 77.0597C324.537 76.4415 325.212 76.0553 325.877 76.0553C326.621 76.0553 327.427 76.2956 328.197 76.948L328.95 75.8234C327.977 75.0423 326.998 74.7676 325.947 74.7676C324.283 74.7676 323.058 75.7548 323.058 77.0597C323.058 78.6306 324.257 79.2058 325.684 79.6951C326.954 80.133 327.768 80.3647 327.768 81.1029C327.768 81.7296 327.156 82.2447 326.104 82.2447C324.879 82.2447 324.117 81.8499 323.443 81.2231L322.682 82.3048C323.54 83.0516 324.668 83.541 326.104 83.541V83.5324Z" fill="white"/>
<path d="M337.546 74.8706V76.1325H337.512C336.785 75.2398 335.709 74.7676 334.517 74.7676C332.049 74.7676 330.245 76.6734 330.245 79.1971C330.245 81.824 332.119 83.5324 334.526 83.5324C335.813 83.5324 336.881 82.983 337.59 82.0645H337.608V83.4208H339V74.862L337.546 74.8706ZM334.666 82.2275C332.889 82.2275 331.726 80.9313 331.726 79.2058C331.726 77.3 333.021 76.0639 334.684 76.0639C336.356 76.0639 337.599 77.4459 337.599 79.2058C337.599 81.0171 336.234 82.2275 334.666 82.2275Z" fill="white"/>
</g>
<defs>
<clipPath id="clip0_470_1415">
<rect width="339" height="87" fill="white"/>
</clipPath>
</defs>
</svg>
