<svg width="226" height="70" viewBox="0 0 226 70" fill="none" xmlns="http://www.w3.org/2000/svg">
<path d="M13.5795 40.6683C13.0703 40.6683 12.5781 40.4816 12.2047 40.0913C7.01091 34.9156 4.15942 28.009 4.15942 20.6782C4.15942 13.3474 7.01091 6.45777 12.2047 1.2651C12.9685 0.501476 14.2075 0.501476 14.9713 1.2651C15.7351 2.02873 15.7351 3.26751 14.9713 4.03113C10.5243 8.47714 8.06324 14.3995 8.06324 20.6782C8.06324 26.9569 10.5074 32.8793 14.9713 37.3253C15.7351 38.0889 15.7351 39.3277 14.9713 40.0913C14.5809 40.4816 14.0887 40.6683 13.5795 40.6683Z" fill="url(#paint0_linear_325_1026)"/>
<path d="M49.6814 40.6683C49.1722 40.6683 48.68 40.4816 48.3066 40.0913C47.5428 39.3277 47.5428 38.0889 48.3066 37.3253C52.7536 32.8793 55.2147 26.9569 55.2147 20.6612C55.2147 14.3656 52.7366 8.47714 48.2896 4.03113C47.5258 3.26751 47.5258 2.02873 48.2896 1.2651C49.0534 0.501476 50.2925 0.501476 51.0563 1.2651C56.25 6.45777 59.1015 13.3474 59.1015 20.6782C59.1015 28.009 56.25 34.9156 51.0563 40.0913C50.6828 40.4816 50.1737 40.6683 49.6814 40.6683Z" fill="url(#paint1_linear_325_1026)"/>
<path d="M48.6119 22.341H33.9471C34.2527 23.8173 34.9486 24.9882 36.0009 25.8367C37.0702 26.6852 38.3602 27.1094 39.9047 27.1094C41.8566 27.1094 43.4521 26.4476 44.7081 25.107C44.9457 24.8525 45.3361 24.8355 45.5907 25.0561L47.9669 27.0924C48.2385 27.33 48.2725 27.7543 48.0179 28.0258C47.1353 28.993 46.0659 29.7906 44.793 30.4015C43.2993 31.1142 41.585 31.4706 39.6331 31.4706C37.6812 31.4706 35.7972 31.0294 34.1678 30.147C32.5553 29.2645 31.2654 28.0088 30.3319 26.3458C29.3983 24.6997 28.9231 22.7992 28.9231 20.661C28.9231 19.0828 29.1777 17.6235 29.7039 16.2829C30.2131 14.9423 30.9259 13.8053 31.8425 12.872C32.759 11.9387 33.8623 11.209 35.1183 10.6829C36.3743 10.1569 37.7152 9.90234 39.1579 9.90234C41.9245 9.90234 44.2329 10.7508 46.1169 12.4308C46.66 12.9229 47.1353 13.4659 47.5256 14.0768C48.7138 15.8756 49.3078 17.9968 49.3078 20.4234C49.3078 20.9156 49.2908 21.3568 49.2569 21.7471C49.2229 22.0864 48.9344 22.341 48.6119 22.341ZM35.9669 15.3496C34.9995 16.0792 34.3545 17.1144 34.015 18.6586H44.4874C44.2838 17.6065 43.9613 16.8768 43.52 16.2489C43.0787 15.6211 42.5016 15.1459 41.8057 14.7896C41.1098 14.4332 40.2951 14.2465 39.4125 14.2465C38.0716 14.2635 36.9344 14.6199 35.9669 15.3496Z" fill="#009BBE"/>
<path d="M19.622 31.1318H16.1425C15.7861 31.1318 15.4976 30.8433 15.4976 30.4869V18.6253C15.4976 13.8908 19.3335 10.0557 24.069 10.0557H26.8017C27.1581 10.0557 27.4466 10.3441 27.4466 10.7005V14.4677C27.4466 14.8241 27.1581 15.1126 26.8017 15.1126H23.7804C21.8455 15.1126 20.267 16.6907 20.267 18.6253V30.4869C20.267 30.8433 19.9785 31.1318 19.622 31.1318Z" fill="#009BBE"/>
<path d="M172.974 6.1695C172.346 5.5586 172.041 4.79497 172.041 3.92952C172.041 3.06408 172.346 2.30045 172.974 1.67258C173.602 1.04471 174.366 0.739258 175.282 0.739258C176.199 0.739258 176.912 1.04471 177.557 1.68955C178.202 2.33439 178.507 3.06408 178.507 3.92952C178.507 4.50649 178.355 5.03254 178.066 5.52466C177.777 6.01677 177.387 6.40707 176.878 6.67858C176.386 6.96707 175.843 7.10282 175.282 7.10282C174.366 7.10282 173.602 6.79737 172.974 6.1695ZM173.517 10.2252H176.963C177.336 10.2252 177.642 10.5307 177.642 10.904V30.4529C177.642 30.8262 177.336 31.1316 176.963 31.1316H173.517C173.144 31.1316 172.838 30.8262 172.838 30.4529V10.887C172.855 10.5137 173.144 10.2252 173.517 10.2252Z" fill="#009BBE"/>
<path d="M181.308 27.89L182.954 25.4464C183.175 25.107 183.65 25.0561 183.956 25.3107C184.635 25.9046 185.347 26.3458 186.111 26.6682C187.062 27.0585 188.182 27.2621 189.438 27.2621C190.338 27.2621 191.067 27.0755 191.577 26.7022C192.103 26.3288 192.357 25.8367 192.357 25.2088C192.357 24.6997 192.052 24.2925 191.475 23.9701C190.881 23.6476 189.794 23.2064 188.216 22.6634C187.588 22.4598 187.028 22.2392 186.536 22.0355C186.043 21.8319 185.551 21.5774 185.042 21.2889C184.533 21.0004 184.091 20.678 183.735 20.3386C183.379 19.9822 183.039 19.5919 182.734 19.1507C182.428 18.7095 182.207 18.2174 182.055 17.6574C181.902 17.0974 181.817 16.4865 181.817 15.8247C181.817 14.1277 182.513 12.7193 183.905 11.5823C185.297 10.4454 187.062 9.90234 189.183 9.90234C191.729 9.90234 194.021 10.649 196.074 12.1253C196.363 12.329 196.448 12.7363 196.261 13.0417L194.598 15.638C194.377 15.9774 193.919 16.0453 193.613 15.7908C193.24 15.5023 192.85 15.2477 192.442 15.0102C191.814 14.6708 191.22 14.4162 190.643 14.2635C190.066 14.1108 189.506 14.0259 188.929 14.0259C188.352 14.0259 187.859 14.1787 187.367 14.4841C186.892 14.7896 186.654 15.2308 186.654 15.8247C186.654 16.1641 186.807 16.4695 187.096 16.775C187.384 17.0804 187.758 17.335 188.199 17.5895C188.64 17.8271 189.234 18.0986 189.981 18.3871C192.205 19.2695 193.579 19.8465 194.123 20.118C195.497 20.8646 196.414 21.764 196.838 22.8161C197.093 23.4779 197.212 24.2246 197.212 25.09C197.212 25.9555 197.059 26.804 196.736 27.5676C196.414 28.3312 195.939 28.993 195.311 29.57C194.683 30.147 193.868 30.6051 192.867 30.9276C191.865 31.25 190.711 31.4197 189.421 31.4197C186.332 31.4197 183.684 30.5373 181.461 28.7724C181.172 28.5858 181.104 28.1955 181.308 27.89Z" fill="#009BBE"/>
<path d="M221.11 20.4913C221.076 18.4719 220.618 16.6732 219.718 15.078C218.784 13.432 217.478 12.1593 215.831 11.2599C214.236 10.3945 212.42 9.95325 210.417 9.91931C210.213 9.90234 210.009 9.90234 209.789 9.90234C208.363 9.90234 207.039 10.1739 205.783 10.7169C204.544 11.2599 203.475 12.0066 202.575 12.9569C201.676 13.9071 200.98 15.0611 200.47 16.4017C199.961 17.7592 199.69 19.2016 199.69 20.7459C199.69 22.0186 199.859 23.2064 200.182 24.3264C200.504 25.4464 200.98 26.4306 201.591 27.2961C202.202 28.1615 202.915 28.8912 203.746 29.5191C204.578 30.147 205.511 30.6221 206.547 30.9445C207.582 31.2669 208.685 31.4197 209.823 31.4197C212.674 31.4197 214.881 30.3676 216.476 28.2803H216.544V30.4185C216.544 30.7918 216.85 31.0973 217.223 31.0973H220.465C220.838 31.0973 221.144 30.7918 221.144 30.4185L221.11 20.4913ZM214.779 25.3446C213.625 26.5155 212.216 27.1094 210.569 27.1094C208.804 27.1094 207.362 26.5155 206.241 25.3446C205.121 24.1737 204.561 22.6464 204.561 20.7968C204.561 19.8125 204.714 18.9131 205.036 18.0816C205.342 17.2501 205.783 16.5544 206.326 16.0114C206.869 15.4683 207.514 15.0271 208.244 14.7217C208.974 14.4162 209.755 14.2635 210.603 14.2635C210.773 14.2635 210.943 14.2805 211.113 14.2805C212.504 14.4332 213.693 15.0102 214.66 16.0283C215.458 16.8429 216.035 17.8271 216.323 18.9641C216.357 19.1168 216.391 19.2865 216.425 19.4392C216.493 19.8634 216.527 20.3047 216.527 20.7798C216.51 22.6464 215.933 24.1567 214.779 25.3446Z" fill="#009BBE"/>
<path d="M167.373 15.078C166.456 13.432 165.166 12.1593 163.537 11.2599C161.908 10.3605 160.041 9.90234 157.953 9.90234C155.865 9.90234 153.93 10.3775 152.267 11.3108C150.604 12.2441 149.347 13.5338 148.448 15.1799C147.565 16.8089 147.124 18.6586 147.124 20.7119C147.124 22.2392 147.379 23.6476 147.905 24.9713C148.431 26.2949 149.144 27.4318 150.077 28.3991C151.011 29.3494 152.148 30.113 153.506 30.656C154.864 31.1991 156.34 31.4706 157.936 31.4706C160.007 31.4706 161.874 31.0294 163.503 30.13C163.69 30.0282 163.86 29.9264 164.046 29.8076V30.4524C164.046 31.9288 163.503 33.1506 162.417 34.1348C161.331 35.119 159.786 35.5942 157.817 35.5942C156.459 35.5942 155.271 35.4245 154.253 35.0851C153.421 34.8136 152.488 34.4233 151.452 33.8972C151.079 33.7106 150.604 33.9142 150.502 34.3215L149.721 37.2402C149.636 37.5457 149.772 37.8511 150.043 38.0038C151.096 38.5808 152.267 39.022 153.54 39.3614C155 39.7347 156.527 39.9214 158.106 39.9214C159.684 39.9214 160.991 39.7347 162.179 39.3953C163.384 39.039 164.386 38.5469 165.2 37.902C166.015 37.2572 166.694 36.4936 167.237 35.5602C167.78 34.6439 168.171 33.6427 168.391 32.5397C168.629 31.4536 168.748 30.2657 168.748 28.9591V20.7119C168.765 18.5907 168.306 16.7241 167.373 15.078ZM162.23 25.2937C161.076 26.4985 159.65 27.1094 157.97 27.1094C156.29 27.1094 154.779 26.4985 153.659 25.2597C152.521 24.0379 151.961 22.5107 151.961 20.6949C151.961 18.8792 152.521 17.318 153.625 16.0962C154.745 14.8744 156.188 14.2635 157.97 14.2635C159.752 14.2635 161.11 14.8574 162.247 16.0623C163.384 17.2671 163.961 18.8113 163.961 20.7119C163.961 22.6125 163.384 24.0888 162.23 25.2937Z" fill="#009BBE"/>
<path d="M105.845 31.1487H102.366C101.992 31.1487 101.687 30.8433 101.687 30.4699V19.847C101.687 17.1319 99.5993 14.7901 96.8836 14.6544C93.9812 14.5186 91.571 16.8264 91.571 19.6943V30.4699C91.571 30.8433 91.2655 31.1487 90.8921 31.1487H87.4126C87.0392 31.1487 86.7336 30.8433 86.7336 30.4699V19.9149C86.7336 14.3828 91.2655 9.71622 96.7817 9.81804C102.179 9.90289 106.507 14.298 106.507 19.6943V30.4699C106.507 30.8433 106.219 31.1487 105.845 31.1487Z" fill="#009BBE"/>
<path d="M82.711 22.341H68.0463C68.3518 23.8173 69.0477 24.9882 70.1 25.8367C71.1693 26.6852 72.4762 27.1094 74.0038 27.1094C75.9557 27.1094 77.5512 26.4476 78.8072 25.107C79.0448 24.8525 79.4352 24.8355 79.6898 25.0561L82.0661 27.0924C82.3376 27.33 82.3716 27.7543 82.117 28.0258C81.2344 28.993 80.1651 29.7906 78.8921 30.4015C77.3985 31.1142 75.6842 31.4706 73.7323 31.4706C71.7803 31.4706 69.8963 31.0294 68.2669 30.147C66.6545 29.2645 65.3645 28.0088 64.431 26.3458C63.4975 24.6828 63.0222 22.7992 63.0222 20.661C63.0222 19.0828 63.2768 17.6235 63.803 16.2829C64.3122 14.9423 65.025 13.8053 65.9416 12.872C66.8581 11.9387 67.9275 11.209 69.1835 10.6829C70.4395 10.1569 71.7803 9.90234 73.2231 9.90234C75.9897 9.90234 78.298 10.7508 80.182 12.4308C80.7252 12.9229 81.2004 13.4659 81.5908 14.0768C82.7789 15.8756 83.373 17.9968 83.373 20.4234C83.373 20.9156 83.356 21.3568 83.3221 21.7471C83.3221 22.0864 83.0505 22.341 82.711 22.341ZM70.083 15.3496C69.1156 16.0792 68.4706 17.1144 68.1311 18.6586H78.6035C78.3999 17.6065 78.0774 16.8768 77.6361 16.2489C77.1948 15.6211 76.6177 15.1459 75.9218 14.7896C75.2259 14.4332 74.4112 14.2465 73.5286 14.2465C72.1877 14.2635 71.0505 14.6199 70.083 15.3496Z" fill="#009BBE"/>
<path d="M129.591 22.341H114.926C115.232 23.8173 115.927 24.9882 116.997 25.8367C118.066 26.6852 119.373 27.1094 120.901 27.1094C122.852 27.1094 124.448 26.4476 125.704 25.107C125.942 24.8525 126.332 24.8355 126.587 25.0561L128.963 27.0924C129.251 27.33 129.268 27.7543 129.014 28.0258C128.131 28.993 127.062 29.7906 125.789 30.4015C124.295 31.1142 122.581 31.4706 120.629 31.4706C118.677 31.4706 116.776 31.0294 115.164 30.147C113.551 29.2645 112.278 28.0088 111.328 26.3458C110.377 24.6828 109.919 22.7992 109.919 20.661C109.919 19.0828 110.174 17.6235 110.7 16.2829C111.209 14.9423 111.922 13.8053 112.838 12.872C113.755 11.9387 114.824 11.209 116.08 10.6829C117.336 10.1569 118.677 9.90234 120.12 9.90234C122.886 9.90234 125.195 10.7508 127.079 12.4308C127.622 12.9229 128.097 13.4659 128.488 14.0768C129.676 15.8756 130.27 17.9968 130.27 20.4234C130.27 20.9156 130.253 21.3568 130.219 21.7471C130.202 22.0864 129.93 22.341 129.591 22.341ZM116.963 15.3496C115.995 16.0792 115.35 17.1144 115.011 18.6586H125.483C125.28 17.6065 124.94 16.8768 124.516 16.2489C124.075 15.6211 123.497 15.1459 122.802 14.7896C122.106 14.4332 121.274 14.2635 120.391 14.2635C119.067 14.2635 117.913 14.6199 116.963 15.3496Z" fill="#009BBE"/>
<path d="M138.043 31.1484H134.564C134.207 31.1484 133.919 30.8599 133.919 30.5035V18.6419C133.919 13.9074 137.755 10.0723 142.49 10.0723H145.223C145.579 10.0723 145.868 10.3607 145.868 10.7171V14.4843C145.868 14.8407 145.579 15.1292 145.223 15.1292H142.202C140.25 15.1292 138.688 16.7073 138.688 18.6419V30.5035C138.688 30.8599 138.4 31.1484 138.043 31.1484Z" fill="#009BBE"/>
<path d="M187.181 45.3353C186.196 45.6408 185.653 46.2177 185.263 47.3038C184.838 48.4747 185.008 49.6456 185.67 50.0698C185.908 50.2225 186.179 50.2565 186.756 50.2225C187.622 50.1716 187.639 50.1886 187.231 50.9861C186.926 51.5801 185.891 51.8686 185.11 51.5801C184.889 51.4952 184.804 51.5122 184.686 51.7158C184.516 51.9874 184.499 51.9704 185.025 52.157C186.179 52.5473 187.503 52.1061 187.995 51.1558C188.216 50.7486 189.268 45.8274 189.183 45.6068C189.065 45.3014 187.843 45.1486 187.181 45.3353ZM188.25 45.8105C188.386 45.8953 188.352 46.2177 188.029 47.745C187.826 48.7462 187.588 49.6286 187.503 49.6795C187.435 49.7304 187.113 49.7813 186.807 49.7813C185.925 49.7813 185.653 49.2722 185.874 48.0335C186.026 47.202 186.315 46.5911 186.79 46.1668C187.282 45.7086 187.876 45.5729 188.25 45.8105Z" fill="black"/>
<path d="M191.033 45.3524C190.728 45.4203 190.439 45.5051 190.389 45.573C190.321 45.6409 189.336 49.9511 189.336 50.2227C189.336 50.2396 189.523 50.2566 189.727 50.2566H190.134L190.524 48.3051C191.05 45.7088 191 45.8276 191.645 45.8276C192.069 45.8276 192.222 45.7597 192.323 45.607C192.374 45.4712 192.442 45.3524 192.442 45.3015C192.459 45.1997 191.661 45.2336 191.033 45.3524Z" fill="black"/>
<path d="M198.162 45.3528C197.891 45.4207 197.653 45.5055 197.602 45.5564C197.517 45.6413 196.193 51.7842 196.193 52.0727C196.193 52.1406 196.363 52.1745 196.584 52.1406C196.957 52.1067 196.974 52.0727 197.161 51.2073L197.348 50.3079L198.077 50.2909C198.468 50.274 198.96 50.1891 199.164 50.0873C200.012 49.6461 200.691 48.577 200.844 47.3891C201.031 45.7601 199.961 44.9455 198.162 45.3528ZM199.826 46.0825C200.012 46.3031 200.046 46.5067 199.995 47.2195C199.893 48.7806 199.113 49.7649 198.026 49.7649C197.636 49.7649 197.5 49.714 197.5 49.5782C197.5 49.4764 197.67 48.6449 197.857 47.7116C198.06 46.7952 198.213 45.9976 198.213 45.9637C198.213 45.9467 198.332 45.8619 198.485 45.794C198.892 45.6413 199.571 45.777 199.826 46.0825Z" fill="black"/>
<path d="M203.169 45.3528C202.185 45.6583 201.438 47.0159 201.404 48.5431C201.387 49.5782 201.625 49.9855 202.372 50.2401C203.746 50.7322 205.087 49.4086 205.342 47.3552C205.495 46.1334 205.019 45.3528 204.052 45.268C203.78 45.251 203.373 45.285 203.169 45.3528ZM204.154 45.845C204.544 46.0147 204.629 46.354 204.544 47.2874C204.425 48.6958 203.746 49.7649 202.932 49.7649C202.389 49.7649 202.168 49.4595 202.168 48.6789C202.168 47.3213 202.813 45.9468 203.543 45.7601C203.679 45.7262 203.797 45.6922 203.814 45.6922C203.831 45.7262 203.984 45.7601 204.154 45.845Z" fill="black"/>
<path d="M193.019 45.5565C192.816 46.2522 192.34 48.7977 192.34 49.2049C192.34 49.8328 192.731 50.2231 193.461 50.3249C193.97 50.4098 195.124 50.2401 195.429 50.0534C195.497 50.0025 195.769 49.0183 196.007 47.8644C196.244 46.7104 196.465 45.6753 196.499 45.5565C196.55 45.3868 196.482 45.3529 196.142 45.3529C195.735 45.3529 195.718 45.3698 195.599 45.9129C194.801 49.6971 194.835 49.6461 194.564 49.714C194.055 49.8668 193.528 49.7819 193.291 49.5443C193.155 49.4086 193.053 49.2558 193.053 49.2049C193.053 49.1371 193.223 48.3225 193.41 47.4062C193.613 46.4728 193.766 45.6244 193.766 45.5226C193.783 45.268 193.087 45.285 193.019 45.5565Z" fill="black"/>
<path d="M210.553 49.2217C209.585 49.5611 208.889 50.3926 208.889 51.2071C208.889 51.9199 209.704 52.6495 210.536 52.6495C211.418 52.6495 212.403 52.0726 212.793 51.3259C213.234 50.4605 212.81 49.4253 211.91 49.1878C211.35 49.035 211.079 49.035 210.553 49.2217Z" fill="black"/>
<path d="M163.452 49.3064C162.977 49.4931 162.383 50.0022 162.196 50.3755C161.958 50.8337 161.975 51.6991 162.213 52.0385C162.858 52.9718 164.657 52.8361 165.574 51.784C166.575 50.6301 165.896 49.1707 164.352 49.1876C164.029 49.1876 163.622 49.2555 163.452 49.3064Z" fill="black"/>
<path d="M170.123 54.6858C169.732 54.7537 169.104 54.8555 168.714 54.9403L168.001 55.0931L167.814 55.7209C167.712 56.0773 167.56 56.6712 167.441 57.0446C167.339 57.4009 167.271 57.7233 167.305 57.7573C167.339 57.7912 167.797 57.6555 168.357 57.5027C169.189 57.2482 169.579 57.1973 170.547 57.2482C171.565 57.2821 171.752 57.3161 171.99 57.5537C172.261 57.8252 172.329 58.3173 172.176 58.9282C172.108 59.1997 172.024 59.2676 171.701 59.2676C171.226 59.2676 169.63 59.5391 168.612 59.8106C165.93 60.5063 164.301 62.0675 163.927 64.2736C163.656 65.8857 164.335 67.0566 165.93 67.6675C166.524 67.9051 166.915 67.956 168.527 68.0069C170.598 68.0747 171.973 67.8881 173.348 67.396L174.06 67.1414L174.943 63.2384C175.707 59.9294 175.826 59.1658 175.86 58.1476C175.877 57.1124 175.843 56.8749 175.605 56.3828C175.265 55.704 174.553 55.144 173.721 54.8894C172.974 54.6519 171.09 54.55 170.123 54.6858ZM171.599 61.3039C171.599 61.3888 171.396 62.373 171.158 63.476C170.649 65.7839 170.7 65.716 169.376 65.716C168.544 65.716 167.967 65.5124 167.763 65.1221C167.577 64.7318 167.628 63.7645 167.899 63.1875C168.357 62.1694 169.104 61.6263 170.445 61.3209C171.396 61.1512 171.599 61.1342 171.599 61.3039Z" fill="black"/>
<path d="M180.85 54.7027C179.797 54.8554 178.558 55.1269 177.879 55.4154L177.387 55.636L176.097 61.4905C175.384 64.7147 174.773 67.4638 174.739 67.6335L174.688 67.888H178.626L179.78 62.6614C180.408 59.7766 180.969 57.4009 181.002 57.3499C181.053 57.316 181.512 57.2651 182.055 57.2481C183.175 57.2142 183.718 57.4348 183.871 58.0118C183.922 58.2324 183.599 59.9123 182.92 62.9838C182.36 65.5293 181.902 67.7013 181.902 67.7692C181.902 67.871 182.462 67.905 183.837 67.871L185.772 67.8371L186.773 63.4081C187.316 60.9645 187.826 58.6905 187.894 58.3342C188.012 57.7912 188.08 57.6724 188.488 57.4687C188.776 57.316 189.201 57.2312 189.574 57.2312C190.541 57.2312 191 57.5706 191.017 58.2833C191.017 58.5718 189.489 65.7668 189.014 67.6335L188.963 67.888H192.918L193.104 67.0735C194.496 60.8966 195.005 58.3851 195.005 57.7572C194.988 56.8069 194.7 56.1112 194.038 55.5342C193.291 54.8554 192.476 54.6348 190.898 54.6518C189.489 54.6688 188.471 54.8894 187.401 55.4324L186.705 55.7718L186.128 55.4154C185.823 55.2118 185.297 54.9572 184.957 54.8724C184.227 54.6348 182.021 54.55 180.85 54.7027Z" fill="black"/>
<path d="M200.81 54.6858C200.42 54.7537 199.808 54.8555 199.418 54.9403L198.705 55.0931L198.332 56.4167C198.111 57.1464 197.958 57.7573 197.975 57.7743C197.992 57.7912 198.468 57.6894 199.028 57.5197C200.08 57.2143 201.743 57.1294 202.321 57.35C202.83 57.5367 203.033 57.9779 202.915 58.6397L202.813 59.1997L201.37 59.4033C197.313 59.9973 195.192 61.4397 194.649 64.053C194.275 65.8008 194.937 67.0226 196.584 67.6675C197.178 67.8881 197.551 67.939 199.265 67.9899C200.929 68.0238 201.438 67.9899 202.473 67.7863C203.593 67.5657 204.782 67.1584 204.782 67.0057C204.782 66.9717 205.189 65.1051 205.681 62.8821C206.717 58.2324 206.784 57.4688 206.292 56.4167C205.936 55.687 205.274 55.144 204.374 54.8894C203.661 54.6519 201.777 54.55 200.81 54.6858ZM202.287 61.6094C202.236 61.8639 202.015 62.8142 201.811 63.7475C201.608 64.6808 201.387 65.4784 201.319 65.5463C201.268 65.6142 200.81 65.682 200.318 65.699C198.586 65.8008 197.958 65.0033 198.502 63.4251C198.892 62.3221 199.741 61.6433 201.098 61.3378C202.354 61.0833 202.405 61.1003 202.287 61.6094Z" fill="black"/>
<path d="M216.086 54.7536C214.355 55.1439 213.082 56.0433 212.505 57.2991C212.08 58.2154 212.046 59.6409 212.454 60.3875C212.827 61.0663 213.71 61.8299 214.881 62.4748C215.967 63.0517 216.442 63.5608 216.442 64.1208C216.442 64.545 215.967 65.0711 215.526 65.1899C214.779 65.3766 212.912 65.0372 211.639 64.4772C211.486 64.4093 211.367 64.6299 211.011 65.682C210.756 66.3947 210.57 67.0056 210.57 67.0396C210.57 67.1753 211.707 67.6165 212.505 67.8032C213.506 68.0408 215.695 68.0238 216.612 67.8032C218.954 67.1923 220.193 65.8687 220.346 63.8663C220.397 63.1535 220.363 62.916 220.142 62.3899C219.786 61.5924 218.903 60.7269 217.681 60.0651C216.408 59.3693 215.95 58.9451 215.95 58.5039C215.95 57.9948 216.476 57.5027 217.155 57.4009C217.783 57.2991 219.124 57.4857 219.752 57.7403C220.142 57.91 220.159 57.91 220.278 57.5875C220.414 57.2312 221.11 55.2627 221.11 55.2118C221.11 55.1948 220.753 55.0591 220.312 54.9064C219.243 54.6009 217.172 54.4991 216.086 54.7536Z" fill="black"/>
<path d="M148.584 54.991C148.584 55.2964 149.857 66.5303 149.976 67.3109L150.043 67.769H153.71L156.918 61.6261C158.683 58.2491 160.244 55.2964 160.363 55.0758L160.601 54.6855H157.019L155.135 58.7413C154.1 60.9643 153.15 63.0854 153.031 63.4588L152.793 64.1036L152.844 63.4418C152.861 63.0854 152.827 61.117 152.725 59.0637C152.64 57.0104 152.555 55.2116 152.555 55.008V54.6855H148.601L148.584 54.991Z" fill="black"/>
<path d="M161.297 54.787C161.297 54.8549 159.497 63.6281 158.7 67.4293L158.632 67.7687H162.434L163.741 61.3881C164.454 57.8924 165.065 54.9397 165.099 54.8549C165.133 54.7531 164.708 54.7021 163.215 54.7021C162.145 54.7021 161.297 54.7361 161.297 54.787Z" fill="black"/>
<path d="M208.278 54.7194C208.278 54.7363 207.667 57.6721 206.92 61.2357L205.58 67.701L207.43 67.735C208.448 67.752 209.297 67.752 209.331 67.718C209.382 67.6671 212.012 54.9909 212.012 54.8042C211.995 54.7194 208.312 54.6176 208.278 54.7194Z" fill="black"/>
<path d="M141.642 47.6936H137.653L138.434 43.8076H134.801L134.021 47.6936H130.049L129.353 51.1215H133.342L132.561 55.0075H136.193L136.974 51.1215H140.946L141.642 47.6936Z" fill="black"/>
<defs>
<linearGradient id="paint0_linear_325_1026" x1="9.85093" y1="40.6751" x2="9.85093" y2="0.688989" gradientUnits="userSpaceOnUse">
<stop stop-color="#009BBE" stop-opacity="0.2"/>
<stop offset="0.8" stop-color="#009BBE"/>
</linearGradient>
<linearGradient id="paint1_linear_325_1026" x1="53.41" y1="40.6751" x2="53.41" y2="0.690686" gradientUnits="userSpaceOnUse">
<stop offset="0.2" stop-color="#009BBE"/>
<stop offset="1" stop-color="#009BBE" stop-opacity="0.2"/>
</linearGradient>
</defs>
</svg>
