<svg width="209" height="36" viewBox="0 0 209 36" fill="none" xmlns="http://www.w3.org/2000/svg">
<path d="M8.05908 30.9496C7.75874 30.9496 7.46842 30.8427 7.24818 30.6193C4.18479 27.657 2.50293 23.7039 2.50293 19.5081C2.50293 15.3122 4.18479 11.3688 7.24818 8.39677C7.69868 7.9597 8.42949 7.9597 8.87999 8.39677C9.33048 8.83384 9.33048 9.54287 8.87999 9.97994C6.25708 12.5247 4.80548 15.9144 4.80548 19.5081C4.80548 23.1017 6.24707 26.4915 8.87999 29.0362C9.33048 29.4732 9.33048 30.1823 8.87999 30.6193C8.64973 30.8427 8.35941 30.9496 8.05908 30.9496Z" fill="white"/>
<path d="M29.3526 30.9495C29.0523 30.9495 28.762 30.8426 28.5417 30.6192C28.0912 30.1822 28.0912 29.4731 28.5417 29.0361C31.1646 26.4913 32.6162 23.1016 32.6162 19.4982C32.6162 15.8948 31.1546 12.5245 28.5317 9.97981C28.0812 9.54274 28.0812 8.83372 28.5317 8.39665C28.9822 7.95958 29.713 7.95958 30.1635 8.39665C33.2269 11.3687 34.9088 15.3121 34.9088 19.5079C34.9088 23.7038 33.2269 27.6569 30.1635 30.6192C29.9433 30.8426 29.643 30.9495 29.3526 30.9495Z" fill="white"/>
<path d="M28.722 20.4598H20.0724C20.2526 21.3048 20.6631 21.975 21.2838 22.4606C21.9144 22.9463 22.6753 23.1891 23.5863 23.1891C24.7376 23.1891 25.6786 22.8103 26.4194 22.043C26.5596 21.8973 26.7898 21.8876 26.94 22.0139L28.3416 23.1794C28.5017 23.3154 28.5218 23.5582 28.3716 23.7136C27.851 24.2672 27.2203 24.7237 26.4695 25.0733C25.5885 25.4813 24.5774 25.6852 23.4261 25.6852C22.2748 25.6852 21.1636 25.4327 20.2026 24.9277C19.2515 24.4226 18.4907 23.7039 17.9401 22.752C17.3894 21.8099 17.1091 20.7221 17.1091 19.4983C17.1091 18.595 17.2593 17.7597 17.5696 16.9924C17.87 16.2251 18.2904 15.5744 18.831 15.0402C19.3716 14.506 20.0224 14.0883 20.7632 13.7872C21.504 13.4861 22.2949 13.3405 23.1458 13.3405C24.7776 13.3405 26.1391 13.8261 27.2504 14.7876C27.5707 15.0693 27.851 15.3801 28.0813 15.7298C28.782 16.7593 29.1324 17.9734 29.1324 19.3623C29.1324 19.644 29.1224 19.8965 29.1024 20.1199C29.0824 20.3141 28.9122 20.4598 28.722 20.4598ZM21.2637 16.4582C20.6931 16.8759 20.3127 17.4683 20.1125 18.3522H26.2893C26.1692 17.75 25.9789 17.3324 25.7187 16.973C25.4584 16.6136 25.118 16.3417 24.7075 16.1377C24.2971 15.9337 23.8166 15.8269 23.296 15.8269C22.5051 15.8366 21.8344 16.0406 21.2637 16.4582Z" fill="white"/>
<path d="M11.6231 25.4909H9.57085C9.36062 25.4909 9.19043 25.3257 9.19043 25.1218V18.3326C9.19043 15.6228 11.4529 13.4277 14.246 13.4277H15.8578C16.068 13.4277 16.2382 13.5928 16.2382 13.7968V15.953C16.2382 16.157 16.068 16.3221 15.8578 16.3221H14.0758C12.9346 16.3221 12.0035 17.2254 12.0035 18.3326V25.1218C12.0035 25.3257 11.8334 25.4909 11.6231 25.4909Z" fill="white"/>
<path d="M102.073 11.2036C101.703 10.854 101.522 10.4169 101.522 9.92156C101.522 9.42622 101.703 8.98915 102.073 8.62978C102.443 8.27041 102.894 8.09558 103.435 8.09558C103.975 8.09558 104.396 8.27041 104.776 8.63949C105.156 9.00857 105.337 9.42622 105.337 9.92156C105.337 10.2518 105.247 10.5529 105.076 10.8346C104.906 11.1162 104.676 11.3396 104.376 11.495C104.085 11.6601 103.765 11.7378 103.435 11.7378C102.894 11.7378 102.443 11.563 102.073 11.2036ZM102.393 13.525H104.426C104.646 13.525 104.826 13.6998 104.826 13.9135V25.1024C104.826 25.3161 104.646 25.491 104.426 25.491H102.393C102.173 25.491 101.993 25.3161 101.993 25.1024V13.9038C102.003 13.6901 102.173 13.525 102.393 13.525Z" fill="white"/>
<path d="M106.989 23.6359L107.96 22.2373C108.09 22.043 108.37 22.0139 108.55 22.1596C108.951 22.4995 109.371 22.752 109.822 22.9366C110.382 23.16 111.043 23.2765 111.784 23.2765C112.315 23.2765 112.745 23.1697 113.045 22.956C113.356 22.7423 113.506 22.4606 113.506 22.1013C113.506 21.8099 113.326 21.5768 112.985 21.3922C112.635 21.2077 111.994 20.9552 111.063 20.6444C110.693 20.5278 110.362 20.4016 110.072 20.285C109.782 20.1685 109.491 20.0228 109.191 19.8577C108.891 19.6925 108.631 19.508 108.42 19.3137C108.21 19.1098 108.01 18.8864 107.83 18.6339C107.649 18.3813 107.519 18.0997 107.429 17.7791C107.339 17.4586 107.289 17.109 107.289 16.7302C107.289 15.7589 107.699 14.9528 108.52 14.302C109.341 13.6513 110.382 13.3405 111.634 13.3405C113.135 13.3405 114.487 13.7678 115.698 14.6128C115.869 14.7294 115.919 14.9625 115.808 15.1373L114.827 16.6233C114.697 16.8176 114.427 16.8564 114.247 16.7107C114.026 16.5456 113.796 16.3999 113.556 16.264C113.186 16.0697 112.835 15.924 112.495 15.8366C112.154 15.7492 111.824 15.7006 111.484 15.7006C111.143 15.7006 110.853 15.788 110.563 15.9629C110.282 16.1377 110.142 16.3902 110.142 16.7302C110.142 16.9244 110.232 17.0993 110.402 17.2741C110.573 17.4489 110.793 17.5946 111.053 17.7403C111.313 17.8763 111.664 18.0317 112.104 18.1968C113.416 18.7018 114.227 19.0321 114.547 19.1875C115.358 19.6148 115.899 20.1296 116.149 20.7318C116.299 21.1106 116.369 21.5379 116.369 22.0333C116.369 22.5286 116.279 23.0143 116.089 23.4513C115.899 23.8884 115.618 24.2672 115.248 24.5974C114.877 24.9277 114.397 25.1899 113.806 25.3744C113.216 25.559 112.535 25.6561 111.774 25.6561C109.952 25.6561 108.39 25.151 107.079 24.1409C106.909 24.0341 106.869 23.8107 106.989 23.6359Z" fill="white"/>
<path d="M130.465 19.4012C130.445 18.2453 130.174 17.2158 129.644 16.3028C129.093 15.3607 128.322 14.6322 127.351 14.1175C126.41 13.6221 125.339 13.3696 124.158 13.3502C124.037 13.3405 123.917 13.3405 123.787 13.3405C122.946 13.3405 122.165 13.4959 121.425 13.8067C120.694 14.1175 120.063 14.5448 119.532 15.0887C119.002 15.6326 118.591 16.2931 118.291 17.0604C117.991 17.8374 117.831 18.663 117.831 19.5468C117.831 20.2753 117.931 20.9552 118.121 21.5962C118.311 22.2373 118.591 22.8006 118.952 23.2959C119.312 23.7913 119.733 24.2089 120.223 24.5683C120.714 24.9277 121.264 25.1996 121.875 25.3842C122.486 25.5687 123.136 25.6561 123.807 25.6561C125.489 25.6561 126.79 25.0539 127.732 23.8593H127.772V25.0831C127.772 25.2967 127.952 25.4716 128.172 25.4716H130.084C130.304 25.4716 130.485 25.2967 130.485 25.0831L130.465 19.4012ZM126.73 22.179C126.05 22.8491 125.219 23.1891 124.248 23.1891C123.207 23.1891 122.356 22.8491 121.695 22.179C121.034 21.5088 120.704 20.6347 120.704 19.576C120.704 19.0126 120.794 18.4979 120.984 18.022C121.164 17.546 121.425 17.1478 121.745 16.837C122.065 16.5262 122.446 16.2737 122.876 16.0988C123.307 15.924 123.767 15.8366 124.268 15.8366C124.368 15.8366 124.468 15.8463 124.568 15.8463C125.389 15.9337 126.09 16.264 126.66 16.8467C127.131 17.3129 127.471 17.8763 127.641 18.527C127.661 18.6144 127.681 18.7116 127.701 18.799C127.742 19.0418 127.762 19.2943 127.762 19.5663C127.752 20.6347 127.411 21.4991 126.73 22.179Z" fill="white"/>
<path d="M98.7694 16.3028C98.2288 15.3607 97.4679 14.6322 96.5069 14.1175C95.5458 13.6027 94.4446 13.3405 93.2132 13.3405C91.9819 13.3405 90.8406 13.6124 89.8595 14.1466C88.8784 14.6808 88.1376 15.419 87.607 16.3611C87.0865 17.2935 86.8262 18.3522 86.8262 19.5274C86.8262 20.4016 86.9763 21.2077 87.2867 21.9653C87.597 22.7229 88.0175 23.3736 88.5681 23.9273C89.1187 24.4712 89.7895 24.9082 90.5903 25.219C91.3912 25.5298 92.2622 25.6852 93.2032 25.6852C94.4246 25.6852 95.5258 25.4327 96.4869 24.9179C96.597 24.8597 96.6971 24.8014 96.8072 24.7334V25.1025C96.8072 25.9475 96.4869 26.6468 95.8462 27.2101C95.2054 27.7735 94.2944 28.0454 93.1331 28.0454C92.3323 28.0454 91.6315 27.9483 91.0308 27.754C90.5403 27.5986 89.9897 27.3752 89.379 27.0742C89.1588 26.9673 88.8784 27.0839 88.8184 27.317L88.3579 28.9875C88.3078 29.1624 88.3879 29.3372 88.5481 29.4246C89.1688 29.7548 89.8595 30.0074 90.6104 30.2016C91.4713 30.4153 92.3723 30.5222 93.3033 30.5222C94.2344 30.5222 95.0052 30.4153 95.706 30.2211C96.4168 30.0171 97.0074 29.7354 97.488 29.3663C97.9685 28.9973 98.3689 28.5602 98.6893 28.026C99.0097 27.5015 99.2399 26.9285 99.37 26.2971C99.5102 25.6755 99.5803 24.9956 99.5803 24.2478V19.5274C99.5903 18.3133 99.32 17.2449 98.7694 16.3028ZM95.736 22.1498C95.0553 22.8394 94.2143 23.1891 93.2233 23.1891C92.2322 23.1891 91.3412 22.8394 90.6804 22.1304C90.0097 21.4311 89.6793 20.557 89.6793 19.5177C89.6793 18.4785 90.0097 17.5849 90.6604 16.8856C91.3211 16.1863 92.1721 15.8366 93.2233 15.8366C94.2744 15.8366 95.0753 16.1766 95.746 16.8661C96.4168 17.5557 96.7572 18.4396 96.7572 19.5274C96.7572 20.6152 96.4168 21.4602 95.736 22.1498Z" fill="white"/>
<path d="M62.4793 25.5006H60.427C60.2067 25.5006 60.0265 25.3258 60.0265 25.1121V19.032C60.0265 17.478 58.7952 16.1376 57.1934 16.0599C55.4815 15.9822 54.0599 17.3032 54.0599 18.9446V25.1121C54.0599 25.3258 53.8797 25.5006 53.6595 25.5006H51.6072C51.387 25.5006 51.2068 25.3258 51.2068 25.1121V19.0709C51.2068 15.9045 53.8797 13.2336 57.1333 13.2918C60.3169 13.3404 62.8697 15.856 62.8697 18.9446V25.1121C62.8697 25.3258 62.6995 25.5006 62.4793 25.5006Z" fill="white"/>
<path d="M48.834 20.4598H40.1845C40.3647 21.3048 40.7751 21.975 41.3958 22.4606C42.0265 22.9463 42.7974 23.1891 43.6984 23.1891C44.8496 23.1891 45.7907 22.8103 46.5315 22.043C46.6716 21.8973 46.9019 21.8876 47.0521 22.0139L48.4536 23.1794C48.6138 23.3154 48.6338 23.5582 48.4837 23.7136C47.9631 24.2672 47.3324 24.7237 46.5815 25.0733C45.7006 25.4813 44.6895 25.6852 43.5382 25.6852C42.3869 25.6852 41.2757 25.4327 40.3146 24.9277C39.3636 24.4226 38.6027 23.7039 38.0521 22.752C37.5015 21.8002 37.2212 20.7221 37.2212 19.4983C37.2212 18.595 37.3714 17.7597 37.6817 16.9924C37.982 16.2251 38.4025 15.5744 38.9431 15.0402C39.4837 14.506 40.1144 14.0883 40.8552 13.7872C41.596 13.4861 42.3869 13.3405 43.2378 13.3405C44.8697 13.3405 46.2312 13.8261 47.3424 14.7876C47.6627 15.0693 47.9431 15.3801 48.1733 15.7298C48.8741 16.7593 49.2245 17.9734 49.2245 19.3623C49.2245 19.644 49.2145 19.8965 49.1944 20.1199C49.1944 20.3141 49.0343 20.4598 48.834 20.4598ZM41.3858 16.4582C40.8152 16.8759 40.4347 17.4683 40.2345 18.3522H46.4114C46.2912 17.75 46.101 17.3324 45.8407 16.973C45.5804 16.6136 45.2401 16.3417 44.8296 16.1377C44.4192 15.9337 43.9386 15.8269 43.4181 15.8269C42.6272 15.8366 41.9564 16.0406 41.3858 16.4582Z" fill="white"/>
<path d="M76.4847 20.4598H67.8351C68.0153 21.3048 68.4258 21.975 69.0565 22.4606C69.6872 22.9463 70.458 23.1891 71.359 23.1891C72.5103 23.1891 73.4513 22.8103 74.1921 22.043C74.3323 21.8973 74.5626 21.8876 74.7127 22.0139L76.1143 23.1794C76.2845 23.3154 76.2945 23.5582 76.1443 23.7136C75.6237 24.2672 74.993 24.7237 74.2422 25.0733C73.3612 25.4813 72.3501 25.6852 71.1988 25.6852C70.0476 25.6852 68.9263 25.4327 67.9753 24.9277C67.0242 24.4226 66.2734 23.7039 65.7128 22.752C65.1521 21.8002 64.8818 20.7221 64.8818 19.4983C64.8818 18.595 65.032 17.7597 65.3423 16.9924C65.6427 16.2251 66.0631 15.5744 66.6037 15.0402C67.1443 14.506 67.775 14.0883 68.5159 13.7872C69.2567 13.4861 70.0476 13.3405 70.8985 13.3405C72.5303 13.3405 73.8918 13.8261 75.003 14.7876C75.3234 15.0693 75.6037 15.3801 75.834 15.7298C76.5347 16.7593 76.8851 17.9734 76.8851 19.3623C76.8851 19.644 76.8751 19.8965 76.8551 20.1199C76.8451 20.3141 76.6849 20.4598 76.4847 20.4598ZM69.0364 16.4582C68.4658 16.8759 68.0854 17.4683 67.8852 18.3522H74.062C73.9419 17.75 73.7416 17.3324 73.4914 16.973C73.2311 16.6136 72.8907 16.3417 72.4802 16.1377C72.0698 15.9337 71.5792 15.8366 71.0587 15.8366C70.2778 15.8366 69.5971 16.0406 69.0364 16.4582Z" fill="white"/>
<path d="M81.4703 25.5007H79.418C79.2078 25.5007 79.0376 25.3356 79.0376 25.1317V18.3425C79.0376 15.6327 81.3001 13.4376 84.0932 13.4376H85.705C85.9152 13.4376 86.0854 13.6027 86.0854 13.8067V15.9629C86.0854 16.1669 85.9152 16.332 85.705 16.332H83.923C82.7717 16.332 81.8507 17.2353 81.8507 18.3425V25.1317C81.8507 25.3356 81.6805 25.5007 81.4703 25.5007Z" fill="white"/>
<rect x="135.787" y="8.06897" width="1.2515" height="21.1034" fill="white"/>
<path d="M176.302 5.66728C175.428 5.93036 174.946 6.4273 174.6 7.3627C174.223 8.37118 174.374 9.37966 174.961 9.74506C175.172 9.8766 175.413 9.90583 175.926 9.8766C176.694 9.83275 176.709 9.84736 176.347 10.5343C176.076 11.0459 175.157 11.2943 174.464 11.0459C174.268 10.9728 174.193 10.9874 174.088 11.1628C173.937 11.3966 173.922 11.382 174.389 11.5428C175.413 11.8789 176.588 11.4989 177.025 10.6805C177.221 10.3297 178.155 6.09114 178.08 5.90113C177.974 5.63805 176.89 5.50651 176.302 5.66728ZM177.251 6.07652C177.372 6.1496 177.342 6.42729 177.055 7.7427C176.875 8.60503 176.664 9.36505 176.588 9.4089C176.528 9.45274 176.242 9.49659 175.971 9.49659C175.187 9.49659 174.946 9.05812 175.142 7.99117C175.278 7.275 175.534 6.74884 175.956 6.38345C176.393 5.98882 176.92 5.8719 177.251 6.07652Z" fill="white"/>
<path d="M179.722 5.68196C179.451 5.74042 179.195 5.8135 179.149 5.87196C179.089 5.93042 178.215 9.6428 178.215 9.87666C178.215 9.89127 178.381 9.90589 178.562 9.90589H178.923L179.27 8.22508C179.737 5.98888 179.692 6.09119 180.264 6.09119C180.641 6.09119 180.776 6.03273 180.867 5.90119C180.912 5.78427 180.972 5.68195 180.972 5.63811C180.987 5.55041 180.279 5.57965 179.722 5.68196Z" fill="white"/>
<path d="M186.049 5.68216C185.808 5.74063 185.597 5.8137 185.552 5.85755C185.477 5.93063 184.302 11.2215 184.302 11.47C184.302 11.5284 184.452 11.5577 184.648 11.5284C184.979 11.4992 184.994 11.47 185.16 10.7246L185.326 9.94994L185.974 9.93532C186.32 9.92071 186.757 9.84763 186.938 9.75994C187.691 9.37993 188.294 8.45914 188.429 7.43605C188.595 6.03294 187.646 5.33139 186.049 5.68216ZM187.525 6.31064C187.691 6.50064 187.721 6.67603 187.676 7.28989C187.586 8.63453 186.893 9.48224 185.928 9.48224C185.582 9.48224 185.461 9.43839 185.461 9.32147C185.461 9.23377 185.612 8.51761 185.778 7.71374C185.959 6.9245 186.094 6.23756 186.094 6.20832C186.094 6.19371 186.2 6.12063 186.335 6.06217C186.697 5.93063 187.299 6.04755 187.525 6.31064Z" fill="white"/>
<path d="M190.493 5.68191C189.619 5.94499 188.956 7.11424 188.926 8.42965C188.911 9.32121 189.122 9.67199 189.785 9.89122C191.005 10.3151 192.195 9.17505 192.421 7.40655C192.557 6.35423 192.135 5.68191 191.276 5.60883C191.035 5.59421 190.674 5.62344 190.493 5.68191ZM191.367 6.10576C191.713 6.25192 191.789 6.54423 191.713 7.34809C191.608 8.5612 191.005 9.48198 190.282 9.48198C189.8 9.48198 189.604 9.2189 189.604 8.54658C189.604 7.37732 190.177 6.19345 190.824 6.03268C190.945 6.00345 191.05 5.97422 191.065 5.97422C191.081 6.00345 191.216 6.03268 191.367 6.10576Z" fill="white"/>
<path d="M181.484 5.8574C181.304 6.45665 180.882 8.649 180.882 8.99978C180.882 9.54056 181.228 9.87672 181.876 9.96441C182.328 10.0375 183.352 9.89134 183.624 9.73056C183.684 9.68672 183.925 8.83901 184.136 7.84514C184.347 6.85127 184.543 5.95971 184.573 5.8574C184.618 5.71125 184.558 5.68202 184.256 5.68202C183.895 5.68202 183.88 5.69663 183.774 6.16433C183.066 9.42363 183.096 9.37979 182.855 9.43825C182.403 9.56979 181.936 9.49671 181.725 9.29209C181.605 9.17517 181.515 9.04362 181.515 8.99978C181.515 8.94132 181.665 8.23976 181.831 7.45051C182.012 6.64665 182.147 5.91587 182.147 5.82818C182.162 5.60894 181.545 5.62355 181.484 5.8574Z" fill="white"/>
<path d="M197.046 9.0144C196.187 9.30672 195.57 10.0229 195.57 10.7244C195.57 11.3383 196.293 11.9668 197.031 11.9668C197.814 11.9668 198.688 11.4698 199.035 10.8267C199.426 10.0813 199.05 9.18979 198.251 8.98517C197.754 8.85363 197.513 8.85363 197.046 9.0144Z" fill="white"/>
<path d="M155.242 9.08742C154.82 9.2482 154.293 9.68666 154.127 10.0082C153.916 10.4028 153.931 11.1482 154.142 11.4406C154.714 12.2444 156.311 12.1275 157.125 11.2213C158.014 10.2274 157.411 8.9705 156.04 8.98511C155.754 8.98511 155.392 9.04358 155.242 9.08742Z" fill="white"/>
<path d="M161.162 13.7206C160.815 13.779 160.258 13.8667 159.912 13.9398L159.279 14.0714L159.113 14.6121C159.023 14.9191 158.887 15.4306 158.782 15.7522C158.691 16.0591 158.631 16.3368 158.661 16.366C158.691 16.3953 159.098 16.2783 159.595 16.1468C160.333 15.9275 160.68 15.8837 161.539 15.9276C162.442 15.9568 162.608 15.986 162.819 16.1906C163.06 16.4245 163.12 16.8483 162.985 17.3745C162.925 17.6084 162.849 17.6668 162.563 17.6668C162.141 17.6668 160.725 17.9007 159.821 18.1345C157.441 18.7338 155.995 20.0784 155.663 21.9784C155.422 23.3669 156.025 24.3754 157.441 24.9016C157.968 25.1062 158.315 25.1501 159.746 25.1939C161.584 25.2524 162.804 25.0916 164.024 24.6677L164.657 24.4485L165.44 21.0869C166.118 18.2368 166.224 17.5791 166.254 16.7022C166.269 15.8106 166.239 15.606 166.028 15.1822C165.727 14.5975 165.094 14.1152 164.356 13.896C163.693 13.6914 162.021 13.6037 161.162 13.7206ZM162.473 19.4207C162.473 19.4938 162.292 20.3415 162.081 21.2915C161.629 23.2792 161.674 23.2208 160.499 23.2208C159.761 23.2208 159.249 23.0454 159.068 22.7092C158.902 22.3731 158.947 21.54 159.188 21.043C159.595 20.1661 160.258 19.6984 161.448 19.4353C162.292 19.2892 162.473 19.2745 162.473 19.4207Z" fill="white"/>
<path d="M170.683 13.7353C169.749 13.8668 168.649 14.1007 168.047 14.3491L167.61 14.5391L166.465 19.5815C165.832 22.3585 165.29 24.7263 165.26 24.8724L165.215 25.0917H168.71L169.734 20.59C170.291 18.1054 170.789 16.0592 170.819 16.0153C170.864 15.9861 171.271 15.9422 171.753 15.9276C172.747 15.8984 173.229 16.0884 173.365 16.5853C173.41 16.7753 173.124 18.2223 172.521 20.8677C172.024 23.0601 171.617 24.9309 171.617 24.9894C171.617 25.077 172.114 25.1063 173.334 25.0771L175.052 25.0478L175.941 21.2331C176.423 19.1285 176.875 17.17 176.935 16.863C177.04 16.3953 177.101 16.293 177.462 16.1176C177.718 15.9861 178.095 15.913 178.426 15.913C179.285 15.913 179.692 16.2053 179.707 16.8192C179.707 17.0677 178.351 23.2647 177.929 24.8724L177.884 25.0917H181.394L181.56 24.3901C182.795 19.07 183.247 16.9069 183.247 16.3661C183.232 15.5476 182.976 14.9484 182.388 14.4514C181.726 13.8668 181.002 13.6768 179.601 13.6914C178.351 13.706 177.447 13.896 176.498 14.3638L175.88 14.6561L175.368 14.3491C175.097 14.1737 174.63 13.9545 174.329 13.8814C173.681 13.6768 171.723 13.6037 170.683 13.7353Z" fill="white"/>
<path d="M188.399 13.7206C188.052 13.779 187.51 13.8667 187.164 13.9398L186.531 14.0714L186.2 15.2114C186.004 15.8399 185.868 16.366 185.883 16.3806C185.898 16.3953 186.32 16.3076 186.817 16.1614C187.751 15.8983 189.228 15.8252 189.74 16.0152C190.192 16.176 190.372 16.556 190.267 17.126L190.177 17.6084L188.896 17.7837C185.296 18.2953 183.413 19.5376 182.93 21.7884C182.599 23.2939 183.187 24.3462 184.648 24.9016C185.175 25.0916 185.507 25.1354 187.028 25.1793C188.504 25.2085 188.956 25.1793 189.875 25.0039C190.87 24.8139 191.924 24.4631 191.924 24.3316C191.924 24.3023 192.286 22.6946 192.723 20.78C193.642 16.7753 193.702 16.1176 193.265 15.2114C192.949 14.5829 192.361 14.1152 191.563 13.896C190.93 13.6914 189.258 13.6037 188.399 13.7206ZM189.71 19.6838C189.664 19.903 189.469 20.7215 189.288 21.5254C189.107 22.3292 188.911 23.0162 188.851 23.0746C188.806 23.1331 188.399 23.1916 187.962 23.2062C186.425 23.2939 185.868 22.6069 186.35 21.2477C186.697 20.2976 187.45 19.713 188.655 19.4499C189.77 19.2307 189.815 19.2453 189.71 19.6838Z" fill="white"/>
<path d="M201.957 13.779C200.421 14.1152 199.291 14.8898 198.779 15.9714C198.402 16.7606 198.372 17.9884 198.733 18.6314C199.065 19.2161 199.848 19.8738 200.888 20.4292C201.852 20.9261 202.274 21.3646 202.274 21.8469C202.274 22.2123 201.852 22.6654 201.46 22.7677C200.797 22.9285 199.14 22.6361 198.01 22.1538C197.875 22.0954 197.769 22.2854 197.453 23.1915C197.227 23.8054 197.061 24.3316 197.061 24.3608C197.061 24.4777 198.071 24.8577 198.779 25.0185C199.667 25.2231 201.611 25.2085 202.424 25.0185C204.503 24.4923 205.603 23.3523 205.739 21.6277C205.784 21.0138 205.754 20.8092 205.558 20.3561C205.241 19.6692 204.458 18.9238 203.373 18.3538C202.244 17.7545 201.837 17.3891 201.837 17.0091C201.837 16.5706 202.304 16.1468 202.906 16.0591C203.464 15.9714 204.654 16.1322 205.211 16.3514C205.558 16.4976 205.573 16.4976 205.678 16.2199C205.799 15.9129 206.416 14.2175 206.416 14.1737C206.416 14.159 206.1 14.0421 205.708 13.9106C204.759 13.6475 202.921 13.5598 201.957 13.779Z" fill="white"/>
<path d="M142.045 13.9838C142.045 14.2469 143.175 23.9225 143.28 24.5948L143.34 24.9894H146.594L149.442 19.6985C151.008 16.79 152.394 14.2469 152.5 14.0569L152.711 13.7207H149.532L147.86 17.2139C146.941 19.1285 146.097 20.9555 145.992 21.277L145.781 21.8324L145.826 21.2624C145.841 20.9555 145.811 19.26 145.721 17.4915C145.645 15.7231 145.57 14.1738 145.57 13.9984V13.7207H142.06L142.045 13.9838Z" fill="white"/>
<path d="M153.328 13.8083C153.328 13.8668 151.731 21.4231 151.023 24.697L150.963 24.9893H154.338L155.498 19.4938C156.13 16.483 156.673 13.9399 156.703 13.8668C156.733 13.7791 156.356 13.7352 155.031 13.7352C154.082 13.7352 153.328 13.7645 153.328 13.8083Z" fill="white"/>
<path d="M195.028 13.7498C195.028 13.7645 194.485 16.293 193.822 19.3623L192.632 24.9308L194.274 24.9601C195.178 24.9747 195.932 24.9747 195.962 24.9455C196.007 24.9016 198.342 13.9837 198.342 13.8229C198.327 13.7498 195.058 13.6621 195.028 13.7498Z" fill="white"/>
</svg>
