<svg width="326" height="101" viewBox="0 0 326 101" fill="none" xmlns="http://www.w3.org/2000/svg">
<path d="M19.5885 58.6776C18.854 58.6776 18.1439 58.4082 17.6053 57.8451C10.1133 50.3776 6 40.4127 6 29.8357C6 19.2587 10.1133 9.31835 17.6053 1.82633C18.7071 0.724558 20.4944 0.724558 21.5961 1.82633C22.6979 2.92809 22.6979 4.71541 21.5961 5.81717C15.1814 12.2319 11.6313 20.7767 11.6313 29.8357C11.6313 38.8947 15.1569 47.4395 21.5961 53.8543C22.6979 54.956 22.6979 56.7433 21.5961 57.8451C21.033 58.4082 20.323 58.6776 19.5885 58.6776Z" fill="url(#paint0_linear_339_1153)"/>
<path d="M71.6654 58.6776C70.9309 58.6776 70.2209 58.4082 69.6822 57.8451C68.5805 56.7433 68.5805 54.956 69.6822 53.8543C76.097 47.4395 79.6471 38.8947 79.6471 29.8112C79.6471 20.7278 76.0725 12.2319 69.6577 5.81717C68.556 4.71541 68.556 2.92809 69.6577 1.82633C70.7595 0.724558 72.5468 0.724558 73.6486 1.82633C81.1406 9.31835 85.2539 19.2587 85.2539 29.8357C85.2539 40.4127 81.1406 50.3776 73.6486 57.8451C73.1099 58.4082 72.3754 58.6776 71.6654 58.6776Z" fill="url(#paint1_linear_339_1153)"/>
<path d="M70.1228 32.235H48.9689C49.4096 34.3651 50.4134 36.0545 51.9314 37.2787C53.4739 38.5029 55.3346 39.115 57.5627 39.115C60.3783 39.115 62.6798 38.1601 64.4916 36.2259C64.8343 35.8586 65.3975 35.8341 65.7647 36.1524L69.1924 39.0905C69.5842 39.4332 69.6331 40.0453 69.2659 40.4371C67.9927 41.8326 66.4502 42.9834 64.614 43.8648C62.4594 44.8931 59.9865 45.4073 57.1709 45.4073C54.3553 45.4073 51.6376 44.7707 49.2872 43.4975C46.9612 42.2244 45.1004 40.4126 43.7538 38.0132C42.4072 35.6383 41.7217 32.8961 41.7217 29.8111C41.7217 27.5341 42.0889 25.4285 42.8479 23.4943C43.5824 21.5601 44.6108 19.9197 45.9329 18.5731C47.255 17.2265 48.8464 16.1737 50.6582 15.4147C52.47 14.6557 54.4043 14.2885 56.4854 14.2885C60.4762 14.2885 63.806 15.5126 66.5237 17.9365C67.3072 18.6466 67.9927 19.43 68.5559 20.3115C70.2697 22.9067 71.1266 25.9672 71.1266 29.4684C71.1266 30.1784 71.1022 30.815 71.0532 31.3781C71.0042 31.8678 70.588 32.235 70.1228 32.235ZM51.8824 22.1477C50.4869 23.2005 49.5565 24.694 49.0668 26.9221H64.1733C63.8795 25.4041 63.4143 24.3513 62.7777 23.4454C62.1411 22.5395 61.3087 21.8539 60.3048 21.3398C59.301 20.8256 58.1258 20.5563 56.8526 20.5563C54.9184 20.5808 53.278 21.0949 51.8824 22.1477Z" fill="#009BBE"/>
<path d="M28.3046 44.9176H23.2855C22.7713 44.9176 22.3551 44.5014 22.3551 43.9872V26.8731C22.3551 20.0421 27.8884 14.5088 34.7194 14.5088H38.6613C39.1754 14.5088 39.5916 14.925 39.5916 15.4392V20.8746C39.5916 21.3887 39.1754 21.8049 38.6613 21.8049H34.3032C31.512 21.8049 29.235 24.0819 29.235 26.8731V43.9872C29.235 44.5014 28.8188 44.9176 28.3046 44.9176Z" fill="#009BBE"/>
<path d="M249.515 8.90205C248.609 8.02064 248.169 6.91887 248.169 5.6702C248.169 4.42153 248.609 3.31976 249.515 2.41387C250.421 1.50797 251.523 1.06726 252.845 1.06726C254.167 1.06726 255.195 1.50797 256.126 2.43835C257.056 3.36873 257.497 4.42153 257.497 5.6702C257.497 6.50265 257.277 7.26164 256.86 7.97167C256.444 8.6817 255.881 9.24483 255.146 9.63657C254.436 10.0528 253.653 10.2487 252.845 10.2487C251.523 10.2487 250.421 9.80795 249.515 8.90205ZM250.299 14.7537H255.269C255.808 14.7537 256.248 15.1944 256.248 15.733V43.9383C256.248 44.4769 255.808 44.9176 255.269 44.9176H250.299C249.76 44.9176 249.319 44.4769 249.319 43.9383V15.7085C249.344 15.1699 249.76 14.7537 250.299 14.7537Z" fill="#009BBE"/>
<path d="M261.537 40.2412L263.912 36.7155C264.23 36.2259 264.916 36.1524 265.356 36.5197C266.336 37.3766 267.364 38.0132 268.466 38.4784C269.837 39.0415 271.453 39.3353 273.265 39.3353C274.562 39.3353 275.615 39.066 276.349 38.5273C277.108 37.9887 277.476 37.2787 277.476 36.3728C277.476 35.6383 277.035 35.0507 276.203 34.5855C275.346 34.1203 273.779 33.4837 271.502 32.7002C270.596 32.4064 269.788 32.0881 269.078 31.7943C268.368 31.5005 267.658 31.1333 266.923 30.717C266.189 30.3008 265.552 29.8356 265.038 29.3459C264.524 28.8318 264.034 28.2687 263.593 27.6321C263.153 26.9955 262.834 26.2855 262.614 25.4775C262.394 24.6696 262.271 23.7881 262.271 22.8333C262.271 20.3849 263.275 18.3528 265.283 16.7123C267.29 15.0719 269.837 14.2885 272.897 14.2885C276.57 14.2885 279.875 15.3657 282.838 17.4958C283.254 17.7896 283.376 18.3772 283.107 18.8179L280.708 22.564C280.389 23.0536 279.728 23.1516 279.287 22.7843C278.749 22.3681 278.186 22.0008 277.598 21.6581C276.692 21.1684 275.835 20.8011 275.003 20.5808C274.17 20.3604 273.362 20.238 272.53 20.238C271.698 20.238 270.988 20.4584 270.277 20.8991C269.592 21.3398 269.249 21.9763 269.249 22.8333C269.249 23.3229 269.47 23.7637 269.886 24.2044C270.302 24.6451 270.841 25.0123 271.477 25.3796C272.114 25.7224 272.971 26.1141 274.048 26.5303C277.255 27.8035 279.239 28.6359 280.022 29.0277C282.005 30.1049 283.327 31.4026 283.939 32.9206C284.307 33.8754 284.478 34.9527 284.478 36.2014C284.478 37.4501 284.258 38.6742 283.793 39.776C283.327 40.8778 282.642 41.8326 281.736 42.6651C280.83 43.4975 279.655 44.1586 278.21 44.6238C276.766 45.089 275.101 45.3338 273.24 45.3338C268.784 45.3338 264.965 44.0607 261.757 41.5144C261.341 41.245 261.243 40.6819 261.537 40.2412Z" fill="#009BBE"/>
<path d="M318.951 29.5663C318.902 26.6527 318.241 24.0575 316.943 21.756C315.597 19.3811 313.711 17.5448 311.337 16.2472C309.035 14.9985 306.415 14.3619 303.526 14.3129C303.232 14.2885 302.939 14.2885 302.62 14.2885C300.564 14.2885 298.654 14.6802 296.842 15.4637C295.055 16.2472 293.512 17.3244 292.215 18.6955C290.917 20.0666 289.913 21.7315 289.179 23.6657C288.444 25.6244 288.052 27.7055 288.052 29.9336C288.052 31.7698 288.297 33.4837 288.763 35.0996C289.228 36.7155 289.913 38.1356 290.795 39.3843C291.676 40.6329 292.704 41.6857 293.904 42.5916C295.104 43.4975 296.45 44.1831 297.944 44.6483C299.437 45.1135 301.029 45.3338 302.669 45.3338C306.783 45.3338 309.965 43.8158 312.267 40.8043H312.365V43.8893C312.365 44.4279 312.806 44.8686 313.344 44.8686H318.021C318.559 44.8686 319 44.4279 319 43.8893L318.951 29.5663ZM309.819 36.5686C308.154 38.258 306.121 39.115 303.747 39.115C301.2 39.115 299.119 38.258 297.503 36.5686C295.887 34.8793 295.079 32.6757 295.079 30.007C295.079 28.5869 295.3 27.2893 295.765 26.0896C296.206 24.8899 296.842 23.8861 297.626 23.1026C298.409 22.3191 299.339 21.6825 300.392 21.2418C301.445 20.8011 302.571 20.5808 303.796 20.5808C304.04 20.5808 304.285 20.6053 304.53 20.6053C306.538 20.8256 308.252 21.6581 309.647 23.1271C310.798 24.3023 311.63 25.7224 312.047 27.3628C312.096 27.5831 312.144 27.828 312.193 28.0483C312.291 28.6604 312.34 29.297 312.34 29.9825C312.316 32.6757 311.483 34.8548 309.819 36.5686Z" fill="#009BBE"/>
<path d="M241.436 21.756C240.113 19.3811 238.253 17.5448 235.902 16.2472C233.552 14.9495 230.859 14.2885 227.847 14.2885C224.836 14.2885 222.044 14.974 219.645 16.3206C217.246 17.6672 215.434 19.528 214.136 21.9029C212.863 24.2533 212.226 26.9221 212.226 29.8846C212.226 32.0881 212.594 34.1203 213.353 36.03C214.112 37.9397 215.14 39.5801 216.487 40.9757C217.833 42.3468 219.474 43.4486 221.432 44.2321C223.391 45.0155 225.521 45.4073 227.823 45.4073C230.81 45.4073 233.503 44.7707 235.853 43.4731C236.123 43.3262 236.367 43.1793 236.637 43.0079V43.9382C236.637 46.0683 235.853 47.8312 234.286 49.2512C232.719 50.6713 230.491 51.3568 227.651 51.3568C225.692 51.3568 223.979 51.112 222.51 50.6223C221.31 50.2306 219.963 49.6674 218.47 48.9084C217.931 48.6391 217.246 48.9329 217.099 49.5205L215.972 53.7317C215.85 54.1724 216.046 54.6132 216.438 54.8335C217.956 55.666 219.645 56.3025 221.481 56.7922C223.587 57.3308 225.79 57.6002 228.067 57.6002C230.344 57.6002 232.23 57.3308 233.944 56.8412C235.682 56.327 237.126 55.617 238.302 54.6866C239.477 53.7562 240.456 52.6545 241.24 51.3078C242.023 49.9857 242.586 48.5412 242.905 46.9497C243.247 45.3828 243.419 43.6689 243.419 41.7837V29.8846C243.443 26.8241 242.782 24.1309 241.436 21.756ZM234.017 36.4952C232.352 38.2335 230.295 39.115 227.872 39.115C225.448 39.115 223.269 38.2335 221.653 36.4462C220.012 34.6834 219.204 32.4799 219.204 29.8601C219.204 27.2403 220.012 24.9878 221.604 23.225C223.22 21.4622 225.301 20.5808 227.872 20.5808C230.442 20.5808 232.401 21.4377 234.041 23.176C235.682 24.9144 236.514 27.1424 236.514 29.8846C236.514 32.6268 235.682 34.7568 234.017 36.4952Z" fill="#009BBE"/>
<path d="M152.682 44.9421H147.663C147.124 44.9421 146.683 44.5014 146.683 43.9628V28.6359C146.683 24.7185 143.672 21.3398 139.755 21.1439C135.568 20.9481 132.091 24.2778 132.091 28.4156V43.9628C132.091 44.5014 131.65 44.9421 131.112 44.9421H126.093C125.554 44.9421 125.113 44.5014 125.113 43.9628V28.7339C125.113 20.7522 131.65 14.0192 139.608 14.1661C147.393 14.2885 153.637 20.6298 153.637 28.4156V43.9628C153.637 44.5014 153.221 44.9421 152.682 44.9421Z" fill="#009BBE"/>
<path d="M119.311 32.235H98.1566C98.5973 34.3651 99.6012 36.0545 101.119 37.2787C102.662 38.5029 104.547 39.115 106.75 39.115C109.566 39.115 111.867 38.1601 113.679 36.2259C114.022 35.8586 114.585 35.8341 114.952 36.1524L118.38 39.0905C118.772 39.4332 118.821 40.0453 118.454 40.4371C117.18 41.8326 115.638 42.9834 113.802 43.8648C111.647 44.8931 109.174 45.4073 106.359 45.4073C103.543 45.4073 100.825 44.7707 98.4749 43.4975C96.1489 42.2244 94.2882 40.4126 92.9416 38.0132C91.595 35.6138 90.9094 32.8961 90.9094 29.8111C90.9094 27.5341 91.2767 25.4285 92.0357 23.4943C92.7702 21.5601 93.7985 19.9197 95.1206 18.5731C96.4427 17.2265 97.9852 16.1737 99.797 15.4147C101.609 14.6557 103.543 14.2885 105.624 14.2885C109.615 14.2885 112.945 15.5126 115.662 17.9365C116.446 18.6466 117.132 19.43 117.695 20.3115C119.408 22.9067 120.265 25.9672 120.265 29.4684C120.265 30.1784 120.241 30.815 120.192 31.3781C120.192 31.8678 119.8 32.235 119.311 32.235ZM101.095 22.1477C99.6991 23.2005 98.7687 24.694 98.279 26.9221H113.385C113.092 25.4041 112.626 24.3513 111.99 23.4454C111.353 22.5395 110.521 21.8539 109.517 21.3398C108.513 20.8256 107.338 20.5563 106.065 20.5563C104.131 20.5808 102.49 21.0949 101.095 22.1477Z" fill="#009BBE"/>
<path d="M186.935 32.235H165.781C166.222 34.3651 167.225 36.0545 168.768 37.2787C170.31 38.5029 172.196 39.115 174.399 39.115C177.215 39.115 179.516 38.1601 181.328 36.2259C181.671 35.8586 182.234 35.8341 182.601 36.1524L186.029 39.0905C186.445 39.4332 186.47 40.0453 186.102 40.4371C184.829 41.8326 183.287 42.9834 181.45 43.8648C179.296 44.8931 176.823 45.4073 174.007 45.4073C171.192 45.4073 168.45 44.7707 166.124 43.4975C163.798 42.2244 161.961 40.4126 160.59 38.0132C159.219 35.6138 158.558 32.8961 158.558 29.8111C158.558 27.5341 158.925 25.4285 159.684 23.4943C160.419 21.5601 161.447 19.9197 162.769 18.5731C164.091 17.2265 165.634 16.1737 167.446 15.4147C169.258 14.6557 171.192 14.2885 173.273 14.2885C177.264 14.2885 180.593 15.5126 183.311 17.9365C184.095 18.6466 184.78 19.43 185.343 20.3115C187.057 22.9067 187.914 25.9672 187.914 29.4684C187.914 30.1784 187.89 30.815 187.841 31.3781C187.816 31.8678 187.424 32.235 186.935 32.235ZM168.719 22.1477C167.323 23.2005 166.393 24.694 165.903 26.9221H181.01C180.716 25.4041 180.226 24.3513 179.614 23.4454C178.978 22.5395 178.145 21.8539 177.141 21.3398C176.137 20.8256 174.938 20.5808 173.665 20.5808C171.755 20.5808 170.09 21.0949 168.719 22.1477Z" fill="#009BBE"/>
<path d="M199.128 44.9422H194.108C193.594 44.9422 193.178 44.526 193.178 44.0119V26.8977C193.178 20.0668 198.711 14.5334 205.542 14.5334H209.484C209.998 14.5334 210.415 14.9497 210.415 15.4638V20.8992C210.415 21.4134 209.998 21.8296 209.484 21.8296H205.126C202.311 21.8296 200.058 24.1066 200.058 26.8977V44.0119C200.058 44.526 199.642 44.9422 199.128 44.9422Z" fill="#009BBE"/>
<path d="M270.008 65.4105C268.588 65.8512 267.804 66.6837 267.241 68.2507C266.629 69.94 266.874 71.6294 267.829 72.2415C268.172 72.4619 268.563 72.5108 269.396 72.4618C270.645 72.3884 270.669 72.4129 270.081 73.5636C269.641 74.4205 268.147 74.8368 267.021 74.4205C266.703 74.2981 266.58 74.3226 266.409 74.6164C266.164 75.0082 266.14 74.9837 266.899 75.253C268.563 75.8161 270.473 75.1795 271.183 73.8085C271.502 73.2208 273.019 66.1206 272.897 65.8023C272.726 65.3616 270.963 65.1412 270.008 65.4105ZM271.55 66.0961C271.746 66.2185 271.697 66.6837 271.232 68.8872C270.938 70.3318 270.596 71.6049 270.473 71.6784C270.375 71.7518 269.91 71.8253 269.469 71.8253C268.196 71.8253 267.804 71.0908 268.123 69.3035C268.343 68.1037 268.759 67.2223 269.445 66.6102C270.155 65.9492 271.012 65.7533 271.55 66.0961Z" fill="black"/>
<path d="M275.566 65.4351C275.125 65.533 274.709 65.6554 274.636 65.7534C274.538 65.8513 273.118 72.0702 273.118 72.4619C273.118 72.4864 273.387 72.5109 273.681 72.5109H274.268L274.831 69.6953C275.59 65.9493 275.517 66.1206 276.447 66.1206C277.059 66.1206 277.28 66.0227 277.427 65.8024C277.5 65.6065 277.598 65.4351 277.598 65.3616C277.623 65.2147 276.472 65.2637 275.566 65.4351Z" fill="black"/>
<path d="M285.849 65.4351C285.457 65.5331 285.115 65.6555 285.041 65.7289C284.919 65.8514 283.009 74.7145 283.009 75.1307C283.009 75.2286 283.254 75.2776 283.572 75.2286C284.111 75.1797 284.135 75.1307 284.405 73.882L284.674 72.5844L285.727 72.5599C286.29 72.5354 287 72.413 287.294 72.2661C288.518 71.6295 289.497 70.0871 289.718 68.3732C289.987 66.0228 288.444 64.8475 285.849 65.4351ZM288.249 66.4879C288.518 66.8062 288.567 67.1 288.493 68.1284C288.346 70.3809 287.22 71.8009 285.653 71.8009C285.09 71.8009 284.894 71.7275 284.894 71.5316C284.894 71.3847 285.139 70.185 285.408 68.8384C285.702 67.5163 285.923 66.3655 285.923 66.3166C285.923 66.2921 286.094 66.1696 286.314 66.0717C286.902 65.8514 287.881 66.0472 288.249 66.4879Z" fill="black"/>
<path d="M293.072 65.4351C291.652 65.8758 290.575 67.8345 290.526 70.038C290.501 71.5315 290.844 72.1191 291.921 72.4864C293.904 73.1964 295.839 71.2867 296.206 68.3241C296.426 66.5613 295.741 65.4351 294.345 65.3126C293.953 65.2882 293.366 65.3371 293.072 65.4351ZM294.492 66.1451C295.055 66.3899 295.178 66.8796 295.055 68.2262C294.884 70.2583 293.904 71.8008 292.729 71.8008C291.946 71.8008 291.627 71.3601 291.627 70.2339C291.627 68.2752 292.558 66.292 293.611 66.0227C293.806 65.9737 293.978 65.9247 294.002 65.9247C294.027 65.9737 294.247 66.0227 294.492 66.1451Z" fill="black"/>
<path d="M278.431 65.729C278.137 66.7328 277.451 70.4054 277.451 70.993C277.451 71.8989 278.014 72.462 279.067 72.6089C279.802 72.7313 281.467 72.4865 281.907 72.2171C282.005 72.1437 282.397 70.7236 282.74 69.0587C283.082 67.3939 283.401 65.9003 283.45 65.729C283.523 65.4841 283.425 65.4352 282.936 65.4352C282.348 65.4352 282.323 65.4596 282.152 66.2431C281.001 71.703 281.05 71.6295 280.659 71.7275C279.924 71.9478 279.165 71.8254 278.822 71.4826C278.626 71.2868 278.48 71.0664 278.48 70.993C278.48 70.895 278.724 69.7198 278.994 68.3977C279.287 67.0511 279.508 65.8269 279.508 65.68C279.532 65.3127 278.528 65.3372 278.431 65.729Z" fill="black"/>
<path d="M303.722 71.0174C302.327 71.5071 301.323 72.7068 301.323 73.882C301.323 74.9103 302.498 75.9631 303.698 75.9631C304.971 75.9631 306.391 75.1307 306.954 74.0534C307.591 72.8047 306.979 71.3112 305.681 70.9684C304.873 70.7481 304.481 70.7481 303.722 71.0174Z" fill="black"/>
<path d="M235.78 71.1399C235.094 71.4092 234.237 72.1437 233.968 72.6823C233.625 73.3434 233.65 74.5921 233.993 75.0817C234.923 76.4283 237.518 76.2325 238.84 74.7145C240.285 73.0496 239.306 70.944 237.077 70.9685C236.612 70.9685 236.025 71.0664 235.78 71.1399Z" fill="black"/>
<path d="M245.402 78.9012C244.839 78.9991 243.933 79.146 243.37 79.2685L242.342 79.4888L242.072 80.3947C241.925 80.9089 241.705 81.7658 241.534 82.3044C241.387 82.8186 241.289 83.2838 241.338 83.3328C241.387 83.3817 242.048 83.1859 242.856 82.9655C244.055 82.5982 244.619 82.5248 246.014 82.5982C247.483 82.6472 247.752 82.6962 248.095 83.039C248.487 83.4307 248.585 84.1407 248.365 85.0221C248.267 85.4139 248.144 85.5118 247.679 85.5118C246.993 85.5118 244.692 85.9036 243.223 86.2953C239.355 87.2991 237.004 89.5516 236.465 92.7345C236.074 95.0605 237.053 96.7498 239.355 97.6313C240.211 97.974 240.775 98.0475 243.101 98.1209C246.088 98.2189 248.071 97.9495 250.054 97.2395L251.082 96.8723L252.355 91.241C253.457 86.4667 253.629 85.3649 253.677 83.8959C253.702 82.4024 253.653 82.0596 253.31 81.3496C252.821 80.3702 251.792 79.5623 250.593 79.195C249.515 78.8522 246.798 78.7053 245.402 78.9012ZM247.532 88.4499C247.532 88.5723 247.238 89.9923 246.896 91.5838C246.161 94.9136 246.234 94.8156 244.325 94.8156C243.125 94.8156 242.293 94.5218 241.999 93.9587C241.729 93.3956 241.803 92 242.195 91.1676C242.856 89.6985 243.933 88.915 245.867 88.4743C247.238 88.2295 247.532 88.205 247.532 88.4499Z" fill="black"/>
<path d="M260.876 78.9258C259.358 79.1461 257.57 79.5379 256.591 79.9541L255.881 80.2724L254.02 88.7193C252.992 93.3712 252.111 97.3375 252.062 97.5824L251.988 97.9496H257.668L259.333 90.4086C260.239 86.2464 261.047 82.8187 261.096 82.7452C261.17 82.6963 261.831 82.6228 262.614 82.5983C264.23 82.5494 265.014 82.8676 265.234 83.7001C265.307 84.0184 264.842 86.4423 263.863 90.8738C263.055 94.5464 262.394 97.6803 262.394 97.7782C262.394 97.9251 263.202 97.9741 265.185 97.9251L267.976 97.8762L269.421 91.4859C270.204 87.9603 270.939 84.6794 271.036 84.1653C271.208 83.3818 271.306 83.2104 271.893 82.9166C272.31 82.6963 272.922 82.5738 273.46 82.5738C274.856 82.5738 275.517 83.0635 275.542 84.0918C275.542 84.5081 273.338 94.8892 272.652 97.5824L272.579 97.9496H278.284L278.553 96.7744C280.561 87.8623 281.295 84.2387 281.295 83.3328C281.271 81.9617 280.854 80.9579 279.9 80.1255C278.822 79.1461 277.647 78.8278 275.37 78.8523C273.338 78.8768 271.869 79.1951 270.326 79.9786L269.323 80.4682L268.49 79.9541C268.049 79.6603 267.29 79.293 266.801 79.1706C265.748 78.8278 262.565 78.7054 260.876 78.9258Z" fill="black"/>
<path d="M289.668 78.9012C289.105 78.9991 288.224 79.146 287.661 79.2685L286.632 79.4888L286.094 81.3985C285.775 82.4513 285.555 83.3328 285.58 83.3572C285.604 83.3817 286.29 83.2348 287.098 82.99C288.616 82.5493 291.015 82.4269 291.847 82.7451C292.582 83.0145 292.876 83.651 292.704 84.6059L292.557 85.4139L290.476 85.7077C284.625 86.5646 281.564 88.6457 280.781 92.4162C280.242 94.938 281.197 96.7009 283.572 97.6313C284.429 97.9496 284.967 98.023 287.44 98.0965C289.84 98.1454 290.574 98.0964 292.068 97.8026C293.684 97.4844 295.398 96.8967 295.398 96.6764C295.398 96.6274 295.985 93.9342 296.695 90.7268C298.189 84.0183 298.287 82.9165 297.577 81.3985C297.062 80.3457 296.108 79.5623 294.81 79.195C293.782 78.8522 291.064 78.7053 289.668 78.9012ZM291.798 88.8906C291.725 89.2578 291.407 90.6289 291.113 91.9755C290.819 93.3221 290.501 94.4729 290.403 94.5708C290.329 94.6687 289.668 94.7667 288.958 94.7911C286.461 94.938 285.555 93.7873 286.339 91.5103C286.902 89.9189 288.126 88.9395 290.085 88.4988C291.896 88.1316 291.97 88.1561 291.798 88.8906Z" fill="black"/>
<path d="M311.704 78.9992C309.206 79.5623 307.37 80.8599 306.538 82.6717C305.926 83.9938 305.877 86.0505 306.464 87.1278C307.003 88.1071 308.276 89.2089 309.965 90.1393C311.532 90.9717 312.218 91.7062 312.218 92.5142C312.218 93.1263 311.532 93.8853 310.896 94.0567C309.819 94.326 307.125 93.8363 305.289 93.0283C305.069 92.9304 304.897 93.2487 304.383 94.7667C304.016 95.795 303.747 96.6764 303.747 96.7254C303.747 96.9213 305.387 97.5578 306.538 97.8272C307.982 98.1699 311.141 98.1454 312.463 97.8272C315.842 96.9457 317.629 95.036 317.849 92.1469C317.923 91.1186 317.874 90.7758 317.555 90.0168C317.041 88.8661 315.768 87.6174 314.005 86.6626C312.169 85.6587 311.508 85.0466 311.508 84.4101C311.508 83.6756 312.267 82.9655 313.246 82.8186C314.152 82.6717 316.086 82.941 316.992 83.3083C317.555 83.5531 317.58 83.5531 317.751 83.0879C317.947 82.5738 318.951 79.7337 318.951 79.6602C318.951 79.6357 318.437 79.4399 317.8 79.2195C316.258 78.7788 313.271 78.6319 311.704 78.9992Z" fill="black"/>
<path d="M214.332 79.3419C214.332 79.7827 216.168 95.9909 216.34 97.1171L216.438 97.7782H221.726L226.354 88.9151C228.9 84.0428 231.152 79.7827 231.324 79.4644L231.667 78.9012H226.501L223.783 84.7529C222.289 87.9602 220.918 91.0207 220.747 91.5593L220.404 92.4897L220.478 91.5348C220.502 91.0207 220.453 88.1806 220.306 85.218C220.184 82.2555 220.061 79.6602 220.061 79.3664V78.9012H214.357L214.332 79.3419Z" fill="black"/>
<path d="M232.67 79.0481C232.67 79.146 230.075 91.8041 228.924 97.2885L228.826 97.7781H234.311L236.196 88.5723C237.224 83.5286 238.106 79.2684 238.155 79.146C238.204 78.9991 237.592 78.9257 235.437 78.9257C233.895 78.9257 232.67 78.9746 232.67 79.0481Z" fill="black"/>
<path d="M300.442 78.9502C300.442 78.9746 299.56 83.2103 298.483 88.3519L296.549 97.6802L299.217 97.7292C300.686 97.7537 301.911 97.7537 301.96 97.7047C302.033 97.6312 305.828 79.3419 305.828 79.0726C305.803 78.9502 300.49 78.8033 300.442 78.9502Z" fill="black"/>
<path d="M204.318 68.8139H198.564L199.691 63.2072H194.451L193.325 68.8139H187.596L186.592 73.7596H192.346L191.219 79.3664H196.459L197.585 73.7596H203.314L204.318 68.8139Z" fill="black"/>
<defs>
<linearGradient id="paint0_linear_339_1153" x1="14.21" y1="58.6873" x2="14.21" y2="0.995103" gradientUnits="userSpaceOnUse">
<stop stop-color="#009BBE" stop-opacity="0.2"/>
<stop offset="0.8" stop-color="#009BBE"/>
</linearGradient>
<linearGradient id="paint1_linear_339_1153" x1="77.0439" y1="58.6873" x2="77.0439" y2="0.997552" gradientUnits="userSpaceOnUse">
<stop offset="0.2" stop-color="#009BBE"/>
<stop offset="1" stop-color="#009BBE" stop-opacity="0.2"/>
</linearGradient>
</defs>
</svg>
