<svg width="238" height="42" viewBox="0 0 238 42" fill="none" xmlns="http://www.w3.org/2000/svg">
<path d="M9.17738 36.1903C8.83537 36.1903 8.50477 36.0686 8.25396 35.8142C4.76551 32.4404 2.85028 27.9383 2.85028 23.1597C2.85028 18.3811 4.76551 13.89 8.25396 10.5052C8.76697 10.0074 9.59918 10.0074 10.1122 10.5052C10.6252 11.0029 10.6252 11.8104 10.1122 12.3082C7.12535 15.2064 5.47232 19.0669 5.47232 23.1597C5.47232 27.2525 7.11395 31.113 10.1122 34.0112C10.6252 34.5089 10.6252 35.3164 10.1122 35.8142C9.84999 36.0686 9.51938 36.1903 9.17738 36.1903Z" fill="#003756"/>
<path d="M33.4256 36.1903C33.0836 36.1903 32.753 36.0686 32.5022 35.8142C31.9892 35.3164 31.9892 34.5089 32.5022 34.0112C35.489 31.113 37.142 27.2525 37.142 23.1486C37.142 19.0448 35.4776 15.2064 32.4908 12.3082C31.9778 11.8104 31.9778 11.0029 32.4908 10.5052C33.0038 10.0074 33.836 10.0074 34.349 10.5052C37.8375 13.89 39.7527 18.3811 39.7527 23.1597C39.7527 27.9383 37.8375 32.4404 34.349 35.8142C34.0982 36.0686 33.7562 36.1903 33.4256 36.1903Z" fill="#003756"/>
<path d="M32.7073 24.2434H22.8575C23.0627 25.2058 23.5302 25.9691 24.237 26.5221C24.9552 27.0752 25.8216 27.3518 26.859 27.3518C28.17 27.3518 29.2416 26.9204 30.0853 26.0465C30.2449 25.8806 30.5071 25.8695 30.6781 26.0133L32.2741 27.3407C32.4565 27.4956 32.4793 27.7721 32.3083 27.9491C31.7155 28.5796 30.9973 29.0995 30.1423 29.4977C29.139 29.9623 27.9876 30.1946 26.6766 30.1946C25.3656 30.1946 24.1002 29.907 23.0057 29.3318C21.9227 28.7566 21.0563 27.938 20.4293 26.854C19.8023 25.781 19.4831 24.5421 19.4831 23.1483C19.4831 22.1196 19.6541 21.1683 20.0075 20.2944C20.3495 19.4206 20.8283 18.6794 21.4439 18.071C22.0595 17.4627 22.8005 16.987 23.6442 16.6441C24.4878 16.3012 25.3884 16.1353 26.3574 16.1353C28.2156 16.1353 29.766 16.6883 31.0315 17.7834C31.3963 18.1042 31.7155 18.4582 31.9777 18.8564C32.7757 20.029 33.1747 21.4117 33.1747 22.9935C33.1747 23.3143 33.1633 23.6019 33.1405 23.8563C33.1177 24.0775 32.9239 24.2434 32.7073 24.2434ZM24.2142 19.686C23.5644 20.1617 23.1311 20.8365 22.9031 21.8431H29.9371C29.8003 21.1572 29.5836 20.6816 29.2872 20.2723C28.9908 19.863 28.6032 19.5533 28.1358 19.321C27.6684 19.0887 27.1212 18.967 26.5284 18.967C25.6278 18.9781 24.864 19.2104 24.2142 19.686Z" fill="#003756"/>
<path d="M13.2358 29.9734H10.8988C10.6594 29.9734 10.4656 29.7854 10.4656 29.5531V21.821C10.4656 18.7348 13.042 16.2349 16.2227 16.2349H18.0581C18.2975 16.2349 18.4913 16.4229 18.4913 16.6552V19.1109C18.4913 19.3432 18.2975 19.5312 18.0581 19.5312H16.0289C14.7292 19.5312 13.669 20.56 13.669 21.821V29.5531C13.669 29.7854 13.4752 29.9734 13.2358 29.9734Z" fill="#003756"/>
<path d="M116.237 13.7018C115.815 13.3036 115.609 12.8058 115.609 12.2417C115.609 11.6776 115.815 11.1798 116.237 10.7705C116.658 10.3612 117.171 10.1621 117.787 10.1621C118.403 10.1621 118.881 10.3612 119.315 10.7816C119.748 11.2019 119.953 11.6776 119.953 12.2417C119.953 12.6178 119.85 12.9607 119.657 13.2815C119.463 13.6023 119.201 13.8567 118.859 14.0337C118.528 14.2217 118.163 14.3102 117.787 14.3102C117.171 14.3102 116.658 14.1111 116.237 13.7018ZM116.601 16.3456H118.916C119.166 16.3456 119.372 16.5447 119.372 16.788V29.531C119.372 29.7744 119.166 29.9735 118.916 29.9735H116.601C116.351 29.9735 116.145 29.7744 116.145 29.531V16.777C116.157 16.5336 116.351 16.3456 116.601 16.3456Z" fill="#003756"/>
<path d="M121.834 27.8606L122.94 26.2677C123.088 26.0465 123.407 26.0133 123.612 26.1792C124.068 26.5664 124.547 26.854 125.06 27.0642C125.699 27.3186 126.451 27.4513 127.295 27.4513C127.899 27.4513 128.389 27.3296 128.731 27.0863C129.084 26.8429 129.255 26.5221 129.255 26.1129C129.255 25.781 129.05 25.5155 128.663 25.3054C128.264 25.0952 127.534 24.8076 126.474 24.4536C126.052 24.3209 125.676 24.1771 125.345 24.0443C125.015 23.9116 124.684 23.7457 124.342 23.5576C124 23.3696 123.703 23.1594 123.464 22.9382C123.225 22.7059 122.997 22.4515 122.791 22.1638C122.586 21.8762 122.438 21.5555 122.335 21.1904C122.233 20.8254 122.176 20.4272 122.176 19.9958C122.176 18.8896 122.643 17.9715 123.578 17.2304C124.513 16.4892 125.699 16.1353 127.124 16.1353C128.834 16.1353 130.373 16.622 131.752 17.5843C131.946 17.7171 132.003 17.9825 131.877 18.1817L130.76 19.8741C130.612 20.0953 130.304 20.1396 130.099 19.9736C129.848 19.7856 129.586 19.6197 129.312 19.4648C128.891 19.2436 128.492 19.0777 128.104 18.9781C127.716 18.8785 127.34 18.8232 126.953 18.8232C126.565 18.8232 126.234 18.9228 125.904 19.1219C125.585 19.321 125.425 19.6086 125.425 19.9958C125.425 20.217 125.528 20.4161 125.721 20.6152C125.915 20.8143 126.166 20.9803 126.462 21.1462C126.759 21.301 127.158 21.478 127.659 21.6661C129.153 22.2413 130.076 22.6174 130.441 22.7944C131.364 23.2811 131.98 23.8673 132.265 24.5532C132.436 24.9846 132.516 25.4713 132.516 26.0354C132.516 26.5996 132.413 27.1526 132.197 27.6504C131.98 28.1482 131.661 28.5796 131.239 28.9557C130.817 29.3318 130.27 29.6305 129.597 29.8406C128.925 30.0508 128.15 30.1614 127.283 30.1614C125.208 30.1614 123.43 29.5862 121.936 28.4358C121.743 28.3141 121.697 28.0597 121.834 27.8606Z" fill="#003756"/>
<path d="M148.567 23.0377C148.544 21.7214 148.237 20.5488 147.632 19.5091C147.005 18.4361 146.128 17.6065 145.022 17.0202C143.95 16.456 142.73 16.1684 141.385 16.1463C141.248 16.1353 141.111 16.1353 140.963 16.1353C140.006 16.1353 139.116 16.3122 138.273 16.6662C137.441 17.0202 136.722 17.5069 136.118 18.1263C135.514 18.7458 135.047 19.498 134.705 20.3719C134.363 21.2568 134.18 22.197 134.18 23.2036C134.18 24.0333 134.294 24.8076 134.511 25.5376C134.727 26.2677 135.047 26.9093 135.457 27.4734C135.867 28.0376 136.346 28.5132 136.905 28.9225C137.463 29.3318 138.09 29.6415 138.786 29.8517C139.481 30.0619 140.222 30.1614 140.986 30.1614C142.901 30.1614 144.383 29.4756 145.455 28.115H145.501V29.5088C145.501 29.7521 145.706 29.9512 145.957 29.9512H148.134C148.385 29.9512 148.59 29.7521 148.59 29.5088L148.567 23.0377ZM144.315 26.2013C143.54 26.9646 142.594 27.3518 141.488 27.3518C140.302 27.3518 139.333 26.9646 138.581 26.2013C137.828 25.4381 137.452 24.4425 137.452 23.2368C137.452 22.5953 137.555 22.009 137.771 21.467C137.976 20.9249 138.273 20.4714 138.638 20.1174C139.002 19.7635 139.436 19.4759 139.926 19.2768C140.416 19.0777 140.94 18.9781 141.51 18.9781C141.624 18.9781 141.738 18.9892 141.852 18.9892C142.787 19.0887 143.585 19.4648 144.235 20.1285C144.771 20.6595 145.159 21.301 145.352 22.0422C145.375 22.1417 145.398 22.2523 145.421 22.3519C145.466 22.6284 145.489 22.916 145.489 23.2258C145.478 24.4425 145.09 25.427 144.315 26.2013Z" fill="#003756"/>
<path d="M112.474 19.5091C111.859 18.4361 110.992 17.6065 109.898 17.0202C108.803 16.4339 107.549 16.1353 106.147 16.1353C104.745 16.1353 103.445 16.445 102.328 17.0534C101.211 17.6618 100.367 18.5024 99.7631 19.5754C99.1703 20.6373 98.8739 21.8431 98.8739 23.1815C98.8739 24.1771 99.0449 25.0952 99.3983 25.958C99.7517 26.8208 100.231 27.5619 100.858 28.1924C101.485 28.8119 102.248 29.3097 103.16 29.6636C104.072 30.0176 105.064 30.1946 106.136 30.1946C107.527 30.1946 108.781 29.907 109.875 29.3207C110 29.2544 110.114 29.188 110.24 29.1106V29.5309C110.24 30.4933 109.875 31.2897 109.145 31.9313C108.416 32.5729 107.378 32.8826 106.056 32.8826C105.144 32.8826 104.346 32.772 103.662 32.5507C103.103 32.3737 102.476 32.1193 101.781 31.7764C101.53 31.6547 101.211 31.7875 101.143 32.053L100.618 33.9556C100.561 34.1547 100.652 34.3538 100.835 34.4533C101.542 34.8294 102.328 35.117 103.183 35.3383C104.164 35.5816 105.19 35.7033 106.25 35.7033C107.31 35.7033 108.188 35.5816 108.986 35.3604C109.795 35.1281 110.468 34.8073 111.015 34.387C111.562 33.9666 112.018 33.4688 112.383 32.8605C112.748 32.2631 113.01 31.6105 113.158 30.8915C113.318 30.1835 113.398 29.4092 113.398 28.5575V23.1815C113.409 21.7988 113.101 20.582 112.474 19.5091ZM109.02 26.1682C108.245 26.9535 107.287 27.3518 106.159 27.3518C105.03 27.3518 104.015 26.9535 103.263 26.146C102.499 25.3496 102.123 24.3541 102.123 23.1705C102.123 21.9869 102.499 20.9692 103.24 20.1728C103.993 19.3763 104.962 18.9781 106.159 18.9781C107.356 18.9781 108.268 19.3653 109.031 20.1506C109.795 20.936 110.183 21.9426 110.183 23.1815C110.183 24.4204 109.795 25.3828 109.02 26.1682Z" fill="#003756"/>
<path d="M71.1487 29.9847H68.8116C68.5608 29.9847 68.3556 29.7855 68.3556 29.5422V22.6176C68.3556 20.8477 66.9534 19.3212 65.1294 19.2327C63.1799 19.1442 61.5611 20.6486 61.5611 22.518V29.5422C61.5611 29.7855 61.3559 29.9847 61.1051 29.9847H58.7681C58.5173 29.9847 58.3121 29.7855 58.3121 29.5422V22.6618C58.3121 19.0558 61.3559 16.0138 65.061 16.0802C68.6862 16.1355 71.5933 19.0004 71.5933 22.518V29.5422C71.5933 29.7855 71.3995 29.9847 71.1487 29.9847Z" fill="#003756"/>
<path d="M55.6102 24.2434H45.7604C45.9656 25.2058 46.433 25.9691 47.1399 26.5221C47.8581 27.0752 48.7359 27.3518 49.7619 27.3518C51.0729 27.3518 52.1445 26.9204 52.9881 26.0465C53.1478 25.8806 53.41 25.8695 53.581 26.0133L55.177 27.3407C55.3594 27.4956 55.3822 27.7721 55.2112 27.9491C54.6184 28.5796 53.9002 29.0995 53.0451 29.4977C52.0419 29.9623 50.8905 30.1946 49.5795 30.1946C48.2685 30.1946 47.0031 29.907 45.9086 29.3318C44.8256 28.7566 43.9592 27.938 43.3322 26.854C42.7052 25.7699 42.386 24.5421 42.386 23.1483C42.386 22.1196 42.557 21.1683 42.9104 20.2944C43.2524 19.4206 43.7312 18.6794 44.3468 18.071C44.9624 17.4627 45.6806 16.987 46.5243 16.6441C47.3679 16.3012 48.2685 16.1353 49.2375 16.1353C51.0957 16.1353 52.6461 16.6883 53.9116 17.7834C54.2764 18.1042 54.5956 18.4582 54.8578 18.8564C55.6558 20.029 56.0548 21.4117 56.0548 22.9935C56.0548 23.3143 56.0434 23.6019 56.0206 23.8563C56.0206 24.0775 55.8382 24.2434 55.6102 24.2434ZM47.1285 19.686C46.4786 20.1617 46.0454 20.8365 45.8174 21.8431H52.8513C52.7145 21.1572 52.4979 20.6816 52.2015 20.2723C51.9051 19.863 51.5175 19.5533 51.0501 19.321C50.5827 19.0887 50.0355 18.967 49.4427 18.967C48.5421 18.9781 47.7783 19.2104 47.1285 19.686Z" fill="#003756"/>
<path d="M87.0976 24.2434H77.2478C77.453 25.2058 77.9204 25.9691 78.6386 26.5221C79.3568 27.0752 80.2347 27.3518 81.2607 27.3518C82.5717 27.3518 83.6433 26.9204 84.4869 26.0465C84.6465 25.8806 84.9087 25.8695 85.0797 26.0133L86.6758 27.3407C86.8696 27.4956 86.881 27.7721 86.71 27.9491C86.1171 28.5796 85.3989 29.0995 84.5439 29.4977C83.5407 29.9623 82.3893 30.1946 81.0783 30.1946C79.7673 30.1946 78.4904 29.907 77.4074 29.3318C76.3244 28.7566 75.4694 27.938 74.831 26.854C74.1926 25.7699 73.8848 24.5421 73.8848 23.1483C73.8848 22.1196 74.0558 21.1683 74.4092 20.2944C74.7512 19.4206 75.23 18.6794 75.8456 18.071C76.4612 17.4627 77.1794 16.987 78.023 16.6441C78.8666 16.3012 79.7673 16.1353 80.7363 16.1353C82.5945 16.1353 84.1449 16.6883 85.4103 17.7834C85.7751 18.1042 86.0944 18.4582 86.3566 18.8564C87.1546 20.029 87.5536 21.4117 87.5536 22.9935C87.5536 23.3143 87.5422 23.6019 87.5194 23.8563C87.508 24.0775 87.3256 24.2434 87.0976 24.2434ZM78.6158 19.686C77.966 20.1617 77.5328 20.8365 77.3048 21.8431H84.3387C84.2019 21.1572 83.9739 20.6816 83.6889 20.2723C83.3925 19.863 83.0049 19.5533 82.5375 19.321C82.0701 19.0887 81.5115 18.9781 80.9187 18.9781C80.0295 18.9781 79.2542 19.2104 78.6158 19.686Z" fill="#003756"/>
<path d="M92.7748 29.9847H90.4377C90.1983 29.9847 90.0045 29.7966 90.0045 29.5643V21.8322C90.0045 18.746 92.581 16.2461 95.7616 16.2461H97.597C97.8364 16.2461 98.0302 16.4341 98.0302 16.6664V19.1221C98.0302 19.3544 97.8364 19.5425 97.597 19.5425H95.5678C94.2568 19.5425 93.208 20.5712 93.208 21.8322V29.5643C93.208 29.7966 93.0142 29.9847 92.7748 29.9847Z" fill="#003756"/>
<rect x="154.629" y="10.1318" width="1.42516" height="24.0345" fill="#003756"/>
<path d="M200.765 7.39674C199.77 7.69637 199.221 8.26232 198.827 9.32764C198.398 10.4762 198.569 11.6247 199.238 12.0409C199.478 12.1907 199.753 12.224 200.336 12.1907C201.211 12.1407 201.228 12.1574 200.817 12.9397C200.508 13.5223 199.461 13.8053 198.672 13.5223C198.449 13.4391 198.363 13.4558 198.243 13.6555C198.072 13.9218 198.055 13.9052 198.586 14.0883C199.753 14.4711 201.091 14.0384 201.589 13.1062C201.812 12.7067 202.875 7.87947 202.789 7.66307C202.669 7.36345 201.434 7.21364 200.765 7.39674ZM201.846 7.86282C201.983 7.94605 201.949 8.26231 201.623 9.76042C201.417 10.7425 201.177 11.6081 201.091 11.658C201.022 11.708 200.696 11.7579 200.388 11.7579C199.496 11.7579 199.221 11.2585 199.444 10.0434C199.599 9.22776 199.89 8.62852 200.371 8.21238C200.868 7.76295 201.468 7.62978 201.846 7.86282Z" fill="#003756"/>
<path d="M204.659 7.41328C204.35 7.47986 204.059 7.56308 204.007 7.62967C203.939 7.69625 202.944 11.9242 202.944 12.1906C202.944 12.2072 203.132 12.2239 203.338 12.2239H203.75L204.145 10.3096C204.676 7.76283 204.625 7.87935 205.277 7.87935C205.706 7.87935 205.86 7.81277 205.963 7.66296C206.014 7.52979 206.083 7.41327 206.083 7.36334C206.1 7.26346 205.294 7.29676 204.659 7.41328Z" fill="#003756"/>
<path d="M211.864 7.41333C211.59 7.47991 211.35 7.56314 211.298 7.61307C211.213 7.6963 209.875 13.722 209.875 14.005C209.875 14.0716 210.046 14.1049 210.269 14.0716C210.646 14.0383 210.664 14.005 210.852 13.1561L211.041 12.2739L211.779 12.2572C212.173 12.2406 212.671 12.1573 212.877 12.0575C213.734 11.6247 214.421 10.576 214.575 9.41081C214.764 7.81282 213.683 7.01383 211.864 7.41333ZM213.546 8.12909C213.734 8.34548 213.769 8.54523 213.717 9.24435C213.614 10.7757 212.825 11.7412 211.727 11.7412C211.333 11.7412 211.195 11.6913 211.195 11.5581C211.195 11.4582 211.367 10.6426 211.556 9.72707C211.762 8.82821 211.916 8.04586 211.916 8.01257C211.916 7.99592 212.036 7.91269 212.19 7.84611C212.602 7.6963 213.288 7.82947 213.546 8.12909Z" fill="#003756"/>
<path d="M216.925 7.41315C215.93 7.71278 215.175 9.04442 215.141 10.5425C215.124 11.5579 215.364 11.9574 216.119 12.2071C217.509 12.6898 218.864 11.3915 219.121 9.37734C219.275 8.17885 218.795 7.41315 217.817 7.32993C217.543 7.31328 217.131 7.34657 216.925 7.41315ZM217.92 7.89588C218.315 8.06233 218.401 8.39525 218.315 9.31076C218.195 10.6923 217.509 11.741 216.685 11.741C216.136 11.741 215.913 11.4414 215.913 10.6757C215.913 9.34404 216.565 7.99575 217.303 7.81265C217.44 7.77936 217.56 7.74607 217.577 7.74607C217.594 7.77936 217.749 7.81265 217.92 7.89588Z" fill="#003756"/>
<path d="M206.666 7.61295C206.461 8.29542 205.98 10.7923 205.98 11.1918C205.98 11.8076 206.375 12.1905 207.112 12.2904C207.627 12.3736 208.794 12.2071 209.102 12.024C209.171 11.9741 209.446 11.0087 209.686 9.87675C209.926 8.74485 210.149 7.72947 210.183 7.61295C210.235 7.44649 210.166 7.4132 209.823 7.4132C209.411 7.4132 209.394 7.42985 209.274 7.96251C208.468 11.6745 208.502 11.6245 208.228 11.6911C207.713 11.8409 207.181 11.7577 206.941 11.5247C206.804 11.3915 206.701 11.2417 206.701 11.1918C206.701 11.1252 206.872 10.3262 207.061 9.42732C207.267 8.51181 207.421 7.67953 207.421 7.57966C207.438 7.32997 206.735 7.34662 206.666 7.61295Z" fill="#003756"/>
<path d="M224.388 11.2087C223.41 11.5416 222.706 12.3572 222.706 13.1562C222.706 13.8554 223.53 14.5711 224.37 14.5711C225.262 14.5711 226.257 14.0052 226.652 13.2728C227.098 12.4238 226.669 11.4084 225.76 11.1754C225.194 11.0256 224.919 11.0256 224.388 11.2087Z" fill="#003756"/>
<path d="M176.782 11.292C176.302 11.4751 175.702 11.9744 175.513 12.3406C175.273 12.7901 175.29 13.639 175.53 13.9719C176.182 14.8874 178 14.7543 178.927 13.7222C179.939 12.5903 179.253 11.1588 177.692 11.1754C177.366 11.1754 176.954 11.242 176.782 11.292Z" fill="#003756"/>
<path d="M183.524 16.5684C183.13 16.635 182.495 16.7349 182.1 16.8181L181.38 16.9679L181.191 17.5838C181.088 17.9334 180.934 18.516 180.814 18.8822C180.711 19.2317 180.642 19.548 180.677 19.5813C180.711 19.6146 181.174 19.4814 181.74 19.3316C182.581 19.0819 182.975 19.032 183.953 19.0819C184.982 19.1152 185.171 19.1485 185.411 19.3815C185.686 19.6479 185.754 20.1306 185.6 20.7298C185.531 20.9962 185.446 21.0628 185.12 21.0628C184.639 21.0628 183.027 21.3291 181.997 21.5954C179.287 22.2779 177.64 23.8093 177.263 25.9732C176.988 27.5546 177.674 28.7031 179.287 29.3024C179.887 29.5354 180.282 29.5853 181.912 29.6353C184.005 29.7018 185.394 29.5187 186.784 29.036L187.504 28.7863L188.396 24.9578C189.168 21.7119 189.288 20.9629 189.323 19.9641C189.34 18.9488 189.306 18.7157 189.065 18.233C188.722 17.5672 188.002 17.0179 187.161 16.7682C186.406 16.5351 184.502 16.4353 183.524 16.5684ZM185.017 23.0602C185.017 23.1435 184.811 24.1089 184.571 25.1909C184.056 27.4547 184.108 27.3881 182.769 27.3881C181.929 27.3881 181.346 27.1884 181.14 26.8055C180.951 26.4227 181.002 25.4739 181.277 24.9079C181.74 23.9092 182.495 23.3765 183.85 23.0769C184.811 22.9104 185.017 22.8938 185.017 23.0602Z" fill="#003756"/>
<path d="M194.366 16.585C193.303 16.7348 192.05 17.0012 191.364 17.2841L190.867 17.5005L189.563 23.2433C188.842 26.406 188.225 29.1026 188.191 29.269L188.139 29.5187H192.119L193.286 24.3918C193.92 21.5621 194.486 19.2317 194.521 19.1818C194.572 19.1485 195.035 19.0985 195.584 19.0819C196.717 19.0486 197.266 19.265 197.42 19.8309C197.471 20.0473 197.145 21.6952 196.459 24.7081C195.893 27.205 195.43 29.3356 195.43 29.4022C195.43 29.5021 195.996 29.5353 197.386 29.5021L199.341 29.4688L200.353 25.1242C200.902 22.7273 201.417 20.4968 201.486 20.1472C201.606 19.6145 201.674 19.498 202.086 19.2983C202.378 19.1485 202.807 19.0652 203.184 19.0652C204.162 19.0652 204.625 19.3981 204.642 20.0973C204.642 20.3802 203.098 27.438 202.618 29.269L202.566 29.5187H206.564L206.752 28.7197C208.159 22.6607 208.674 20.1971 208.674 19.5812C208.657 18.6491 208.365 17.9666 207.696 17.4007C206.941 16.7348 206.118 16.5184 204.522 16.5351C203.098 16.5517 202.069 16.7681 200.988 17.3008L200.285 17.6337L199.702 17.2841C199.393 17.0844 198.861 16.8347 198.518 16.7515C197.78 16.5184 195.55 16.4352 194.366 16.585Z" fill="#003756"/>
<path d="M214.54 16.5684C214.146 16.635 213.528 16.7349 213.134 16.8181L212.413 16.9679L212.036 18.2663C211.813 18.982 211.658 19.5813 211.676 19.5979C211.693 19.6146 212.173 19.5147 212.739 19.3483C213.803 19.0486 215.484 18.9654 216.067 19.1818C216.582 19.3649 216.788 19.7977 216.668 20.4469L216.565 20.9962L215.107 21.1959C211.007 21.7785 208.862 23.1934 208.313 25.7568C207.936 27.4713 208.605 28.6698 210.269 29.3024C210.869 29.5187 211.247 29.5687 212.979 29.6186C214.661 29.6519 215.175 29.6186 216.222 29.4189C217.354 29.2025 218.555 28.803 218.555 28.6532C218.555 28.6199 218.967 26.7889 219.464 24.6083C220.51 20.0474 220.579 19.2983 220.082 18.2663C219.721 17.5505 219.052 17.0179 218.143 16.7682C217.423 16.5351 215.518 16.4353 214.54 16.5684ZM216.033 23.3599C215.982 23.6095 215.759 24.5417 215.553 25.4572C215.347 26.3727 215.124 27.1551 215.055 27.2216C215.004 27.2882 214.54 27.3548 214.043 27.3715C212.293 27.4713 211.658 26.689 212.207 25.1409C212.602 24.059 213.46 23.3931 214.832 23.0935C216.102 22.8438 216.153 22.8605 216.033 23.3599Z" fill="#003756"/>
<path d="M229.98 16.6352C228.23 17.018 226.944 17.9002 226.36 19.132C225.932 20.0309 225.897 21.4291 226.309 22.1615C226.686 22.8273 227.578 23.5764 228.762 24.2089C229.86 24.7749 230.34 25.2743 230.34 25.8236C230.34 26.2397 229.86 26.7557 229.414 26.8722C228.659 27.0553 226.772 26.7224 225.486 26.1731C225.331 26.1065 225.211 26.3229 224.851 27.355C224.593 28.0541 224.405 28.6533 224.405 28.6866C224.405 28.8198 225.554 29.2526 226.36 29.4357C227.373 29.6687 229.586 29.6521 230.512 29.4357C232.879 28.8364 234.132 27.5381 234.286 25.5739C234.338 24.8748 234.303 24.6417 234.08 24.1257C233.72 23.3434 232.828 22.4944 231.593 21.8453C230.306 21.1628 229.843 20.7466 229.843 20.3139C229.843 19.8145 230.375 19.3318 231.061 19.2319C231.696 19.132 233.051 19.3151 233.686 19.5648C234.08 19.7313 234.097 19.7313 234.218 19.415C234.355 19.0654 235.058 17.1345 235.058 17.0846C235.058 17.068 234.698 16.9348 234.252 16.785C233.171 16.4854 231.078 16.3855 229.98 16.6352Z" fill="#003756"/>
<path d="M161.755 16.868C161.755 17.1676 163.041 28.187 163.161 28.9527L163.23 29.4021H166.935L170.178 23.3764C171.962 20.0639 173.54 17.1676 173.66 16.9512L173.9 16.5684H170.281L168.376 20.5467C167.33 22.7272 166.369 24.8079 166.249 25.1742L166.009 25.8067L166.06 25.1575C166.078 24.8079 166.043 22.8771 165.94 20.8629C165.855 18.8488 165.769 17.0844 165.769 16.8846V16.5684H161.772L161.755 16.868Z" fill="#003756"/>
<path d="M174.604 16.6682C174.604 16.7348 172.785 25.3406 171.979 29.0692L171.91 29.4021H175.753L177.074 23.1433C177.794 19.7143 178.412 16.818 178.446 16.7348C178.481 16.6349 178.052 16.585 176.542 16.585C175.461 16.585 174.604 16.6183 174.604 16.6682Z" fill="#003756"/>
<path d="M222.089 16.6019C222.089 16.6185 221.471 19.4982 220.716 22.9938L219.361 29.3358L221.231 29.3691C222.26 29.3857 223.118 29.3857 223.152 29.3524C223.204 29.3025 225.863 16.8682 225.863 16.6851C225.846 16.6019 222.123 16.502 222.089 16.6019Z" fill="#003756"/>
</svg>
